<svg id="Layer_1" data-name="Layer 1" xmlns="http://www.w3.org/2000/svg" viewBox="0 0 334.82 446.99"><defs><style>.cls-1{stroke:#fff;stroke-miterlimit:10;stroke-width:1.5px;}</style></defs><title>abruzzo</title><path class="cls-1" d="M207.81,177.88c.27.77,1.93,1.76,2.52,2.3a17.88,17.88,0,0,1,2.54,1.76c0,1.46,1.82,2.3,2.67,3.28l0,.43A17.12,17.12,0,0,0,221.7,189c.15.49,0,1.26.19,1.72l-.13.69a3.73,3.73,0,0,0,1.79,1.43,3.47,3.47,0,0,0-.49,1.09l.59.24a3.09,3.09,0,0,1-1.54,1.26l-1.71,2.42,0,1A3.72,3.72,0,0,1,219,199.9a3.68,3.68,0,0,0-.43,1.44,4.29,4.29,0,0,0-.84,1.33l-.49.06-.48,1c-.31.22-1.15.8-1.24,1.19l-1-.14.3-.47a8.57,8.57,0,0,1-.59-2.33l-.39-.12c0-.34-.87-.91-1.1-1.1l-.42.18-.11-.49-.42.17-.07.55a2.33,2.33,0,0,1-1-1.36l-.62.07-.68-.59-.36.54-.38.17-.18.35-.55.3-.27.82a13.24,13.24,0,0,0-1.75.57l-.23.48.51.67c0,.19.14,1.26.33,1.36l.53,0,.22.25-.21.73-.44,0-.26-.62-.32.72-.69.16-.37-.11-.17.35.24.41-.14.38-.43-.08-.44-.79-.53.08-.46.73v.65l-.75,0-.22.78a2.82,2.82,0,0,0-1.79-.5l-.44.31c-.28-.11-.52-.88-.62-1.12l-.43,0-.2-.53-.5.15-1.62-.47-.39-.5-.57.43a2,2,0,0,1-1.17-.67l0-.5-.48-.49-.08-.4-.36,0-.26.39-.42-.16a1.29,1.29,0,0,0-1.29-.73l-.26.25.13.44-.32.4c-.51.07-.8.6-1.29.63l-.28.44-.39-.23c-.34.1-.94-.27-1.2-.44l-.47-1.1a2.75,2.75,0,0,1-1.16-.31l-.35-.5-1.26-.56-.32.13-.13.54-.34.1a4.27,4.27,0,0,1-.58-2,5.16,5.16,0,0,0,.69-1.34c-.05-.25-.6-.68-.79-.83h-.54l-.43-.74-.7-.34-.34.15-.73-.71-.5-.1a1.22,1.22,0,0,0-1.24-.58c-.95-.35-1.85-1.51-2.91-1.47l.11.65c-.66,0-1.58-.23-1.55-1.05l-.57-.57a3.47,3.47,0,0,1,.3-2.65l.65-.16c.29-.29.92-1,1-1.39l-.19-.72c.21,0,.81.16,1,0a4.37,4.37,0,0,0,1.58.92l.42-.19a1.67,1.67,0,0,0,.87.57l.39.54.33.07.46-.36a1.93,1.93,0,0,0,1.14-.06c.14-.23.52-1,.81-1.1l.59,0,0-.29.5-.52-.55-.11-.58-.65.26-.35-.6-.47a2,2,0,0,1-1.08-.29c-.09-.5-.83-1.11-1.23-1.37a3.73,3.73,0,0,1-.35-1.79c-.19-.12-.75-.55-1-.5a3.32,3.32,0,0,0-1.07-.94,4.7,4.7,0,0,1,1-.93l.14-.32-.14-.42-1-.54a3.45,3.45,0,0,0-1.11-1.14l.49-.56c.43,0,1-.51,1.27-.81l-.19-.25.17-1-.3-.14a1.47,1.47,0,0,1-.32-.92l.32-.05.25-.43-.06-.58.51-.4,0-.36a2.2,2.2,0,0,0,1,.17l.53.39.44-.4.65,0,.2.45,1-.36.44.19,1.11-.24.31-.39-.12-.41a4.06,4.06,0,0,0,.54-1.59c-.23-.08-.84-.34-1.08-.22l-.57-.77a1.73,1.73,0,0,1,.22-1l.88.26,1.08-.74a2.86,2.86,0,0,1,.69-1.07h1l.43-.51-.06-.92a3.28,3.28,0,0,1,.75-.94l.14-.82.26,0,.32.48.47.15a4,4,0,0,0,1.48-.63l.32.51c.67,0,1.2-.53,1.78-.76l.32-.8-.13-.23c.67-.43,1.91-.27,2.6-.69a2.08,2.08,0,0,1,1.56-.68,7.92,7.92,0,0,1,1.73-.42,24.65,24.65,0,0,0,3.53,9.19,16.88,16.88,0,0,0,3.45,5.11A6.57,6.57,0,0,0,207.81,177.88Z"/></svg>