<svg id="Layer_1" data-name="Layer 1" xmlns="http://www.w3.org/2000/svg" viewBox="0 0 48.27 49.57"><defs><style>.cls-1{stroke:#fff;stroke-miterlimit:10;stroke-width:1.5px;}</style></defs><title>basilicata</title><path class="cls-1" d="M285.59,255.35c-.83,1.92-2.47,4-3.16,6a8.29,8.29,0,0,1-1.19,2.88,5.15,5.15,0,0,1-1.69,2.12l-.49-.39a2.67,2.67,0,0,1-1.19-.08l-.41.28-.32-.13-.92.49-.37-.39-.68.17a2.26,2.26,0,0,0-1.26-.32,1.44,1.44,0,0,1-.92.27l-.32.3a4,4,0,0,1,.22,1.55,2.56,2.56,0,0,0-.37,2.4c-.17.87-1.15,1.58-1.09,2.54l-.33.2-.23.51a1.37,1.37,0,0,0,.66.62l-.1.71-.35,0-.91-1.07c-.31,0-1.07.09-1.34-.13l-.87.43-.53-.08-.12,1.24-1.66-.84-.6.71-.27-.19H264l-.58.42-.87,0a2.8,2.8,0,0,0-1.12-1.09l-.32-1.13a3,3,0,0,1,.75-1.09l-.1-.34-.66-.1-.06.27-.77.3L260,272l-1.2-.32-.85.77-.24-.48-.39-.07-.28.26-.52-.6-.88.19-.7,1.19-.44.24a2.9,2.9,0,0,0-.36,1.36l-.29.29c-.39-.21-.65-1.16-.75-1.54-.12-.14-1-1-1-1.21l-.55-.37a2.31,2.31,0,0,0-.52-1.28l-.56-.11.89-.48,0-.36-.42-.57.43-.21.81-1.31a4.51,4.51,0,0,0-.18-1.68l.4-.28-.1-.39.5-.31.11-.6.49,0,.66-.61.49-.05.17-.27-.3-.44.06-.29.44-.29-.17-.3.16-.6-.42-.58a4.67,4.67,0,0,0-1.42-.38l-.51-.54c.06-.23-.57-.91-.68-1.08a3,3,0,0,1,.13-1.29l-1.16-.76-.25.21c-.51-1.31-2.39-1.49-2.55-2.89a4.84,4.84,0,0,1-1.16-.68l-.11-.44.42-.39-.45-.49.26-.31a2.75,2.75,0,0,1-.39-1.65l-.37.11-.3-.57a2.51,2.51,0,0,1-1.78-.85,4.5,4.5,0,0,0,.5-1.18l.69-.34.32-.61-.42-.07-.07-.29h-.49a4.33,4.33,0,0,0-1.19-.7c-.28-.35-1-1.12-1.44-1.2a2.22,2.22,0,0,0-.1-1l.27-.66-.24-.41.12-.51-.57-.33v-.44a3,3,0,0,0-.94-.85l1.25-.26c0-.23-.16-.83,0-1l-.68-.12,0-.44.56-.14.3.36c.35-.31,1.36-.13,1.77-.07l.46.37.35-.32-.17-.56a13.14,13.14,0,0,1,1.69-.74,4.51,4.51,0,0,0,.41-1.51l.68-.87a2.87,2.87,0,0,0-.3-2.11l.12-.3a1.44,1.44,0,0,1-.18-2.16l.82-.44a1.33,1.33,0,0,0,.86-.06,4.64,4.64,0,0,0,3.12.23l.14-.32.64,0,.47.53a1.69,1.69,0,0,1,.86-.36l.17-.73.56-.3.25-.48.36.16,1-.46.39.53.19-.14.6.56a1.59,1.59,0,0,1,.94,0l.21.4.48.21a6,6,0,0,0,.7,1.53l.23-.2,1,.84V232l-.35.18.14,1a4.59,4.59,0,0,1-.8,1.12l-.9-.05.16.52a11.72,11.72,0,0,1,2.41,1.06,3.2,3.2,0,0,1,1.84,1.08l.35-.27.12-.48.7-.42,1.15.38a4.84,4.84,0,0,1,.92,2.38l.32.28c0,.73.89,1.11,1.12,1.73l1.13.67c.37.54,1.23,1.59,1.91,1.73l.62,1.1.4.19a4,4,0,0,0,2.31-2.26l.78.43,0,.23.53.58.15,0-.24-1,.62-.1.17.57.41-.09-.33-.47.2-.34a2.49,2.49,0,0,0,1.7.3l.6.35.29-.21a6.94,6.94,0,0,0,1.85,1.28l-.8.48.56.47.34,0c0,1-.9,2.59.13,3.39l-.42.31.15.4a4.16,4.16,0,0,0-.26,1.25l.56.55-.23.44.66.76-.48.88.49.5a4.71,4.71,0,0,0,1.67.16l.52.56v.53C284.3,254.49,284.92,255.35,285.59,255.35Z" transform="translate(-238.46 -227.03)"/></svg>