<svg id="Layer_1" data-name="Layer 1" xmlns="http://www.w3.org/2000/svg" viewBox="0 0 334.82 446.99"><defs><style>.cls-1{stroke:#fff;stroke-miterlimit:10;stroke-width:1.5px;}</style></defs><title>bolzano</title><path class="cls-1" d="M159.18,16.19l-1.15.44-.76,1h-.69l.14.78-.66.11-.54-.45-.62,0-.28.41-.58,0-.59-.43-.45.19-.07.29-1.26.43v-.55l-.31-.07-.29-.5h-.69a14,14,0,0,0-2-1.59,10.14,10.14,0,0,1-.11,2l-.52.57.11.55a23.32,23.32,0,0,1-1.39,2.32l-.27-.49a1.91,1.91,0,0,0-1,.23l-.1.37-.32.06-.58-.21c-.59.46-1.62.45-2.22.9l-.07-.49-.38-.43c-.15.14-.57.47-.56.71a4.73,4.73,0,0,1-1.24.33l-.73-.36a2.19,2.19,0,0,1-2.1.48l.27.73-.61.4.09.28a2.59,2.59,0,0,0-.26,1.47c-.13.26-.56,1.05-.49,1.35l-.25.23-.8.17-.16,1.07-.31.2c-.27-.4-1.37-.64-1.81-.74l.06.3-.38.17-.3.65a3.36,3.36,0,0,1-1.33.34,1.89,1.89,0,0,1-.54.86l-.09.44.41,1-.25.13-.79-.17-.06-.42a1.37,1.37,0,0,1-.66-.68l-.54.47.12.31-.28.55-.41-.1a5.23,5.23,0,0,1-2.26,1.54c-.23-.08-.72-.27-.83-.51a2.28,2.28,0,0,1,.45-.94l-.63-.19-.6-1,.51-.09a12.49,12.49,0,0,0,1.12-1.95L125,28l.62-1.48-.21-1.09.35-.56-.14-.52.22-.19-.3-1.37-.55-.5a2.19,2.19,0,0,1-1.54,1l-.47-.62-.58-.17-.16-1.14-.77.56-.14.36a5.1,5.1,0,0,1,.58,2.52l-.5-.33-.33.09a3,3,0,0,0-1.37-1.42l-.66.05-.22.44-.49.11-.15.51-.55.37-.51-.05-.31-.22-.53.53a7.12,7.12,0,0,0-1.61-.3c-.35-.44-.54-1.23-.89-1.67l-.52,0a5.73,5.73,0,0,1-1.65,1.24c-.49-.15-1.18.32-1.67.1l-.54-.82c-.45,0-1-.56-1.26-.9-.31,0-1.5-.34-1.78-.13l-.69-.67-.11-.77.23-.4.3-.08a3,3,0,0,1,.33-1.38,4,4,0,0,1,.19-1.35,6.71,6.71,0,0,0-1.12-1l-.93.19-.24-.19A7.72,7.72,0,0,1,104,15l.44-.69.33-.12.08-.34-.43-.56c.25-.21,1-.8,1.16-1.12a1.86,1.86,0,0,0-.48-1l.14-.29.5-.18a1.74,1.74,0,0,0,.28-1,4.38,4.38,0,0,1,.62-1.12l.48.44a3.94,3.94,0,0,0,1.37-.05v.4a2.39,2.39,0,0,0,1.22-.65c.57-.25,1.41-.24,1.9-.67l.09.21.66.32-.09.4a3.17,3.17,0,0,0,1.61.81l.2.34-.49.71L113,11l.11.37.66.13.88-.35.64.75.28.06.34-.29c.21.16.89.75,1.17.75s.75-.18.88-.39a4.08,4.08,0,0,1,2.07.3l.54-.17.2.23a7.85,7.85,0,0,0,.51-1.48l1.16-.66-.28-1.07A6.62,6.62,0,0,1,123,7.67L122.83,7l.38-.33.17-.55.64.14.77-.64-.15-.21.71-.76a4.87,4.87,0,0,0,1.38.06c.32-.41,1.35-.54,1.82-.58l.29-.24.37.22.61-.14a3.33,3.33,0,0,0,1.1,1A2.68,2.68,0,0,0,132,4.53l.3-.59.42-.1.35-.61.8.25.66.8c.86-.2,1.43-1,2.36-1.05l.22.38a3.09,3.09,0,0,0,2,.4l.41.78L140,5a2.43,2.43,0,0,0,.93-.87,1.91,1.91,0,0,0,2.08-.6,3.77,3.77,0,0,0,1.45-.9l1.39-.3.31-.35c.3,0,1.07.19,1.34,0l.12-.29a1.44,1.44,0,0,1,.92-.07l.6-.61.75.07a1.66,1.66,0,0,1,1-.26l.68-.39,1,.36.38.57-.63.35a2.11,2.11,0,0,1-.32,1.17A2.81,2.81,0,0,1,150.6,3l-.72.67.4.91-.14.72.17.28.53.24.25.49-.35.66.1.43.83.13a3.8,3.8,0,0,0,.64,1.23l.45-.23.11-.31.79.05.24.56.43.3-.07.31.44.88-.63.72.26.48-.32.42.08.32a3.89,3.89,0,0,1,1.78.24,15.93,15.93,0,0,1,.69,2.12c.66.57,1.56,1.5,2.51,1.35Z"/></svg>