<svg id="Layer_1" data-name="Layer 1" xmlns="http://www.w3.org/2000/svg" viewBox="0 0 334.82 446.99"><defs><style>.cls-1{stroke:#fff;stroke-miterlimit:10;stroke-width:1.5px;}</style></defs><title>calabria</title><path class="cls-1" d="M279.55,266.36a11.87,11.87,0,0,0-1.05,1.53,7.84,7.84,0,0,1-.14,1.68c.51.72.24,2.06,1,2.66-.42,1.41-1.67,2.58-2.46,3.76-.83,1.5-2.07,3.4-1,5.09l.91.62c-.27,2.5.23,2.74,2.4,3.74,1.07.29,2.73-.08,3.83.17l.58-.33.69.28a6.2,6.2,0,0,0,1.18,1,4,4,0,0,0,2.6,2.33,7,7,0,0,0,3.68,1.42,4.51,4.51,0,0,0,2.83,2.85c.3,0,.94.17,1.13.44a2.67,2.67,0,0,0-.55,1.39c-.24.74-.76,1.92-.5,2.7-.45,1.19.39,2.38,1.24,3.14-.3,1.31-1.2,2.8-.95,4.2l.26.39.51.16-.12.31c.06,1,1.16,1.57,2,1.77-.56.68-1.46,1.95-.64,2.74a23.7,23.7,0,0,1-2.18,2.07c-.18-.31-1.09-.41-1.4-.46l-.51.19-.23.36c-.31-.07-.63-.64-.76-.89l-.6-.31a17,17,0,0,0-6.1,2c-1.4.81-3,2.39-4.49,3l-1.37,2.17.05.44c-.29.49-1.06,1.35-.88,2l.33.42.26.05c.27,1,0,2.36.51,3.3a13.56,13.56,0,0,1,.24,2.68,22.26,22.26,0,0,1,.43,3.19c-.32,1.57-2,3.17-3.09,4.28a41.85,41.85,0,0,1-4.25,2c-1,1.24-2.26,3.3-3.3,4.59-.33.69-1.24,1.39-1.52,2.09-.11,2.75-.69,5.84-2.65,7.92-.58.18-1.46.07-2,.44a7.27,7.27,0,0,1-2.36-.45,10.93,10.93,0,0,0-2.42.48,11.54,11.54,0,0,0-2.27.19l-.56-.34h-.41c-.58-.24-1-1-1.69-1.07a8.72,8.72,0,0,1-1.41-2.43l.61-.5.08-.32a1.55,1.55,0,0,1-.27-1.1l-.45-.28-.15-1,.51-.49a3.53,3.53,0,0,0,.17-1.48l-.45-.61a2,2,0,0,0-.27-1,6.06,6.06,0,0,1,.07-1.48c.25-.09,1.17-.32,1.27-.61l1-.31a2,2,0,0,0,1.08-.14,4.69,4.69,0,0,0,2.33-2.68,3.47,3.47,0,0,1,.06-1.2c.78-.73.89-1.85,1.3-2.76a7.59,7.59,0,0,0,1.08-3.13c.09-.32.43-1.35.26-1.67-.35-.19-1-.62-1.12-1.05-.74-.34-1.32-1.31-2-1.67a2.91,2.91,0,0,1,1.3-2c.28.07.77-.26,1-.42l1.25-.33c.41-.31.65-1,1.1-1.28a4.57,4.57,0,0,0,1.36-.23,20.63,20.63,0,0,1,2.19.55l.43-.27.27.08c.62-.27.93-1,1.57-1.27a11,11,0,0,0,.77-6.87,14.35,14.35,0,0,1-1.9-1.07l-.72-1.68a3,3,0,0,1-1.14-1.63A18.74,18.74,0,0,0,264,305c-.21-1.5-.46-4.78-.69-6.32-.33-.54-.36-1.94-.75-2.45-.5-1.41-.94-3.47-2.21-4.41a3.55,3.55,0,0,0-2.36-2.45,39.87,39.87,0,0,1-1.62-4.73l-.43-.36c-.3-1.64-.77-3.65-1.09-5.3l-.27-.18,0-1,.3-.18c.14-.88-.63-2-1.09-2.74l.28-.29a3,3,0,0,1,.37-1.36l.44-.24.7-1.19.88-.19.52.6.28-.26.39.07.24.48.85-.77,1.2.32.33.35.77-.3.06-.27.66.1.1.34a2.84,2.84,0,0,0-.75,1.09l.32,1.13a2.8,2.8,0,0,1,1.12,1.09l.87,0,.58-.42h.75l.27.19.6-.71,1.66.84.12-1.24.53.08.88-.43c.25.22,1,.15,1.33.13l.91,1.07.35,0,.1-.71a1.37,1.37,0,0,1-.66-.62l.23-.51.33-.2c-.07-1,.92-1.67,1.09-2.54a2.56,2.56,0,0,1,.37-2.4,4,4,0,0,0-.22-1.55l.32-.3a1.44,1.44,0,0,0,.92-.27,2.24,2.24,0,0,1,1.26.32l.68-.17.37.4.92-.5.32.13.41-.28a2.67,2.67,0,0,0,1.19.08Z"/></svg>