<svg id="Layer_1" data-name="Layer 1" xmlns="http://www.w3.org/2000/svg" viewBox="0 0 334.82 446.99"><defs><style>.cls-1{stroke:#fff;stroke-miterlimit:10;stroke-width:1.5px;}</style></defs><title>campania-01</title><path class="cls-1" d="M206.55,241.76l-.1-.38-1-.09-.39-.41a1.4,1.4,0,0,0-.87.24l.22,1.23-.19.24-1.05-.13c.74-3.4-1.28-6.68-3.55-9a15.71,15.71,0,0,0-4.69-7.51l.33-.78a2.75,2.75,0,0,1,1.24,0l.48-.33.17-.43-.36-.54.67-.47.91-.07.35-.76-.62-1,.1-.34a1.72,1.72,0,0,1-.12-1.16l.36-.38-.71-1.29.37-.32c1,.33,1.87-.85,2.49-1.48a3.56,3.56,0,0,1,1.25.42V218l.37.06.71,1.17a3,3,0,0,1,1.33-.25l.22.33.5,0-.3-.49.11-.51-.84-1.16a22.56,22.56,0,0,1,1.32-2.34l.76.94.4.12,0-.58,1.07-.23a2.64,2.64,0,0,0,1,.12l.23.46.81-.06a14,14,0,0,0,1.44,1.23c.31-.18,1.82.5,2.12.59l.33-.16.44.46.8,0a3.23,3.23,0,0,1,1,1.42l.63.33.34-.14.85.22.42-.5.58.44,0,.36.51.26c.21-.17.85-.61.87-.92l.55-.4.22.17.29-.52.81-.18.51.37a4.53,4.53,0,0,0,1.34-.66l.17-.89.54-.48c.55.13,1,.77,1.54,1l.7-.06.47-.66a6.78,6.78,0,0,1,1.78-.47,2.66,2.66,0,0,1,1-.52l.23-.43.49-.25.47.34.26.93c.3.4,1,.4,1.26.74l.67-.05.15.48-.34.13-.14.54.36.52c-.38,0-.9.48-1.13.73,0,.58.4.91.42,1.53.32,0,1,.17,1.18.47l.51.07-.09.55.28.18v.43l.4.16.95-.17,1,.41.13.38.41-.28.35,0c.18.19,1,.85,1,1.15l-1,.2a2.25,2.25,0,0,0,.48,1.29l-.12.2a3.11,3.11,0,0,0-1.34,1.17l0,.74c1,.19,1.47,1.7,2.38,2.06l.65-.41c.24.12.8.4,1.08.32l.47.37a2.6,2.6,0,0,0,.81-.87,4.74,4.74,0,0,1,1.46,1.08l.94-.06a3.47,3.47,0,0,0,1.88.83,1.72,1.72,0,0,0,.6.93l-.12.3a2.87,2.87,0,0,1,.3,2.11l-.68.87a4.51,4.51,0,0,1-.41,1.51,11.88,11.88,0,0,0-1.69.74l.17.56-.35.32-.46-.37c-.42-.06-1.41-.24-1.77.08l-.3-.37-.56.14,0,.44.68.12c-.13.21,0,.81,0,1l-1.25.26a2.84,2.84,0,0,1,.94.85v.44l.57.34-.12.5.24.41-.27.66a2.22,2.22,0,0,1,.1,1c.48.08,1.16.85,1.44,1.21a3.86,3.86,0,0,1,1.19.69h.49l.07.29.42.07-.32.61-.69.34a4.5,4.5,0,0,1-.5,1.18,2.51,2.51,0,0,0,1.78.85l.3.58.37-.11a2.74,2.74,0,0,0,.39,1.64l-.26.31.45.49-.42.39.11.44A4.84,4.84,0,0,0,248,254c.16,1.4,2.05,1.59,2.55,2.9l.25-.22,1.16.76a3,3,0,0,0-.13,1.29c.12.17.73.84.68,1.08l.51.54a4.67,4.67,0,0,1,1.42.38l.42.58-.16.6.17.3-.44.29-.06.29.3.44-.17.27-.49.05-.66.61-.49,0-.11.6-.5.31.1.39-.4.28a4.51,4.51,0,0,1,.18,1.68l-.81,1.31-.44.21.43.57,0,.36-.89.48-.56-.49.15-.43c-1.42-.52-3.89-.6-4.3,1.24l-.7.19a13.62,13.62,0,0,0-1.18,1.7,3.2,3.2,0,0,0-1.82-.28c-.38-.05-1-.94-1.22-1.21a2.66,2.66,0,0,1-1.32.35l.41-.48a4.13,4.13,0,0,0-.7-1.81,5,5,0,0,1-1.64-1.47l-.86-.19c-.44-.51-1.16-1.65-1.83-1.88a2.68,2.68,0,0,0-1.5.54,1.29,1.29,0,0,0-.88-.3c-.48-.46-.8-1.36-1.37-1.76l-.65-.1-.29-.32a2,2,0,0,0-1-.05l-.49-.42-.08-.4a4.79,4.79,0,0,0,1.05-.84,2.39,2.39,0,0,0-.15-1.71l.17-.68.7-.18.26-.42.42-.07c.77-1.58-1-3.71-1.69-5.08-1-2.41-3-6.66-5.72-7.26a3.2,3.2,0,0,0-1.58,1.7l-.39.06-1.21-.59-.5.11-.34.47-.23,0-.65.59-1.1.21-.27.24-1-.74a1.2,1.2,0,0,0-.84.33h-.43a1.85,1.85,0,0,1-.95.36c-.45.76-2.09,1-2.72,1.63l-.12-.72.88-1.82.37.26a2.23,2.23,0,0,0,1-.41c.18-.69,1-1,1.12-1.71l1.23-.74a4.08,4.08,0,0,0-1-2.07l-1,.1c-.43-.07-1.19-1-1.47-1.29l-.09,0h0v0a6.23,6.23,0,0,0-2.53-2.27l-.35,0-.26.34-.78.19-.14.16v0l-.45.71,0,.26-.55.32Zm-8.3,1.92a2,2,0,0,0,1.52.4l.9.36.31,1.07a2.85,2.85,0,0,0-1.21.59,1.8,1.8,0,0,0-1.44,0l-.66-.52.29-.26-.08-.8.16-.15Zm11.36,7.54.18.19-.39.58-.24-.19a4.74,4.74,0,0,1-1.34.41v-.88l.39-.1.85.22Zm-7-7.44-.32.55-.22-.17.22-.48Z"/></svg>