<svg id="Layer_1" data-name="Layer 1" xmlns="http://www.w3.org/2000/svg" viewBox="0 0 334.82 446.99"><defs><style>.cls-1{stroke:#fff;stroke-miterlimit:10;stroke-width:1.5px;}</style></defs><title>friuli</title><path class="cls-1" d="M191.68,52.9c-.37-.58-1.4-1.21-1.74-1.8a2.87,2.87,0,0,1-1.36-.46l-.52.08-.38-.56-.42.12.14.37a1.52,1.52,0,0,0-.28,1.68l.72.27-.08.24-.49,0c-.32.2-1.29.89-1.7.78a2.3,2.3,0,0,1-2.12,1.1l-.58-.29-.43.15c-.82-.2-1.53-1.11-2.41-1.09l-.44-.45c-.2.23-1.33.28-1.61.32l-.4.31-.38,0c-.29.8-1.44,1.37-1.49,2.27a1.78,1.78,0,0,0-1.06-.74l.14-.31-.6-.51a5.08,5.08,0,0,0-.39-1.58l-.36-.2,0-.41-.39-.33.17-.6a2.55,2.55,0,0,1-.89-1.61l.19-.43a3.2,3.2,0,0,1-.53-1.08l-.27.15,0,.8-.61.19-.38-.29-.67.17-.55-.52.14-.64-1,.12v.24l-.49.29V49l-.46,0-.09-.36.16-.46L167,47.9a4.9,4.9,0,0,1-.87,1l-.35-.41a7.32,7.32,0,0,1-1.64,1.78l-.49-.5.1-.22-.44-.34-.14-.42h-.44l-.27-.34-.31.29.08.33-1-.15-.18-.4.18-.41a1.92,1.92,0,0,0-.59-.83l-.12-.51-.42-.32,0-.37-.46-1-.48,0a1.64,1.64,0,0,1-.78-.84h-.73c-.18-.22.05-1.61.07-1.88l-.61-1.79.62-1.29a9.85,9.85,0,0,0,1.49-1,2.36,2.36,0,0,0,.22-2.05c-.27-.15-1.06-.55-1.16-.87a2,2,0,0,0-.44-1.15l-.63.09,0-.59-.18-.25-.67.23-1-.64-.43-1,.22-.67.57-.44.11-1,.66-.46a1.22,1.22,0,0,0,.86,0,3.48,3.48,0,0,1,1.37-1.45l-.06-.44a5.5,5.5,0,0,1,.93-1.2l-.07-.47c.3-.84,1.48-1.33,2.07-1.95a1.85,1.85,0,0,1,.95.44l.39-.43,1.11.24a2.44,2.44,0,0,0-.86-1.2,4.74,4.74,0,0,0-.28-1.52,4.14,4.14,0,0,1,.66-1.37l.34.14.89-1.08.49-.05-.1-.63c.24-.44,1-.72,1.37-1.1l1,.19.2.33a1.77,1.77,0,0,0,.92.25l-.1.64.35.18c.61-.12,1.55,0,2.16-.17l.54.3.2-.14.82.26a2.26,2.26,0,0,1,1.54.16l1-.25a5.84,5.84,0,0,0,2.25.49,1.32,1.32,0,0,0,1.31.71l.52.66.41-.28a4.62,4.62,0,0,1,1.78.28l.64-.65h.52l.22-.36,1,.32,0,.36a3.32,3.32,0,0,0,2.55-.19l.42.73.64-.25.52.08.17.47.58-.28c1,0,2.06,1,3,.94l.28.53-.35.23.08.67-.28.58.09.47-.38.72-1-.32-1.47.39-.35.38-.09.67c-.31.29-1.07,1.05-1.54,1v.24c-.3.09-1.07.31-1.23.6l-.59-.06-.29.33.28.69-.22.53h-.36l-.6.87-.72.07c.64.64.36,2,1.25,2.43l-.19.6.22.48.62-.25,0-.42c.22-.18,1.11,0,1.36,0l.19.25c.38,0,1.33.09,1.58.43l.09.63a2.16,2.16,0,0,1,1.32.13l.47-.25.82.4,0,.35-.27.35c.16.79-.9,1.48-1.39,1.9-.3.4-1,1.12-1.52,1.14l-.38.59-.88.35,0,.39.34.08a3.1,3.1,0,0,1-.41,1.22l-.48.32.68,1,.65.29.13.25a1.88,1.88,0,0,1,1-.07,1.57,1.57,0,0,1,.59-.83l.48.2.67-.2.16.36a4.29,4.29,0,0,0,0,1.71c-.47.53-.62,1.45-1.25,1.81l.08.5a2.28,2.28,0,0,0-.49,1.24,1.52,1.52,0,0,1,.6,1.35,2.73,2.73,0,0,0,2,.3c.52.6,1.54,1.13,2.07,1.69a3.15,3.15,0,0,1,1.44.57,1.84,1.84,0,0,0,.75,1l.23.6-.12.22a7.19,7.19,0,0,0,1.3,1.55,2.87,2.87,0,0,1,1.06.79,6.3,6.3,0,0,1-1.32.85l-.08.48-.38.46a5.06,5.06,0,0,1-1.73.09l-1.07-.57-.66.13-.09-.42a2.66,2.66,0,0,1,1.79.22l.48-.45-.64,0h0l0,0-.09,0-.07,0,.07,0-.4-.82L193,56l.67-.48c-.23-.62-.64-1.62-1.34-1.83A2.73,2.73,0,0,0,191.68,52.9Z"/></svg>