<svg id="Layer_1" data-name="Layer 1" xmlns="http://www.w3.org/2000/svg" viewBox="0 0 335.75 447.8"><defs><style>.cls-1{stroke:#fff;stroke-width:1.5px;}</style></defs><title>italy2</title><path class="cls-1" d="M58.71,35.78l-.28.6c.25.59.24,1.49.52,2-.72,1.67-3.72,3.26-4.51,5A8,8,0,0,1,55,45.75l-.4.74-.5.23-.34.72c0,.73.9,1.53,1,2.26a4.42,4.42,0,0,0,1.38.4l.19.54c-.09.21-.5.94-.42,1.17A2.35,2.35,0,0,1,57,52.2l-.3.24.46.85-.65.29-.07.33.6.23.14.53.29.17,0,.41-.32.39.29.35a3,3,0,0,0,.32,1.51l-.19.42.37.69.86.25a2,2,0,0,0,.79.74l-.08.64c.77.65.89,1.83,1.33,2.67a2.25,2.25,0,0,0-1.36.51L58.76,63l-.06.4c-.28.19-.91,0-1.2,0,.21.28.77,1,1.12,1.12l-.53.36-.05.31-.43-.05-.33,1.14a2.36,2.36,0,0,1-1.35.35l-.24-1.31-.62-.51L55,64.32a1.68,1.68,0,0,0-1.13-.13l-.22.17L52.91,64l-.67.45.27.89-.84.41-.29.58.46.25-.1.41.61-.06-.13.36.36,1-.18.42-.44.11,0,.3.82.59.57-.08-1,1,0,.34.23.48.73.33.2.66.58.5-.09.57.7.78a1.36,1.36,0,0,1,0,.87l.25.44-.36.53.47.26,0,.44a3.49,3.49,0,0,1,1.33-.06l.37-.38.2.52.77.16-.11.42.75.09.1-.6.38.17L59.1,77,59,76.57l.4,0,.32-.33c.36,0,1.71-.33,2-.07a4,4,0,0,1,0,1.65l.6,1,.65-.17c.29.07.62.61.76.85l-.27.9a4.23,4.23,0,0,1,1,1.6l.28.1.31.48.35.16.34-.15.35.9-.56.72.78,1.27.38-.15.36.53,1.25-.09.49.53-.1.93a2.35,2.35,0,0,0,1.11.79,2,2,0,0,1-.34,1.15l.12.74a2.46,2.46,0,0,0-.12,1.65l-.23.42c0,.39.06,1.54.09,1.91l-.17.24-.43,0-.88.63c-.25.09-.84-.21-1.06-.31L66.52,94l.08-.53-.76-.69-.61.08a3,3,0,0,1-.5-1l-.24-.16L64.21,91a2.61,2.61,0,0,1-1.11.08l-.34-.5-.86,0-.59,1-.7.27,0,.29.51.44c0,.41.08,1.77.38,2.08a1.62,1.62,0,0,1-1,.53l-.24-.4-1.32,0-.11.89-.5.13L58,96.3v.84l-.41.43-.43-.19.21-.48A7,7,0,0,0,56.08,94a2.08,2.08,0,0,0-1.08.15l-.39-.31a2.78,2.78,0,0,0-1.83.47l-.11.43.42.4-.2.34h-.3l-.17.37L52,96l0,.53-.45.23-.68-.44a4.74,4.74,0,0,1-1.55,0l-.18-.47-.51.47-.12.46-.63-.33-.18-.32-.41.15L47,97.36a2.82,2.82,0,0,0-1,.54l-.19-.78-.8-.18-.41-.57-.9-.21-.46-.86-.82.51A2.51,2.51,0,0,0,42.17,97l-.59.14-.07.5.38.36-.11.28.37.73a2.08,2.08,0,0,0-.55.92,4.39,4.39,0,0,1-1.52.7V101l-.26.26.16.51-.44.85-.75-.06a1.94,1.94,0,0,1-.2,1.21l-.83-.45-.33.4.08.49h.27l.39.58-.25.48-.49.3.45.46-.47.92.23.45.36.12.12,1.07a2.69,2.69,0,0,0-.81,1.14l-.67,0-.37-.46-.52-.09c-.24.15-.82.5-.89.8l.74.34.22.6-.32.3-.89-.46a1.5,1.5,0,0,1-1,.45l-.27-.42L32.2,111l-.09-.34c-.42-.33-1.3-.24-1.76-.48-.22-.13-1.13-.83-1.41-.76a3.22,3.22,0,0,0-1.13.71l-.14.62.5,1.07-.37.64-.37-.07,0-1a8,8,0,0,0-1.07-1.32l-.11-.51.36-.48-.15-.51.38-.53-1.09-.22-.34.15a1.89,1.89,0,0,1-.48.89l-1.43-.18-.47.23-.37-.1-.4.35-.65-.2-1.06.56-.86-.24-.1.62a1.44,1.44,0,0,1-.89-.49c-.21.08-.82.36-1,.26l-.27-1.11a6.81,6.81,0,0,1-1.55-.1l-.22.15-.8-.69-.09-.53-.68.08-.39-.68-.28-.08-.1-.47-.33,0-.33-.36-.63.23c-.23-.22-.83-.82-1.16-.84a1.31,1.31,0,0,0-.75-.55l-1,.27L9,104.69l-.62-.27a3.65,3.65,0,0,1-.17-1.68l-.36-.28-.3.06L7.2,102l.14-.53-.85-.87-.09-.72-.88-.42a3.64,3.64,0,0,0,.28-2.28l.88,0L7,96.91l.37,0L6.39,96l-.11-.62-.8-.61A6.55,6.55,0,0,1,5,93a2.06,2.06,0,0,0,.72-.91l1-.17,0-.37.6-.21,0-.68A4.38,4.38,0,0,0,8,89.59l.38-.14a1.58,1.58,0,0,1-.5-1.06,7.87,7.87,0,0,1,1.17-1.34,2,2,0,0,0,1.18,0l.84.5.38-.13-.22-1.17L10.6,86l-.42-.8a3.3,3.3,0,0,0,0-1.4l-.49-.54A5.35,5.35,0,0,0,10.4,82L10,81.85l0-.52A2.41,2.41,0,0,0,9,81l-1-.72L7.44,81c-.66-.14-1.85-.35-2.18-1a2.36,2.36,0,0,1-1-.88H4.08l-.33-.57-.57-.21.07-.63.25-.31-.33-.27.56-.74v-.48a1.93,1.93,0,0,1-.65-.89l.34-.07-.13-.78c-.27-.34-1.45-.25-1.82-.26l-.24-.49.16-.47a1.54,1.54,0,0,1-.15-1.08,5.48,5.48,0,0,1-.85-1.21l.2-.49c.29.11.85-.16,1.1-.29l.24-.6c.21.12.66,0,.87-.11l.74.36.84-.82A4.31,4.31,0,0,1,6.49,70a4.77,4.77,0,0,1,1.32-.44l-.32-.65.27-.42c.74.35,1.64-.26,2.06-.87l-.16-.31c.42-.16,1.46-.59,1.91-.39l.59-.32.4.62L13,67l0-.27.69-.73.46,0,.37-.42-.1-.72.13-.3a5.77,5.77,0,0,1-.59-1.8l.45,0,.39-.89.59-.28.16-.84c.11-.16.65-.74.62-1a1.58,1.58,0,0,1-.82-.64l-1-.5,0-.26L14.1,58l.11-.49.26-.22a5.08,5.08,0,0,1,.45-1.45l.31-.16a2.84,2.84,0,0,1,0,1.36l.45-.18,1.11.28.4.41.43-.14.5-.69.43-.14.22-.61a3.62,3.62,0,0,1,1.43.1c.17-.25.86-.3,1.13-.33l.29.34c.63-.36,1.33-1.16,2-1.37l0-.16.66-.65A2.3,2.3,0,0,1,26,54l.45-.42.47-.08a2.26,2.26,0,0,0,.87.55l.23.61.69-.25c.27,0,.92.63,1.1.78.2-.21.83-.2,1.09-.2l.42.35c.46-.48,1.46-.66,1.77-1.27l1.46-.53.35.22.92,0,0-.45.57-.8.54-.07.12-.3a5.78,5.78,0,0,1-.84-1.52l.21-.71.24,0,.48-.83-.22-.42L37,48.3a2,2,0,0,1-1.14-.75c.07-.32-.36-1-.52-1.22a2.09,2.09,0,0,0,0-1.11l.31-.2-.23-.54.38-.83-.19-.24a9,9,0,0,1,0-1.87l.37-.36-.21-.45a2.45,2.45,0,0,0,.32-1.31,2.59,2.59,0,0,0,.89-.91c.57.12,1.64-.09,2.14.15l.33-.56h.32l.06-.76.6-.48L40.19,36l.34-1.15c.57-.2,1.49-.19,2-.39l.22-.71.77-.2.31-.41-.1-.44.47-.86-.3-.38a5.41,5.41,0,0,0-.31-1.34l-.36-.15-.36-.77-.75-.39c.55-.38,1.07-1.24,1.59-1.57l.62.24,1-.18a3.09,3.09,0,0,0,.73-1.17c.15-.22.79-.33,1-.38l.09-.71a2.7,2.7,0,0,0,1.31-.42l.2-.36,0-.43L48,23.33c.12-.39,1-.72,1.36-.86a1.33,1.33,0,0,1,1.47-.66c.22-.25,1.09-.34,1.4-.38l.5.83-.24.3,0,.47.27.43a2.86,2.86,0,0,0-.09,1.78,2,2,0,0,0-.17,1.22l-.3.43-.27.06-.13.55-.35.23.69,1.38-.37.36.54.36.11.44c.54.11,1.13.59,1.67.68l.17.79a1.66,1.66,0,0,1,.8,1.3l.78.44-.24.45.4.41v.39h1l.27.42.55.12.29.33Z" transform="translate(0.44 0.44)"/><path class="cls-1" d="M35.64,41.54a9,9,0,0,0,0,1.87l.19.24-.38.83.23.54-.31.2a2.08,2.08,0,0,1,0,1.11c.16.26.59.89.52,1.22A2,2,0,0,0,37,48.3l-.06.28.22.42-.48.83-.24,0-.21.71a5.63,5.63,0,0,0,.84,1.52l-.12.3-.54.07-.57.8,0,.45-.92,0-.35-.22-1.46.53c-.31.61-1.31.79-1.77,1.27L30.89,55c-.26,0-.89,0-1.09.2-.19-.16-.83-.82-1.1-.78l-.69.25-.23-.61a2.26,2.26,0,0,1-.87-.55l-.47.08L26,54a2.31,2.31,0,0,0-1.65-.13l-.66.65,0,.16c-.7.21-1.4,1-2,1.37l-.29-.34c-.27,0-1,.08-1.13.33a3.62,3.62,0,0,0-1.43-.1l-.22.61-.43.14-.5.69-.43.14-.4-.41-1.11-.28-.45.18a2.84,2.84,0,0,0,0-1.36l-.31.16a5.08,5.08,0,0,0-.45,1.45l-.26.22a2.54,2.54,0,0,0-1.5-.31l-.07-.29.3-.53a1.54,1.54,0,0,0-.9-.17l-.55-.32.15-.61-.23-.34c.17-.55-.16-1.29.15-1.8l-.43-.52a3.51,3.51,0,0,0,.27-1.39l.29-.11.16-.45c-.26-.1-.87-.35-1-.62l-.85.25L9.61,50l.05-.27-.57-.67a3.11,3.11,0,0,1-1.21-.66l-.47-.52c0-.24-.21-.72-.45-.84l.26-.56-.3-.35a4.1,4.1,0,0,0,0-1.26l.33-.58a2.29,2.29,0,0,1,.28-1.5l.65-.18.59.37L9,42.55a4,4,0,0,0,1.76.1,1.56,1.56,0,0,1,1.45-.75l.44-.65,0-.51.42-.55L13.8,40l.47.52v.38c.3.34.91,1.13.87,1.63h.45a2.29,2.29,0,0,1,1-.69c.18.24.6.8.92.85a5,5,0,0,1,.77-1.1c.23,0,1-.18,1.16,0a2.87,2.87,0,0,0,.91-1.1,2.26,2.26,0,0,1,1,.45l.39-.16,1,.76c.5-.42,1.44-.59,1.75-1.21l.83-.13.12-.62.67-.27.94.27.23-.28-.07-.58.24-.31.74.05.13.54a2.76,2.76,0,0,0,2-.05l.27.16.28.59.59.2.19.24-.1.51.25.37.44.07.38-.51.56.05.83.81.51-.33Z" transform="translate(0.44 0.44)"/><path class="cls-1" d="M105.52,21l.11.77.69.67c.27-.21,1.47.09,1.78.13.25.34.81.89,1.26.9l.54.82c-.07.44-.15,1.37.19,1.74l-.64.87-1.08,0a2.15,2.15,0,0,0-.8.89l-.48-.06-.11.34,1.3.8,0,.51.38.56-.54.58.41.29.24,1.18-.5.48V33a2.51,2.51,0,0,0-.74,1.19,2.22,2.22,0,0,1,.61.84l-.45.78a3,3,0,0,1-1.64,3l-.27.63.11.78-.8.81-.13,1.21a1.55,1.55,0,0,0,.87.22l.08.33-.19.41.19.72.43.33V45l-.35.19-.12.67.29.44a3.92,3.92,0,0,1-.05,1.45l.15.37.56-.09.38.33-.36.85.17.39.69.08a3.47,3.47,0,0,1,2.3-.84l.19-1,.57.1.7-.38.25.2.66-.24.42.25.69-.24.38.39.91-.15.39.2a55.86,55.86,0,0,1-5.82,8.41,45.9,45.9,0,0,0,.43,7.45l.3-.45,1.27.38.17.49a3.05,3.05,0,0,1-.56,1.18l.38.31a1.23,1.23,0,0,1-.78.49l0,.44.44,0,.31.29,0,.4.46.31a1.69,1.69,0,0,1-.09.94l.24.16,1.26-1a5.14,5.14,0,0,1,1.66,2.3l.75.17.2.23h.48l.1.38.89.18-.18.57.43.49a2.1,2.1,0,0,1,1.17.39l.19.39-.12,1.37.43.07.5-.4c.14.22.45.7.4,1l-.42.42a2.64,2.64,0,0,0,1.73,1.08l0-.39.29-.11.58.24.32-.78,1.37.56-.33.48,0,.33.28.24-.35.31,0,.49a2.29,2.29,0,0,1,1.73.74l.51-.4.35.39-.2.39.32.63,1,.31c.3.76,2.32,1.58,3,1.89l.06.46a3.06,3.06,0,0,1-1.32-.32l-.58.29-.75-.43-.43.09-.32-.16a2.34,2.34,0,0,0-1,.69l-.55-.31-.14.21a2.78,2.78,0,0,0-1.07.23c-.23,0-1.3,0-1.46.17a2.89,2.89,0,0,0-2-1.13l-.38.5a8.47,8.47,0,0,0-1.78-.21l-.75.71-.45,0L117,83a4.61,4.61,0,0,0-1.77.14,13.86,13.86,0,0,0-3.58-1.31c.21-.34,0-1.07-.11-1.41l-.37-.23a1.77,1.77,0,0,0-.63,1l-.41-.83a1.29,1.29,0,0,1-.63.67l-.39.78a3.06,3.06,0,0,1-3.58,1.27,4.79,4.79,0,0,0-2.2-1.19c-.34-.31-.37-1.44-.82-1.66a2,2,0,0,0-1.12.67c-.57-.07-1-.72-1.51-.86l-.23-.5-.69.07c-.12-.57-1.23-1.18-1.68-1.44l-.47.22a3.19,3.19,0,0,1-1-.65c-.12.33-1.14.67-1.43.8l-.35-.08-.23-.33,0-.55-.69.17-.34-.84-.37-.16-.22-.4.23-.68a8,8,0,0,1-.93-1.36l-.39-.17c-.52.3-1.08,1.22-1.76,1.22l.34-1.2-.28-.28-.94.42-.07.59.56.67-.13.54-.39.23L88,75.6l-.48-.19-.27.1a1.14,1.14,0,0,0,0,.85l-.25.69-.29,0a1.49,1.49,0,0,0-.14-1l-.83-.4c-.09-.21-.32-.81-.55-.9l-.35.24.19.74a1.5,1.5,0,0,1-1.13,1L83,76.23,82.9,76a1.51,1.51,0,0,0-.91-.14l-.3-.43a3,3,0,0,0,.23-1.26l-.52-.35a1.78,1.78,0,0,1-.5,1.09l-.9-.15a2.2,2.2,0,0,0-.5-1l-.31.25c-.11.3.18.93.31,1.19l-.17.39L79,75.8l-.79-1a4.56,4.56,0,0,1-1.7.31l-.12.45-.61-.09c-.17.52-.9.85-1.2,1.31l.14.25-.21.68.16.16-.28.61-.51.23-.38.89.06.32A2.15,2.15,0,0,0,72.86,81l-.74.07A2,2,0,0,1,72,82.26l.16.5-.08.31.45.25.4-.12.13.28.4.12a14.91,14.91,0,0,0,.37,2.12l-.8.55h-.25l-.14.59-.83.41,0,.49,1.23,1-.28.51-.29.16-.14.44.42.62-.49,0L72,90.8l-.41-.21-.7.16a2.8,2.8,0,0,0-.56-1.38l-.11.56.21.52a1.49,1.49,0,0,1-1.1,0l.25-.63-.12-.74A2,2,0,0,0,69.81,88a2.35,2.35,0,0,1-1.11-.79l.1-.93-.49-.53-1.25.09-.36-.53-.38.15-.78-1.27.56-.72-.35-.9-.34.15-.35-.16L64.75,82l-.28-.1a4.23,4.23,0,0,0-1-1.6l.27-.9c-.14-.24-.47-.78-.76-.85l-.65.17-.6-1a3.83,3.83,0,0,0,0-1.65c-.3-.27-1.66,0-2,.07l-.32.33-.4,0,.09.39-.28.23L58.44,77l-.1.6-.75-.09.11-.42L56.93,77l-.2-.52-.37.38a3.49,3.49,0,0,0-1.33.06l0-.44-.47-.26.36-.54-.25-.44a1.33,1.33,0,0,0,0-.86l-.7-.78L54.1,73l-.58-.5-.2-.66-.73-.33L52.36,71l0-.34,1-1-.57.09L52,69.19l0-.3.44-.11.18-.42-.36-1,.13-.36-.61.06.1-.41-.46-.25.29-.58.84-.41-.27-.89.67-.45.75.33.22-.17a1.68,1.68,0,0,1,1.13.13l.06.45.62.51.24,1.31a2.36,2.36,0,0,0,1.35-.35l.33-1.14.43.05.05-.31.53-.36c-.35-.09-.91-.85-1.12-1.12.29.09.92.24,1.2,0l.06-.4.75.41a2.25,2.25,0,0,1,1.36-.51c-.44-.84-.56-2-1.33-2.67l.08-.64a1.94,1.94,0,0,1-.79-.74L58,58.61l-.37-.69.19-.42A3,3,0,0,1,57.47,56l-.29-.35.32-.39,0-.41-.29-.17L57,54.14l-.6-.23.07-.33.65-.29-.46-.85.3-.24a2.35,2.35,0,0,0-1.06-.39c-.08-.23.33-1,.42-1.17l-.19-.54a4.24,4.24,0,0,1-1.38-.4c-.11-.73-1-1.53-1-2.26l.34-.72.5-.23.4-.74a7.92,7.92,0,0,0-.58-2.36c.8-1.7,3.79-3.29,4.51-5-.28-.56-.27-1.46-.52-2a3.18,3.18,0,0,1,1.06-1.49l.35.73.69.4.85-.08a2.9,2.9,0,0,0,.94.87l0,.54-.29.49-.37,0-.1.53a2.83,2.83,0,0,0-1,1l.08.5.95.2.93,1.1.69.11a1.61,1.61,0,0,1-.06,1.08l.78,1-.08.42.25.4,0,.87-.55.68.09.37.83-.33.52.46.47-.21.27.15-.13.46a1.91,1.91,0,0,0,1,.11l.31-1,.25-.21.15-.78.67-.46v-1c-.21-.11-.84-.37-.9-.64l-.59-.09a2.37,2.37,0,0,1-.1-1.21l-.66-.51a2.72,2.72,0,0,0,1-.73l0-.91-.33-.43.23-.82.9-.48.64,0,.47-1-.42-1.15,1.33-.52.43-.71a1.5,1.5,0,0,0,.69-.63l.59,0,.29-.33a2.82,2.82,0,0,1,.24-1.06l.5-.29.1-.55.66-.06a3.21,3.21,0,0,1,1.13-2.43l-.07-.48.53-.64-.19-.46.19-.21-.08-.45-.37-.13-.11-.6.23-.44-.21-.35.15-.67-.79-.75,0-.59.68-.28a4.08,4.08,0,0,1,.33-1.59,5.69,5.69,0,0,1,2.21-.34,2.86,2.86,0,0,0,.6,1.34l.61.27.31-.36,0-.49.27-.32.4,0a3.12,3.12,0,0,1,.32,1.23l-.16.18a5.07,5.07,0,0,1-.16,1.6,2.44,2.44,0,0,1,.21,1.81l.77.37a18.21,18.21,0,0,0,1.06,2.18,3.55,3.55,0,0,1,1.2.63l.72,0,.22.28.43.06L84.57,29l.36.36.7.05a3,3,0,0,0,.29-1.8l.57-.41c.17.19.59.66.87.67.51-.41,1.45-.65,2-1.07l.51.1,1-.66.45.57.25-.31.52-.17.3.62.82.51-.43,1.07.34.34a2,2,0,0,0,.06,1.2,2.71,2.71,0,0,1,1.49.81l.12.57-.36.61.59.59.65-.42.75.21.61-.24c0-.29.59-.73.8-.91l0-.4a1.91,1.91,0,0,1-.42-1,3.43,3.43,0,0,0-1-.95l-.3-.73.11-.68.57-.35v-.64a2.1,2.1,0,0,1,1-.48l-.06-1L97.3,25l-.12-.34-.37-.15a2.57,2.57,0,0,1-1.32.36L95,24.63l-.13-.52-.43-.21.37-.65a2.92,2.92,0,0,1-.11-1.83l.17-.2,0-.59-.21-.19,1.1-1.13L95.71,19l.55-.27a1.89,1.89,0,0,1,0-1.05l.75.2,1.62-.73.54.33a2,2,0,0,1,.76-.64,1.78,1.78,0,0,0,.47.95l-.44.69,0,.53.27.27.4-.22a2.08,2.08,0,0,1,.68.76l0,.31.8,0,.29.33.71-.44.9.47.57-.26A2.61,2.61,0,0,0,105.52,21ZM65.41,41.33,65,41.19l.28-.74.26,0Z" transform="translate(0.44 0.44)"/><path class="cls-1" d="M165.9,18c-.2.1-.66.35-.72.58l.1.63-.49.05-.89,1.08-.34-.14a4.14,4.14,0,0,0-.66,1.37,4.69,4.69,0,0,1,.28,1.52,2.44,2.44,0,0,1,.86,1.2L162.93,24l-.39.43a1.82,1.82,0,0,0-.95-.44c-.59.62-1.77,1.11-2.07,1.95l.07.47a6.11,6.11,0,0,0-.93,1.2l.06.44a3.48,3.48,0,0,0-1.37,1.45,1.21,1.21,0,0,1-.86,0l-.66.46-.11,1-.57.44-.22.67.43,1,1,.64.67-.23.18.25,0,.59.63-.09a2,2,0,0,1,.44,1.15c.1.31.9.72,1.16.87a2.36,2.36,0,0,1-.22,2.05,9.37,9.37,0,0,1-1.49,1l-.62,1.29.61,1.79c0,.28-.25,1.65-.07,1.88h.73a1.58,1.58,0,0,0,.78.83l.48,0,.46,1,0,.37.42.32.12.51a1.92,1.92,0,0,1,.59.83l-.18.41.18.4,1,.15-.08-.33.31-.29.27.34h.44l.14.42.44.34-.1.22.49.5a7.32,7.32,0,0,0,1.64-1.78l.35.41a5.17,5.17,0,0,0,.87-1l.78.33-.16.46.09.36.46,0v-.35l.49-.29v-.24l1-.12-.14.64.55.52.67-.17.38.29.61-.19,0-.8.27-.15a3,3,0,0,0,.53,1.08l-.19.43a2.58,2.58,0,0,0,.89,1.61l-.17.6.39.33,0,.41.36.2a5.08,5.08,0,0,1,.39,1.58l.6.51-.14.31a1.78,1.78,0,0,1,1.06.74l-.09.29c-1.5.31-3.41.21-4.84.9l-.25-.07c-.54.83-2.11,1.51-2.94,2-1.61,1.43-4,2-5.8,3.15a11.42,11.42,0,0,0-1.68.74,4.59,4.59,0,0,0-2.58,1.6l-.73-.45c-1.22,1-1.78,2.78-2.21,4.18-.63,2-1,4.2.28,6a7.59,7.59,0,0,0,.15,2.85c1.22,1.2,2.46,2.83,4,3.73a3.3,3.3,0,0,1,1.71.74l.15.32a12,12,0,0,0-1.22,1.51c-.21.76-.9,2.43-1.22,3.17a2.64,2.64,0,0,1-1,.48l-.38.42.17.3-.68.82c-.61-.48-1.56-1.22-1.44-2.13l-.19-.24-.88-.14-.47-.57L153.47,84l.35-.54-.37-.63-.68,0a2.74,2.74,0,0,0-.85.74l-.37-.16-.47.06a1.65,1.65,0,0,1-.67-.64l-.3.43-.43.11a2.32,2.32,0,0,1-.7-1.15l-.66-.49-.75,0-.45-.3a8.29,8.29,0,0,1-2.3-.4l-1,.45c-1-.25-2.27.26-3.3-.13A2.56,2.56,0,0,1,139,82l-.2.31.12.5-.32.39a2.32,2.32,0,0,0-1.24.36c-.34-.12-1.46.87-1.72,1l-.89-.12-.14-.74a4.76,4.76,0,0,1-1.41-1,8,8,0,0,0-2.72.21l-.25-.11a4,4,0,0,0,0-1.14c-.68-.32-2.69-1.13-3-1.89l-1-.31-.32-.63.2-.39-.35-.39-.51.4a2.29,2.29,0,0,0-1.73-.74l0-.49.35-.31-.28-.24,0-.33.33-.48-1.37-.56-.32.78-.58-.24-.29.11,0,.39a2.64,2.64,0,0,1-1.73-1.08l.42-.42c0-.26-.26-.76-.4-1l-.5.4-.43-.07.12-1.37-.19-.4a2.27,2.27,0,0,0-1.17-.39l-.43-.48.18-.57-.89-.18-.1-.38h-.48l-.2-.23-.75-.17a5.14,5.14,0,0,0-1.66-2.3l-1.26,1-.24-.16a1.68,1.68,0,0,0,.09-.94l-.46-.31,0-.4-.31-.29-.44,0,0-.44a1.23,1.23,0,0,0,.78-.49l-.38-.31a3.05,3.05,0,0,0,.56-1.18l-.17-.49L110,63.4l-.3.45a44.73,44.73,0,0,1-.43-7.45A56.6,56.6,0,0,0,115.12,48l1.15.62L116,49.7l.31.4-.54.64-.09.67-.2.07-.32.89a2.89,2.89,0,0,1,2,.74l-.19.46.67.59.39-.42.45.18c.32-.22,1-.74,1.08-1.14L120,53l.37-.06.4-.44a3,3,0,0,0,1,.91l1.24,0V52.9l1-.9a5,5,0,0,0,0-2l.44.19.16-.32a1.82,1.82,0,0,1-.11-1,1.74,1.74,0,0,1,.77-.59v-.43l.57-.45c.07-.74.58-1.63.63-2.38l1.14,0,.23-.37a2.11,2.11,0,0,0,.88.74V44.9l.36-.17V44l.6,0-.2-1.17.16-.43a4.88,4.88,0,0,0,1.83.16l.58-.62.42-.11.21-.31a3.47,3.47,0,0,0,1.28-.16c.19.08.8.39,1,.28l.26,1.45h1.15l-.09.33,1.22-.12.47-.93-.61-1.1.19-.46-.17-.34a2.19,2.19,0,0,1,1.06-.29l-.06-.35-.47-.43-.09-.91h.57l.36-.48.91-.07.21.37.35-.29,1.11.06.17-.22,2-.48a1.89,1.89,0,0,1,.77-1.07l-.09-.23a1.14,1.14,0,0,0,.28-.78l.52.2,0-.42.35-.23v-.47l-.61,0c-.12-.18-.52-1-.78-1l.41-.7-.3-.35-.5,0-.22-.29V31.4a2.4,2.4,0,0,1-1.22.33l-.35-.58.29-.68-.12-.85-.77-.33v-.37l-.61-.34-.14-.26.48-.35.32.11a3.72,3.72,0,0,0,1.07-1.71l-.14-.21.34-.72.51,0,.51-.33,0-.86-.34-.32-1.61-.23.07-.85c.61-.77,1.83-.68,2.57-1.22l.58.21.32-.06.1-.37a1.91,1.91,0,0,1,1-.23l.27.49a24.52,24.52,0,0,0,1.39-2.32l-.11-.55.52-.57a10.1,10.1,0,0,0,.11-2,14,14,0,0,1,2,1.59h.69l.29.5.31.07V19l1.26-.43.07-.29.45-.19.59.43.58,0,.28-.41.62,0,.54.45.66-.11-.14-.78h.69l.76-1,1.15-.44.1.11c.3,0,1-.08,1.25.16a2.59,2.59,0,0,0,1.1.86l.23-.21A1.87,1.87,0,0,0,163,17l.56.33A1.85,1.85,0,0,1,165.9,18Z" transform="translate(0.44 0.44)"/><path class="cls-1" d="M191.68,52.9c-.37-.58-1.4-1.21-1.74-1.8a2.87,2.87,0,0,1-1.36-.46l-.52.08-.38-.56-.42.12.14.37a1.52,1.52,0,0,0-.28,1.68l.72.27-.08.24-.49,0c-.32.2-1.29.89-1.7.78a2.3,2.3,0,0,1-2.12,1.1l-.58-.29-.43.15c-.82-.2-1.53-1.11-2.41-1.09l-.44-.45c-.2.23-1.33.28-1.61.32l-.4.31-.38,0c-.29.8-1.44,1.37-1.49,2.27a1.78,1.78,0,0,0-1.06-.74l.14-.31-.6-.51a5.08,5.08,0,0,0-.39-1.58l-.36-.2,0-.41-.39-.33.17-.6a2.55,2.55,0,0,1-.89-1.61l.19-.43a3.2,3.2,0,0,1-.53-1.08l-.27.15,0,.8-.61.19-.38-.29-.67.17-.55-.52.14-.64-1,.12v.24l-.49.29V49l-.46,0-.09-.36.16-.46L167,47.9a4.9,4.9,0,0,1-.87,1l-.35-.41a7.32,7.32,0,0,1-1.64,1.78l-.49-.5.1-.22-.44-.34-.14-.42h-.44l-.27-.34-.31.29.08.33-1-.15-.18-.4.18-.41a1.92,1.92,0,0,0-.59-.83l-.12-.51-.42-.32,0-.37-.46-1-.48,0a1.64,1.64,0,0,1-.78-.84h-.73c-.18-.22.05-1.61.07-1.88l-.61-1.79.62-1.29a9.85,9.85,0,0,0,1.49-1,2.36,2.36,0,0,0,.22-2.05c-.27-.15-1.06-.55-1.16-.87a2,2,0,0,0-.44-1.15l-.63.09,0-.59-.18-.25-.67.23-1-.64-.43-1,.22-.67.57-.44.11-1,.66-.46a1.22,1.22,0,0,0,.86,0,3.48,3.48,0,0,1,1.37-1.45l-.06-.44a5.5,5.5,0,0,1,.93-1.2l-.07-.47c.3-.84,1.48-1.33,2.07-1.95a1.85,1.85,0,0,1,.95.44l.39-.43,1.11.24a2.44,2.44,0,0,0-.86-1.2,4.74,4.74,0,0,0-.28-1.52,4.14,4.14,0,0,1,.66-1.37l.34.14.89-1.08.49-.05-.1-.63c.24-.44,1-.72,1.37-1.1l1,.19.2.33a1.77,1.77,0,0,0,.92.25l-.1.64.35.18c.61-.12,1.55,0,2.16-.17l.54.3.2-.14.82.26a2.26,2.26,0,0,1,1.54.16l1-.25a5.84,5.84,0,0,0,2.25.49,1.32,1.32,0,0,0,1.31.71l.52.66.41-.28a4.62,4.62,0,0,1,1.78.28l.64-.65h.52l.22-.36,1,.32,0,.36a3.32,3.32,0,0,0,2.55-.19l.42.73.64-.25.52.08.17.47.58-.28c1,0,2.06,1,3,.94l.28.53-.35.23.08.67-.28.58.09.47-.38.72-1-.32-1.47.39-.35.38-.09.67c-.31.29-1.07,1.05-1.54,1v.24c-.3.09-1.07.31-1.23.6l-.59-.06-.29.33.28.69-.22.53h-.36l-.6.87-.72.07c.64.64.36,2,1.25,2.43l-.19.6.22.48.62-.25,0-.42c.22-.18,1.11,0,1.36,0l.19.25c.38,0,1.33.09,1.58.43l.09.63a2.16,2.16,0,0,1,1.32.13l.47-.25.82.4,0,.35-.27.35c.16.79-.9,1.48-1.39,1.9-.3.4-1,1.12-1.52,1.14l-.38.59-.88.35,0,.39.34.08a3.1,3.1,0,0,1-.41,1.22l-.48.32.68,1,.65.29.13.25a1.88,1.88,0,0,1,1-.07,1.57,1.57,0,0,1,.59-.83l.48.2.67-.2.16.36a4.29,4.29,0,0,0,0,1.71c-.47.53-.62,1.45-1.25,1.81l.08.5a2.28,2.28,0,0,0-.49,1.24,1.52,1.52,0,0,1,.6,1.35,2.73,2.73,0,0,0,2,.3c.52.6,1.54,1.13,2.07,1.69a3.15,3.15,0,0,1,1.44.57,1.84,1.84,0,0,0,.75,1l.23.6-.12.22a7.19,7.19,0,0,0,1.3,1.55,2.87,2.87,0,0,1,1.06.79,6.3,6.3,0,0,1-1.32.85l-.08.48-.38.46a5.06,5.06,0,0,1-1.73.09l-1.07-.57-.66.13-.09-.42a2.66,2.66,0,0,1,1.79.22l.48-.45-.64,0h0l0,0-.09,0-.07,0,.07,0-.4-.82L193,56l.67-.48c-.23-.62-.64-1.62-1.34-1.83A2.73,2.73,0,0,0,191.68,52.9Z" transform="translate(0.44 0.44)"/><path class="cls-1" d="M49.14,104.09l0,.19a2.4,2.4,0,0,0-1.31,1.12l.43.56a3.45,3.45,0,0,1-1,1.12,1.55,1.55,0,0,0-.05,1.36l-.65.41c-.86,0-2.15.86-3,1-.28.17-.81.57-.88.92a4.29,4.29,0,0,0-1.15,3.14A5.3,5.3,0,0,0,39.54,116v.58l.32.49-.89.34-.43.78a2.83,2.83,0,0,0-1.4.76v.31l-.4.3c-.48,0-1.21.07-1.45.57l-1.3.39-.11.29a2.87,2.87,0,0,1-1.23.23l-.39.26a2.45,2.45,0,0,0-2.19.68l-.67-.31a3.53,3.53,0,0,0-2,1l-.66-.26-1.13.9a15.18,15.18,0,0,0-2.83-.79l-.41.45-.71-.22c-.31-.76-.39-2.08-.79-2.81.13-1,1.21-1.3,2-1.6l0-.61.37-.71-.13-.32.62-.42c.44.17,1.43-.4,1.81-.59a1.82,1.82,0,0,1,.56-.92l-.16-1.13c.43-.21,1.39-.7,1.51-1.22l.37.07.37-.64-.5-1.07.14-.62a3.47,3.47,0,0,1,1.13-.71c.28-.07,1.19.63,1.41.76.46.24,1.34.15,1.76.48l.09.34,1.17-.15.27.42a1.5,1.5,0,0,0,1-.45l.89.46.32-.3-.22-.6-.74-.34c.06-.3.65-.65.89-.8l.52.09.37.46.67,0a2.61,2.61,0,0,1,.81-1.14L38,107.55l-.36-.12-.23-.45.47-.92-.45-.46.49-.3.25-.48-.39-.58h-.27l-.08-.49.33-.4.83.45a1.94,1.94,0,0,0,.2-1.21l.75.06.44-.85-.16-.51.26-.26v-.37a4.39,4.39,0,0,0,1.52-.7,2.08,2.08,0,0,1,.55-.92l-.37-.73.11-.28-.38-.36.07-.5.59-.14a2.51,2.51,0,0,1,.21-1.23l.82-.51.46.86.9.21.41.57.8.18.19.78a2.82,2.82,0,0,1,1-.54l.32-1.09.41-.15.18.32.63.33.12-.46.51-.47.18.47a4.73,4.73,0,0,0,1.55,0l.68.44.45-.23L52,96l.47-.15.17-.37h.3l.2-.34-.42-.4.11-.43a2.78,2.78,0,0,1,1.83-.47l.39.31A2.08,2.08,0,0,1,56.08,94a7,7,0,0,1,1.3,2.93l-.21.48.43.19.41-.43V96.3l.33-.47.5-.13.11-.89,1.32,0,.24.4a1.62,1.62,0,0,0,1-.53,5.73,5.73,0,0,1-.38-2.08l-.51-.44,0-.29.7-.27.59-1,.86,0,.34.5A2.61,2.61,0,0,0,64.21,91l.28.61.24.16a3,3,0,0,0,.5,1l.61-.08.76.69-.08.53.27.46c.22.11.81.4,1.06.31l.88-.63.43,0,.17-.24,0-.55,1.18-.19.28.38-.31.33.72.24.79-.43a8.8,8.8,0,0,0,1,1.17l.7-.2.41.32.25-.51.46-.27.42.21,0,.69c.42.5,1.38.24,1.82.68l-.09.51.43.62a7.2,7.2,0,0,0-.29,1.8l-.74.33a3.13,3.13,0,0,0-.38,1.19l-.37.16-.18.36.09.44.64-.27.34.59.44-.55a4.89,4.89,0,0,1,1.57-.1l.23-.37.5.19.57-.1,1,.92.52.11a8.31,8.31,0,0,1,.48,1.81,6,6,0,0,1,.85,0,3.82,3.82,0,0,1,.58,1.48,1.25,1.25,0,0,1,.78.41l.15.5a6.54,6.54,0,0,1,1.11.92l.25-.13,1,.63a2,2,0,0,1,.1,1.42l.49.41-.53,1.14.47,0,.64-.54.83.59-1,1,.15.17.61-.21.22.14,1.06-.09.34.34a2.19,2.19,0,0,0,.56,2.08l.45-.44.77.18.62.68-.11.45c-.32.3-1.24,1.12-1.35,1.57l-.49-.28-.43.19-.23.39-.36-.08c-.43-.59-1.49-1.08-1.67-1.81l-.56,0c-.36-.24-.59-.85-.86-1.14l-.49.13-.29.4c-.07.38.46,1.06.67,1.34l-.41.41a2,2,0,0,0-1-.61,8.39,8.39,0,0,1-1.11-1l-.47-.07-.33-.78c-.59-.31-1.22-1.09-1.83-1.33l-.41,0-.21.39-.69-.91,0-.39-1.1-.64,0-.33a1.8,1.8,0,0,0-1.09-.69l-.74-.6-.14-.48-.41-.24-.33.23-.79-.35-.17-.42-.42-.27-.39.16c-.08-1.28-1.69-2.1-2.63-2.7-.5-.37-1.46-.6-1.86-1.07l-.57.51a2.62,2.62,0,0,0,.07,1.39,9.51,9.51,0,0,0-1.7-.74l-.17-.34.2-.88-.38-.53c-1.16-.6-3.09-.88-4.26-1.38a2.82,2.82,0,0,1-1.41-.23l-.17-.69-.32.05.09.54-.79-.38c-.32.19-1.46-.28-1.77-.37l.27-.22,0-.12c-.46,0-1.7.17-2.06-.21a2.94,2.94,0,0,0-2.15,1.22l-1.06.18a2.43,2.43,0,0,1-1.83,1l-.19.34a4.15,4.15,0,0,0-1.2.62A1.42,1.42,0,0,0,49.14,104.09Zm37,12.15-.37-.52.54-.14Z" transform="translate(0.44 0.44)"/><path class="cls-1" d="M130.25,82.18l-.07.68.25.11a8,8,0,0,1,2.72-.21,4.89,4.89,0,0,0,1.41,1l.14.74.89.12c.27-.17,1.37-1.15,1.72-1a2.32,2.32,0,0,1,1.24-.36l.32-.39-.12-.5L139,82a2.59,2.59,0,0,0,1.58-.71c1,.39,2.28-.12,3.3.13l1-.45a8.29,8.29,0,0,0,2.3.4l.45.3.75,0,.66.49a2.32,2.32,0,0,0,.7,1.15l.43-.11.3-.43a1.65,1.65,0,0,0,.67.64l.47-.06.37.16a2.74,2.74,0,0,1,.85-.74l.68,0,.37.63-.35.53.11,1.58.47.57.88.14.19.24c-.12.9.83,1.65,1.44,2.13-.48,0-1.23-.72-1.54-1,0-.35-.58-.77-.84-1l-.66,0-.71,1,.36.59a7,7,0,0,0-.63,5.35,7.41,7.41,0,0,0,.66,1.59,10.06,10.06,0,0,1,.17,2.19,13.45,13.45,0,0,0,.89,6.15,17,17,0,0,0,.66,3.12,14,14,0,0,0,1.13,3.75,17,17,0,0,1,1.26,1.76c1.13,1.16,2.27,3,3.59,4l.4-.08c1.17,1.49,2.75,4.09,4.81,4.24l.14.26c-.36.67-1.13,1.76-.59,2.53l-.34.59.32.41-.29.34a3.71,3.71,0,0,0-1.14.31l0,1-.38.17-.64-.13-.59.22a1.85,1.85,0,0,1-.57-1.63l-.49-.8-.55.14-.07.41-.56.22-.32-.49.35-.47-.31-.37h-.29a1.45,1.45,0,0,0-.75-.67l.61-1a1.58,1.58,0,0,1,0-1.66l-.17-.25a5,5,0,0,0-2,1.32l-.92.21.3.86-.18.32a4,4,0,0,1,.32,1.85l-.55,0-.39-.36a2.45,2.45,0,0,0-1.08.57,3.79,3.79,0,0,1-.34,1.65l-.46.33-.09.38-.85.41c.18.23,0,.89-.05,1.14l-.75.16-.35.37-.44-.33-.52.09-.41,1a5,5,0,0,1-.84-1.18,3,3,0,0,1-1.13.49l-.41-.16-.88.48-.35-.11-.31-.53a2.9,2.9,0,0,1-1.28-.38l-.56.17-.91-.55-.17-.58-.78-.12-.24-.73-.36.19-1.12-.33-.4.3c-.39-.12-1.3-1.24-1.56-1.54a4.71,4.71,0,0,1-2-1.24l.2-1.64a2.13,2.13,0,0,1-.94-.65l.29-.57-.1-.23-1-.66-.21-.52.5-.6-.19-.46.71-.15c.47-.54.38-1.17.78-1.74.28-.25.87-.83.87-1.24l.24-.19.12-.66-.24-.17a4.13,4.13,0,0,1-1.82.12l-.11.34-.57.4a3.51,3.51,0,0,0-1.22-.66l-.68.26.1-.44.26,0a1.81,1.81,0,0,1,.58-.81l-.06-.45c-.51-.21-1.23-.07-1.73-.3l-.22.48a3.27,3.27,0,0,1-1.76-1.22l-.34-.09-.54-.54.11-.81-.67-.56h-.22a3.56,3.56,0,0,0-1.06,1.33l-1-.25-.5.41-.07.49-1.17,1-.25-.15a2.48,2.48,0,0,0-1.59.31l-.5,0v.3a5,5,0,0,0,1.76,1.09l.09.45-.44.25-.54-.2-.38.13c-.42-.27-1.14-.25-1.52-.55a4.29,4.29,0,0,0-1.82.65,2.51,2.51,0,0,1-2.5-.68l.08-.41.28-.14v-.45l-.52,0-.07.26-.71.58,0,.41c-.21.27-.73,1-1.12,1l-.25.47-.53-.14.12-.75-.65-.5h-.83l-.14-.45-.36-.29-.3.17c-.41-.58-1.4-.73-1.58-1.49-.37-.42-1.39-.1-1.82-.34l-.89.13-.55-.25-.23.52-.28.19v.8l-.85.17c-.3-.8-1.6-1.32-2-2l.1-.3a2.75,2.75,0,0,0-.88-.85l-.13-.31.23-.48-.75-.56-1,.12-.44-.34-.17-.53-1-.79a3.07,3.07,0,0,1-2-.68l-1.19.61a2.43,2.43,0,0,1-.65-1.1l-1.64-1.33-.17-.56-.5-.38a2,2,0,0,0-1.19.26,9,9,0,0,1-1.23-1.08,4.59,4.59,0,0,1-1.71-1.26l.52-1-.15-.45-.55-.09-.25-.29v-.46l-1.32-.35-.36.16-.24-.19c-.69.2-1.73-.2-2.32.31-.55,1.08-1.73,2.05-2.4,3.1l-.42-.16-.85.63-.32,0a7.73,7.73,0,0,0-.48-1.82l-.52-.11-1-.91-.57.09-.5-.19-.23.37a4.65,4.65,0,0,0-1.57.11l-.44.54-.34-.59-.64.27-.09-.44.18-.36.37-.16A3.13,3.13,0,0,1,76.38,99l.74-.33a7.28,7.28,0,0,1,.29-1.8L77,96.21l.09-.51c-.44-.44-1.4-.18-1.82-.67l0-.7-.42-.21-.46.27-.25.51-.41-.32-.7.2a7.64,7.64,0,0,1-1-1.17l-.79.43-.72-.24.31-.33-.28-.38-1.18.19-.05-1.36.23-.42-.13-1a1.49,1.49,0,0,0,1.1,0l-.21-.52.11-.56a2.83,2.83,0,0,1,.56,1.38l.7-.16.41.21.24-.27.49,0-.42-.62.14-.44.29-.16.28-.51-1.23-1,0-.49.83-.41.14-.59h.25l.8-.55a15.16,15.16,0,0,1-.37-2.12l-.4-.12L73,83.2l-.4.12-.45-.25.08-.31-.16-.5a2,2,0,0,0,.09-1.19l.74-.07a2.22,2.22,0,0,1,.67-1.07l-.06-.32.38-.89.51-.23.28-.61-.16-.16.21-.68-.14-.25c.3-.46,1-.79,1.2-1.31l.61.09.12-.45a4.37,4.37,0,0,0,1.7-.31l.79,1,.36-.23.17-.39c-.13-.27-.42-.89-.31-1.19l.31-.25a2.2,2.2,0,0,1,.5,1l.9.15a1.81,1.81,0,0,0,.5-1.09l.52.35a3,3,0,0,1-.23,1.26l.3.43a1.51,1.51,0,0,1,.91.14l.13.25.81.51a1.5,1.5,0,0,0,1.13-1L84.78,75l.35-.24c.23.09.46.69.55.9l.83.4a1.49,1.49,0,0,1,.14,1l.29,0,.25-.69a1.14,1.14,0,0,1,0-.85l.27-.1.48.19.5.71.39-.22.13-.54-.56-.68.07-.59.94-.42.28.28-.34,1.2c.68,0,1.24-.92,1.76-1.22l.39.17a8,8,0,0,0,.93,1.36l-.23.68.22.4.37.16.34.84.69-.17,0,.55.23.33.35.08c.3-.13,1.3-.46,1.43-.8a3.19,3.19,0,0,0,1,.65l.47-.22c.46.26,1.56.87,1.68,1.44l.69-.07.23.5c.56.14.94.79,1.51.86a2,2,0,0,1,1.12-.67c.45.22.48,1.35.82,1.66a4.79,4.79,0,0,1,2.2,1.19,3.08,3.08,0,0,0,3.58-1.27l.39-.78a1.29,1.29,0,0,0,.63-.67l.41.83a1.77,1.77,0,0,1,.63-1l.37.23c.12.34.32,1.07.11,1.41a13.86,13.86,0,0,1,3.58,1.31A4.61,4.61,0,0,1,117,83l.25-.43.46,0,.74-.71a8.39,8.39,0,0,1,1.78.21l.38-.5a2.89,2.89,0,0,1,2,1.13c.16-.22,1.23-.15,1.46-.17a2.78,2.78,0,0,1,1.07-.23l.14-.21.55.31a2.41,2.41,0,0,1,1-.69l.32.16.43-.09.75.43.58-.29A3.06,3.06,0,0,0,130.25,82.18Zm21.28,44.1-.18.27a3.33,3.33,0,0,0-1.33-.08l.44,1.18.4,0a1.56,1.56,0,0,1,1-.46l0-.52Z" transform="translate(0.44 0.44)"/><path class="cls-1" d="M120.38,178.76l.8-.1a4,4,0,0,0-.12-4.8l-.55,0-.14.36a3.53,3.53,0,0,1-.79-1.78l-.63-.73.13-.39a8.69,8.69,0,0,0-2-1.19,18.16,18.16,0,0,0-1.13-2.61,8.62,8.62,0,0,0-5.25-2.16l-1.42-1.11.64-.14a2.63,2.63,0,0,0,.44-2.38l.51-.7c-.86-2.31-4-2.9-6.2-2.61l-.62.75.07.39-.66-.05-.61-.54-.4-1.18.13-.39-.12-.46.32-.21.48.05.13-.36-.12-.39.3-.24a20.82,20.82,0,0,0,.35-8.5l-.63-2a6.73,6.73,0,0,1-1.24-1.49,1.56,1.56,0,0,0-.21-1c-.2-.67-.37-1.71-1.05-2.08a4.9,4.9,0,0,0-1.39-2.16l-.37-.06-.29-.35,0-.38a2.22,2.22,0,0,1-.32-1,3.27,3.27,0,0,1-.59-2.26l.16-.15c-.36-1.07-.22-2.79-.68-3.84l.3-.55a47.09,47.09,0,0,0-.46-4.69l-.46-1.6a2.52,2.52,0,0,0-.27-1.31A13.71,13.71,0,0,0,90.84,116c.1-.45,1-1.27,1.35-1.57l.11-.45-.62-.68-.77-.18-.45.44a2.19,2.19,0,0,1-.56-2.08l-.34-.34-1.06.09-.22-.14-.61.21-.15-.17,1-1-.83-.59-.64.54-.47,0,.53-1.14-.49-.41a2,2,0,0,0-.1-1.42l-1-.63-.25.13a6.1,6.1,0,0,0-1.11-.92l-.15-.5a1.25,1.25,0,0,0-.78-.41,3.82,3.82,0,0,0-.58-1.48h-.53l.85-.63.42.16c.67-1,1.85-2,2.4-3.1.59-.51,1.63-.11,2.32-.32l.24.19.36-.16,1.32.36v.46l.25.29.55.08.15.46-.52,1a4.59,4.59,0,0,0,1.71,1.26,9,9,0,0,0,1.23,1.08,2.05,2.05,0,0,1,1.19-.27l.5.39.17.56,1.64,1.33a2.52,2.52,0,0,0,.65,1.1l1.19-.61a3.05,3.05,0,0,0,2,.68l1,.79.17.53.44.34,1-.12.75.56-.23.48.13.31a2.75,2.75,0,0,1,.88.85l-.1.3c.37.73,1.67,1.25,2,2l.85-.17v-.8l.28-.19.23-.52.55.25.89-.13c.43.24,1.45-.08,1.82.34.18.76,1.17.91,1.58,1.48l.3-.16.36.29.14.45h.83l.65.5-.12.75.53.14.25-.47c.38,0,.91-.78,1.12-1l0-.41.71-.58.07-.26.52,0v.45l-.28.14-.08.41a2.5,2.5,0,0,0,2.49.68,4.33,4.33,0,0,1,1.83-.65c.38.3,1.1.28,1.52.55l.38-.13.54.2.44-.25-.09-.45a5.16,5.16,0,0,1-1.76-1.09v-.3l.5,0a2.49,2.49,0,0,1,1.59-.31l.25.15,1.17-1,.07-.49.5-.41,1,.25a3.64,3.64,0,0,1,1.06-1.33h.22l.67.56-.11.81.54.54.34.09a3.27,3.27,0,0,0,1.76,1.22l.22-.48c.49.23,1.22.09,1.73.3l.06.45a1.81,1.81,0,0,0-.58.81l-.26,0-.1.44.68-.26a3.51,3.51,0,0,1,1.22.66l.57-.4.11-.34a4.13,4.13,0,0,0,1.82-.12l.24.17-.12.66-.24.19c0,.41-.59,1-.87,1.24-.4.58-.3,1.2-.78,1.74l-.71.15.19.46-.5.6.21.52,1,.66.1.23-.29.57a2.11,2.11,0,0,0,.95.65l-.21,1.64a4.71,4.71,0,0,0,2,1.24c.27.3,1.17,1.42,1.56,1.54l.4-.3,1.12.33.36-.19.24.73.78.12.17.58.91.55.56-.17a2.94,2.94,0,0,0,1.28.38l.31.53.35.11.88-.47.41.15a3,3,0,0,0,1.13-.49,5.3,5.3,0,0,0,.84,1.18l.41-1,.52-.09.44.33.35-.37.75-.16a3.06,3.06,0,0,0,1.2.55c.06.35.89,1.14,1.13,1.39l-.31.5-.34-.31-.41.11.09,1-.49.13.14-.65-.41-.13-.25.46-.66.38-.29-.15a6,6,0,0,1-1.2,1.11l-.45,0-.48.35,0,.25.62.59.1.39-.49.44-.08.43-.86,1-.27,1.25-.31-.28a2.84,2.84,0,0,1-1.1.22l-.34.72.12.46c.46.09.89.72,1.37.77l-.1.41-1,.32-.12.48-.52.52-.68-.16-.16.3-.49.22-.24.34.21.59.54.08.5-.25.19.11-.12,1.22.56.15.21-.23c.42.12.79.84,1,1.2,0,.32,0,1.15-.27,1.39l.17.48c.25.12,1,.53,1.27.4a2.36,2.36,0,0,1,.45-1.15l.82.65c-.34.78-1.69.85-2.11,1.58l-.74,0a2.76,2.76,0,0,1-1,.72,2.76,2.76,0,0,0-1-.66l-.44.25.17.67a3.92,3.92,0,0,0-.36,1.44l-.6.42h-.52c-.45.5-1.34.73-1.79,1.24a4.11,4.11,0,0,0,.16,2.06l-.2.73.34.76h.34l.24-.5.44.18.26.58a1.62,1.62,0,0,0-.29,1,6.46,6.46,0,0,0-.61,2.84,3.9,3.9,0,0,0-.54,1.51l.53.3c.22.22.19.87.18,1.15l-.84.06-.5.75-.55.26.08.31a4,4,0,0,1-1.24-.17,2,2,0,0,1-1.05.6l-.09.61-.22.23c-.14-.2-.51-.71-.75-.78a2.87,2.87,0,0,0-.86,1.34l.37.14a2.56,2.56,0,0,1,.55.94c.31,0,.93.19,1.1.48-.33.4-.32,1.11-.63,1.51l-.44,0a3,3,0,0,1,.07,1.31l.45.11.22.34-.11.61-.68.35-.87-.12.05.46-.52.74-.62-.2a1.51,1.51,0,0,1-.9.6l.16.4-.32.24-.5,0-.39.41-.52-.1-.25.35-.43-.39-.62.13.14.9-.45.35-.21.62c.26.16.83.54.94.85l.59.29c.18.58-.1,1.41,0,2a10.86,10.86,0,0,1-2.09-.26l-.76.31-.78-.24-.22.23,0,.53-.94,1c0,.14.1.52,0,.64-1.14-.41-3.28-1.32-4.51-1.15l-.54-.55a2.32,2.32,0,0,0-1.82.52l.16.68-.58.27-.12.3a2.16,2.16,0,0,0-1,.39,1.86,1.86,0,0,0-1.51-1.26,2,2,0,0,1,.23-2.09l.48.51Zm-19.52-15.5a8.72,8.72,0,0,0,0,1.91l-.38.07-.55.58.26.53.6.36-.06.86a3.21,3.21,0,0,0-1.31-.09,14.68,14.68,0,0,0-1.07-2l-1.49.33-.08.58-.51,0-.17-.27-.55-.15-.3.12,0,.73a3.56,3.56,0,0,0-2.4-.25l-.8-.46a2.81,2.81,0,0,1-.48-1.74,2.3,2.3,0,0,1,2.15-.75l.21-.17.53.21.39.57.59.24.19-.45.62-.16.19-.53,1.15-.07,0,.6.61.33.51-.09.09-.72a1.83,1.83,0,0,0,.89-.95v-.28l.51-.78a5.06,5.06,0,0,0,1,1Zm12.37,17.07.51.26.55,1.1-.07.43.24.23-.07.49-.34.23a3.79,3.79,0,0,1-1-1.28l-.43-.08-.07-.33.49-.2ZM84.43,154l.34.2c0,.65-.81,1.1-1.1,1.61l-.25-.19a2.57,2.57,0,0,1,.77-2.5l.3.3Zm67.1-27.76.38.37,0,.52a1.58,1.58,0,0,0-1,.46l-.4,0-.44-1.18a3.33,3.33,0,0,1,1.33.08Zm-54.1,56.23-.41.3-.62-.14c-.16-.23-.05-.8,0-1l.58-.24.39.33Zm-6.35-10.6.18.67a2.42,2.42,0,0,1-1.36,0l-.18-.28L90,172l.35.1.58-.59Zm28.48,13.54-.45.7-.08-.63ZM86.8,139.13l.19.18-.24.56-.29-.12.09-.5Z" transform="translate(0.44 0.44)"/><path class="cls-1" d="M178.31,167.79a2.66,2.66,0,0,1-.44,1.79l.19.37c0,.38-.76,1-1,1.2l-.39-.5a5.39,5.39,0,0,1-2,1.41l-.62-.18-.16-.38-.44.21v.39l-.3.25c-.34,0-1.58-.24-1.88,0l-.17.45-1-.5-.45.28c0,.51.52,1.22.34,1.76a3.21,3.21,0,0,0-2,1l-1.41.23v.71a3.94,3.94,0,0,0-1.76.46c0,.34.63.95.85,1.17l-.47.39-.62,0a1.89,1.89,0,0,1-1,.76l-.44-.24-.4-.84-.42,0c0,.65-.37,1.42-.18,2.08l-1.28,1.21-.6,0-.5.66-.34-.09a3.82,3.82,0,0,1-.22-1.39l-.55.23-.29-.26-.43.32h-.36l.38-.91-.81-.27-.44.18-.31-.94.19-.48-.15-.75.44-.34-.69-.5-.37.06-.46.66-.65.28-.18-.44-.56-.39-.24.26-.74-.87-.3.16-.35-1.16.34-.19-.09-.71h-.37l-.65-.47-.08-.43.29-.64-.47-.4.4-.68-.49-.3,0-.3-.83-.79-.23.06a1.42,1.42,0,0,0-.79-.57l-.57.79-.23-.21-.37.45-.36-.58-.34.35-.59,0a1.37,1.37,0,0,1-1.88-.24,5.15,5.15,0,0,0-1.83-.83l.21-.48-.63-.34a2,2,0,0,1,1.21-1.14l.31-1.15a4.32,4.32,0,0,0-1.35-.55c-.43-.57-.35-1.72-1-2.18l-.08-.31.55-.26.5-.75.84-.06c0-.28,0-.93-.18-1.15l-.53-.3c.08-.31.27-1.3.54-1.51a6.43,6.43,0,0,1,.61-2.84,1.6,1.6,0,0,1,.29-1l-.26-.58-.45-.18-.24.5h-.33l-.34-.76.2-.73a4.11,4.11,0,0,1-.16-2.06c.45-.51,1.34-.74,1.79-1.24h.52l.6-.42a4,4,0,0,1,.36-1.44l-.17-.67.44-.25a2.68,2.68,0,0,1,1,.66,2.88,2.88,0,0,0,1-.72l.74,0c.42-.73,1.77-.8,2.11-1.58l-.82-.65a2.4,2.4,0,0,0-.45,1.15c-.29.13-1-.28-1.27-.4l-.17-.48c.25-.24.26-1.07.27-1.39-.16-.36-.53-1.07-1-1.2l-.21.23-.56-.15.12-1.22-.19-.11-.5.25-.54-.08-.21-.59.24-.34.49-.22.16-.3.68.16.52-.52.12-.48,1-.32.1-.41c-.48-.05-.91-.68-1.37-.77l-.12-.46.34-.72a2.81,2.81,0,0,0,1.1-.22l.31.28.27-1.25.86-1,.08-.43.49-.44c.08.16.23.49.32.65a2.6,2.6,0,0,0,1.74,0l.49.23.22-.51a4,4,0,0,1,1.61-.34l-.27.62.32.42a6.09,6.09,0,0,0-.81,1.19h-.68l-.2.39.55.76.47.07.47-.47.89.81.53-.83.43-.13.66.81h.3l.35-.38a1.83,1.83,0,0,1,1.2,1.22l1.11,1.4c.46.52,1.32.92,1.69,1.52l.32-.4.74-.22a5.42,5.42,0,0,0,1.28.45,2.37,2.37,0,0,1,.74-1.48l.88.15.25.36-.28.19v.75l.38.46-.15.47-.77.44a2.54,2.54,0,0,0,.35,1l.29.18.09.37a2.22,2.22,0,0,1,.73,2.29l-.29.24.47.53.52.17a5.68,5.68,0,0,0,.33,1.88l.39.29.33,0a2.56,2.56,0,0,1-.25,2.14l-.6.31,0,.27.32.7a1.61,1.61,0,0,1,1.08,0l.09.83.35.24a5.89,5.89,0,0,0-.15,1.76l.41.47-.51.89a3.66,3.66,0,0,0,.54,1.06l-.34.78a7.11,7.11,0,0,0,1.47.89l0,.44.77.17-.24,1a2.86,2.86,0,0,1,.22,1.19l.4-.05.34-.94a3.11,3.11,0,0,0,1.41-.94,3.93,3.93,0,0,0,1.67,1.18c.26.67,1,1.41,1.19,2.11l.17.1a2.85,2.85,0,0,0,2-.85l.47.17a6.35,6.35,0,0,0,.46,1.58,5.26,5.26,0,0,0-.53,1.38l-.8,0-.63.5.13.41ZM157.2,134.73l-.64-.41.26-.26.37.09Z" transform="translate(0.44 0.44)"/><path class="cls-1" d="M198.71,161.47a7.39,7.39,0,0,0-1.73.42,2.08,2.08,0,0,0-1.56.68c-.69.42-1.93.26-2.6.69l.13.23-.32.8c-.58.23-1.11.75-1.78.76l-.32-.51a4,4,0,0,1-1.48.63l-.47-.15-.32-.48-.26,0-.14.82a3.28,3.28,0,0,0-.75.94l.06.92-.43.51h-1a2.86,2.86,0,0,0-.69,1.07l-1.08.74a4.24,4.24,0,0,1-1.35-.56,2.44,2.44,0,0,0-1.26-1.07l-.24-.36-.66,0-.29.72a14.83,14.83,0,0,0-1.83-.46l.27-.55-.13-.41.63-.5.8,0a5.26,5.26,0,0,1,.53-1.38,6.35,6.35,0,0,1-.46-1.58l-.47-.17a2.85,2.85,0,0,1-2,.85l-.17-.1c-.24-.7-.93-1.44-1.19-2.11a3.93,3.93,0,0,1-1.67-1.18,3.11,3.11,0,0,1-1.41.94l-.34.94-.4.05a2.89,2.89,0,0,0-.22-1.19l.24-1-.77-.17,0-.44a7.11,7.11,0,0,1-1.47-.89l.34-.78a3.66,3.66,0,0,1-.54-1.06l.51-.89-.41-.47a5.89,5.89,0,0,1,.15-1.76l-.35-.24-.09-.83a1.67,1.67,0,0,0-1.08,0l-.32-.7,0-.27.6-.31a2.56,2.56,0,0,0,.25-2.14l-.33,0-.39-.29a5.68,5.68,0,0,1-.33-1.88l-.52-.17-.47-.53.29-.24a2.22,2.22,0,0,0-.73-2.29l-.09-.37-.29-.18a2.54,2.54,0,0,1-.35-1l.77-.44.15-.47-.38-.46v-.75l.28-.19-.25-.36-.88-.15a2.37,2.37,0,0,0-.74,1.48,5.42,5.42,0,0,1-1.28-.45l-.74.22-.32.4c-.37-.6-1.23-1-1.69-1.52l-1.11-1.4a1.83,1.83,0,0,0-1.2-1.22l-.35.38h-.3l-.66-.81-.43.13-.53.83-.89-.81-.47.47-.47-.07-.55-.76.2-.39h.68a6.09,6.09,0,0,1,.81-1.19l-.33-.42.28-.62a4,4,0,0,0-1.61.34l-.22.51-.49-.23a2.6,2.6,0,0,1-1.74,0,3.72,3.72,0,0,1-.42-1l-.62-.59,0-.25.48-.35.45,0a6,6,0,0,0,1.2-1.11l.29.15.66-.38.25-.46.41.13-.14.65.49-.13-.09-1,.41-.11.34.31.31-.5c-.24-.25-1.07-1-1.13-1.39a3.21,3.21,0,0,1-1.2-.55c.06-.25.23-.91.05-1.14l.85-.41.09-.38.46-.33a3.79,3.79,0,0,0,.34-1.65,2.45,2.45,0,0,1,1.08-.57l.39.36.54,0a2.12,2.12,0,0,0-.06-1l.72-.22.21.36,1,0,.19-.74a1.46,1.46,0,0,1,.74.67h.29l.31.37-.35.47.32.49.56-.22.07-.41.55-.14.49.8a1.85,1.85,0,0,0,.57,1.63l.59-.22.64.13.38-.17,0-1a3.79,3.79,0,0,1,1.14-.31l.29-.34-.32-.41.34-.59c-.54-.77.23-1.86.59-2.53l-.14-.26c1.38-.21,3.09,1.48,4.32,1.76a35.56,35.56,0,0,0,2.81,2.71c1.08.38,2.48,2.15,3.31,2.92a32,32,0,0,1,2.53,2.27c1.23,1,2.79,2.37,4.32,2.82a6.18,6.18,0,0,0,3,1.41l.91-.68c.43,0,1.18,1.07,1.42,1.35a1.25,1.25,0,0,0,.39.84,3.51,3.51,0,0,1,1.28.64c-.52,1.64.78,3.37,1.3,4.85a34.74,34.74,0,0,0,1.5,4.1c.66.62,1.06,2.42,1.54,3.17a54.53,54.53,0,0,0,1.92,5.28A27.86,27.86,0,0,0,198.71,161.47ZM157.2,134.73v-.58l-.37-.09-.26.26Z" transform="translate(0.44 0.44)"/><path class="cls-1" d="M207.81,177.88c.27.77,1.93,1.76,2.52,2.3a17.88,17.88,0,0,1,2.54,1.76c0,1.46,1.82,2.3,2.67,3.28l0,.43A17.12,17.12,0,0,0,221.7,189c.15.49,0,1.26.19,1.72l-.13.69a3.73,3.73,0,0,0,1.79,1.43,3.47,3.47,0,0,0-.49,1.09l.59.24a3.09,3.09,0,0,1-1.54,1.26l-1.71,2.42,0,1A3.72,3.72,0,0,1,219,199.9a3.68,3.68,0,0,0-.43,1.44,4.29,4.29,0,0,0-.84,1.33l-.49.06-.48,1c-.31.22-1.15.8-1.24,1.19l-1-.14.3-.47a8.57,8.57,0,0,1-.59-2.33l-.39-.12c0-.34-.87-.91-1.1-1.1l-.42.18-.11-.49-.42.17-.07.55a2.33,2.33,0,0,1-1-1.36l-.62.07-.68-.59-.36.54-.38.17-.18.35-.55.3-.27.82a13.24,13.24,0,0,0-1.75.57l-.23.48.51.67c0,.19.14,1.26.33,1.36l.53,0,.22.25-.21.73-.44,0-.26-.62-.32.72-.69.16-.37-.11-.17.35.24.41-.14.38-.43-.08-.44-.79-.53.08-.46.73v.65l-.75,0-.22.78a2.82,2.82,0,0,0-1.79-.5l-.44.31c-.28-.11-.52-.88-.62-1.12l-.43,0-.2-.53-.5.15-1.62-.47-.39-.5-.57.43a2,2,0,0,1-1.17-.67l0-.5-.48-.49-.08-.4-.36,0-.26.39-.42-.16a1.29,1.29,0,0,0-1.29-.73l-.26.25.13.44-.32.4c-.51.07-.8.6-1.29.63l-.28.44-.39-.23c-.34.1-.94-.27-1.2-.44l-.47-1.1a2.75,2.75,0,0,1-1.16-.31l-.35-.5-1.26-.56-.32.13-.13.54-.34.1a4.27,4.27,0,0,1-.58-2,5.16,5.16,0,0,0,.69-1.34c-.05-.25-.6-.68-.79-.83h-.54l-.43-.74-.7-.34-.34.15-.73-.71-.5-.1a1.22,1.22,0,0,0-1.24-.58c-.95-.35-1.85-1.51-2.91-1.47l.11.65c-.66,0-1.58-.23-1.55-1.05l-.57-.57a3.47,3.47,0,0,1,.3-2.65l.65-.16c.29-.29.92-1,1-1.39l-.19-.72c.21,0,.81.16,1,0a4.37,4.37,0,0,0,1.58.92l.42-.19a1.67,1.67,0,0,0,.87.57l.39.54.33.07.46-.36a1.93,1.93,0,0,0,1.14-.06c.14-.23.52-1,.81-1.1l.59,0,0-.29.5-.52-.55-.11-.58-.65.26-.35-.6-.47a2,2,0,0,1-1.08-.29c-.09-.5-.83-1.11-1.23-1.37a3.73,3.73,0,0,1-.35-1.79c-.19-.12-.75-.55-1-.5a3.32,3.32,0,0,0-1.07-.94,4.7,4.7,0,0,1,1-.93l.14-.32-.14-.42-1-.54a3.45,3.45,0,0,0-1.11-1.14l.49-.56c.43,0,1-.51,1.27-.81l-.19-.25.17-1-.3-.14a1.47,1.47,0,0,1-.32-.92l.32-.05.25-.43-.06-.58.51-.4,0-.36a2.2,2.2,0,0,0,1,.17l.53.39.44-.4.65,0,.2.45,1-.36.44.19,1.11-.24.31-.39-.12-.41a4.06,4.06,0,0,0,.54-1.59c-.23-.08-.84-.34-1.08-.22l-.57-.77a1.73,1.73,0,0,1,.22-1l.88.26,1.08-.74a2.86,2.86,0,0,1,.69-1.07h1l.43-.51-.06-.92a3.28,3.28,0,0,1,.75-.94l.14-.82.26,0,.32.48.47.15a4,4,0,0,0,1.48-.63l.32.51c.67,0,1.2-.53,1.78-.76l.32-.8-.13-.23c.67-.43,1.91-.27,2.6-.69a2.08,2.08,0,0,1,1.56-.68,7.92,7.92,0,0,1,1.73-.42,24.65,24.65,0,0,0,3.53,9.19,16.88,16.88,0,0,0,3.45,5.11A6.57,6.57,0,0,0,207.81,177.88Z" transform="translate(0.44 0.44)"/><path class="cls-1" d="M233.86,198.15a3,3,0,0,0,.07,1.82c-.23.11-.37.55-.42.77l-.56.51-.08.5.48.73,0,1-.39.3-.09.62.37.47-.19.49a2.3,2.3,0,0,0,1.18,1.12L234,207a1.15,1.15,0,0,0-.92,1h-.31a2.41,2.41,0,0,1-1.17.66l-.08.72-.56.12,0,.44-.5,0-.49-.25-.09-.34-.94-.2a1.81,1.81,0,0,1-.58.86c1,1,0,2.45.14,3.61l.23.23.62.1a7.81,7.81,0,0,0,1.21,1.23l-.49.25-.23.43a2.66,2.66,0,0,0-1,.52,6.78,6.78,0,0,0-1.78.47l-.47.66-.7.06c-.52-.19-1-.83-1.54-1l-.54.48-.17.89a4.53,4.53,0,0,1-1.34.66l-.51-.37-.81.18-.29.52-.22-.17-.55.4c0,.31-.66.75-.87.92l-.51-.26,0-.36-.58-.44-.42.5-.85-.22-.34.14-.63-.33a3.23,3.23,0,0,0-1-1.42l-.8,0-.44-.46-.33.16c-.31-.09-1.81-.77-2.12-.59a14,14,0,0,1-1.44-1.23l-.81.06-.23-.46a2.64,2.64,0,0,1-1-.12l-1.07.23,0,.58-.4-.12-.76-.94a21.57,21.57,0,0,0-1.32,2.34l.84,1.16-.11.51.3.49-.5,0-.22-.33a3,3,0,0,0-1.33.25l-.71-1.17-.37-.06V217l-.8-.36.42-.76-.58-.46.63-.74.54-.11.23-.43-.47-.47.42-.12.08-.72-.56-.21-.19-.5.35-.51,0-.57a3.79,3.79,0,0,1-.67-1.78,4.59,4.59,0,0,0-1.37-1.3l.44-.31a2.88,2.88,0,0,1,1.79.5l.22-.78.75,0v-.65l.46-.73.53-.08.44.79.43.08.14-.38-.24-.41.17-.35.37.11.69-.16.32-.72.26.62.44,0,.21-.73-.22-.25-.53,0c-.19-.1-.29-1.17-.33-1.36l-.51-.67.23-.48a13.24,13.24,0,0,1,1.75-.57l.27-.82.55-.3.18-.35.38-.17.36-.54.68.59.62-.07a2.38,2.38,0,0,0,1,1.37l.07-.56.42-.17.11.49.42-.18c.23.19,1.08.76,1.1,1.1l.39.12a8.23,8.23,0,0,0,.59,2.33l-.3.47,1,.14c.09-.39.94-1,1.24-1.19l.48-1,.49-.06a4.29,4.29,0,0,1,.84-1.33,3.63,3.63,0,0,1,.43-1.44,3.72,3.72,0,0,0,1.39-1.07l0-1,1.71-2.42a3.14,3.14,0,0,0,1.54-1.26l-.59-.24a3.37,3.37,0,0,1,.49-1.09,15.15,15.15,0,0,0,6.13,2.37l.31.52a4.74,4.74,0,0,1,1.68,1.39A5.12,5.12,0,0,0,233.86,198.15Z" transform="translate(0.44 0.44)"/><path class="cls-1" d="M151.39,206.06l-.52-.27.13-.3-.28-.7.14-.43c-.58-1.87-1.28-4.26-2.8-5.59-.35-.13-1.15-.45-1.33-.8-.6-.12-1.24-.95-1.51-1.45A2.71,2.71,0,0,0,144,196c-.18-.57-1.34-1.36-1.81-1.67a5.56,5.56,0,0,0-2,.33,3.47,3.47,0,0,1-1-1.92,3.55,3.55,0,0,1-1.09-1.57c-.37-.11-.8-1.18-1-1.48l.16-.51a10,10,0,0,1-1.22-2.5,3.49,3.49,0,0,1-.82-1.24,15.76,15.76,0,0,0-6-4.32,2.05,2.05,0,0,0,0-.65l.94-1,0-.53.22-.23.78.24.76-.31a10.86,10.86,0,0,0,2.09.26c-.1-.6.18-1.43,0-2l-.59-.29c-.1-.31-.68-.69-.94-.85l.21-.62.45-.35-.14-.9.62-.13.43.39.25-.35.52.1.39-.41.5,0,.32-.24-.16-.4a1.51,1.51,0,0,0,.9-.6l.62.2.52-.74-.05-.46.87.12.68-.35.11-.61-.22-.34-.45-.11a3,3,0,0,0-.07-1.31l.44,0c.31-.4.3-1.11.63-1.51-.17-.29-.8-.43-1.1-.47a2.52,2.52,0,0,0-.55-.95l-.37-.14a2.8,2.8,0,0,1,.86-1.34c.24.07.61.59.75.78l.22-.23.09-.61a2,2,0,0,0,1.05-.6,4,4,0,0,0,1.24.17c.64.46.56,1.61,1,2.18a4.32,4.32,0,0,1,1.35.55l-.31,1.15a2,2,0,0,0-1.21,1.14l.63.34-.21.48a5.15,5.15,0,0,1,1.83.83,1.37,1.37,0,0,0,1.88.24l.59,0,.34-.35.36.58.37-.45.23.21.57-.79a1.38,1.38,0,0,1,.79.57l.23-.06.83.79,0,.3.49.3-.4.68.47.4-.29.64.08.43.65.47h.37l.09.71-.34.19.35,1.16.3-.16.74.87.24-.26.56.39.18.44.65-.28.46-.66.37-.06.69.5-.44.34.15.75-.19.48.31.94.44-.18.81.27-.38.91h.36l.43-.32.29.26.55-.23a3.82,3.82,0,0,0,.22,1.39l.34.09.5-.66.6,0,1.28-1.21c-.19-.68.18-1.42.18-2.08h.42l.4.83.45.24a1.9,1.9,0,0,0,1-.76l.62,0,.47-.39c-.22-.23-.83-.83-.85-1.17a3.94,3.94,0,0,1,1.76-.46v-.71l1.41-.23a3.21,3.21,0,0,1,2-1c.18-.54-.38-1.25-.34-1.76l.45-.28,1,.5.17-.45c.3-.24,1.54,0,1.88,0l.3-.25v-.39l.44-.21.16.38.62.18a5.51,5.51,0,0,0,2-1.41l.39.5c.25-.22,1-.82,1-1.2l-.19-.37a2.66,2.66,0,0,0,.44-1.79,14.83,14.83,0,0,1,1.83.46l.29-.72.66,0,.24.36c.74.12,1.1,1.09,1.73,1.37a1.82,1.82,0,0,0-.22,1l.57.77c.24-.12.85.14,1.08.22a4.06,4.06,0,0,1-.54,1.59l.12.41-.31.39-1.11.24-.44-.19-1,.36-.2-.45-.65,0-.44.4-.53-.39a2.2,2.2,0,0,1-1-.17l0,.36-.51.4.06.58-.25.43-.32.05a1.47,1.47,0,0,0,.32.92l.3.14-.17,1,.19.25c-.27.3-.84.82-1.27.81l-.49.56a3.45,3.45,0,0,1,1.11,1.14l1,.54.14.42-.14.32a4.7,4.7,0,0,0-1,.93,3.22,3.22,0,0,1,1.07.94c.25-.05.81.38,1,.5a3.73,3.73,0,0,0,.35,1.79c.4.26,1.14.87,1.23,1.37a2,2,0,0,0,1.08.29l.6.47-.26.35.58.65.55.11-.5.52,0,.29-.59,0c-.29.07-.67.87-.81,1.1a1.93,1.93,0,0,1-1.14.06l-.46.36-.33-.07-.39-.54a1.67,1.67,0,0,1-.87-.57l-.42.19a4.29,4.29,0,0,1-1.58-.92c-.19.14-.79,0-1,0l.19.72a3.45,3.45,0,0,1-1,1.39l-.65.15a3.5,3.5,0,0,0-.3,2.66l.57.57c0,.82.89,1.07,1.55,1.05l-.11-.65c1.06,0,2,1.12,2.91,1.47a1.23,1.23,0,0,1,1.24.58l.5.1.73.71.34-.15.7.34.43.74h.54c.19.15.73.58.79.83a5.16,5.16,0,0,1-.69,1.34,4.24,4.24,0,0,0,.58,2l.34-.1.13-.54.32-.13,1.26.56.35.5a2.75,2.75,0,0,0,1.16.31l.47,1.1c.26.17.86.54,1.2.44l.39.23.28-.44c.49,0,.78-.56,1.29-.63l.32-.4-.13-.44.26-.25a1.29,1.29,0,0,1,1.29.74l.42.15.26-.39.36,0,.08.4.48.49,0,.5a2,2,0,0,0,1.17.67l.57-.43.39.5,1.62.47.5-.15.2.53.43,0a2.56,2.56,0,0,0,1.38,1.65l.61.77a3.79,3.79,0,0,0,.67,1.78l0,.57-.35.51.19.5.56.21-.08.72-.42.12.47.47-.23.43-.54.11-.63.74.58.46-.42.76-.45-.06c-.62.63-1.46,1.81-2.49,1.48l-.37.32.71,1.29-.36.38a1.72,1.72,0,0,0,.12,1.16l-.1.34.62,1-.35.76-.91.07-.67.47.36.54-.17.43-.48.33a2.75,2.75,0,0,0-1.24,0l-.33.78a11.32,11.32,0,0,0-1.62-1.2l-.74.38a2.47,2.47,0,0,0-1.71-.62c-.46.26-1.38.57-1.51,1.16l.21,1-.57-.28-.23.15-.82-.66a1.62,1.62,0,0,1-1-.51l-.42,0c-1.56-1.26-3.82-2.48-5.87-2.19l-.44.46a4.65,4.65,0,0,0-4.5,2.27,2.26,2.26,0,0,1-1.41-.09l-.34-.55c-.24-2.56-2.34-5-4.51-6.27a2.91,2.91,0,0,0-2-.39,1.87,1.87,0,0,0-1-.09l-.2.23c-1.11-.88-2.66-2.53-4.1-1.35C159.76,212.93,156.35,207.89,151.39,206.06Zm20.66,31.55-.24.94-.48-.15.19-.63Z" transform="translate(0.44 0.44)"/><path class="cls-1" d="M285.59,255.35c-.83,1.92-2.47,4-3.16,6a8.29,8.29,0,0,1-1.19,2.88,5.15,5.15,0,0,1-1.69,2.12l-.49-.39a2.67,2.67,0,0,1-1.19-.08l-.41.28-.32-.13-.92.49-.37-.39-.68.17a2.26,2.26,0,0,0-1.26-.32,1.44,1.44,0,0,1-.92.27l-.32.3a4,4,0,0,1,.22,1.55,2.56,2.56,0,0,0-.37,2.4c-.17.87-1.15,1.58-1.09,2.54l-.33.2-.23.51a1.37,1.37,0,0,0,.66.62l-.1.71-.35,0-.91-1.07c-.31,0-1.07.09-1.34-.13l-.87.43-.53-.08-.12,1.24-1.66-.84-.6.71-.27-.19H264l-.58.42-.87,0a2.8,2.8,0,0,0-1.12-1.09l-.32-1.13a3,3,0,0,1,.75-1.09l-.1-.34-.66-.1-.06.27-.77.3L260,272l-1.2-.32-.85.77-.24-.48-.39-.07-.28.26-.52-.6-.88.19-.7,1.19-.44.24a2.9,2.9,0,0,0-.36,1.36l-.29.29c-.39-.21-.65-1.16-.75-1.54-.12-.14-1-1-1-1.21l-.55-.37a2.31,2.31,0,0,0-.52-1.28l-.56-.11.89-.48,0-.36-.42-.57.43-.21.81-1.31a4.51,4.51,0,0,0-.18-1.68l.4-.28-.1-.39.5-.31.11-.6.49,0,.66-.61.49-.05.17-.27-.3-.44.06-.29.44-.29-.17-.3.16-.6-.42-.58a4.67,4.67,0,0,0-1.42-.38l-.51-.54c.06-.23-.57-.91-.68-1.08a3,3,0,0,1,.13-1.29l-1.16-.76-.25.21c-.51-1.31-2.39-1.49-2.55-2.89a4.84,4.84,0,0,1-1.16-.68l-.11-.44.42-.39-.45-.49.26-.31a2.75,2.75,0,0,1-.39-1.65l-.37.11-.3-.57a2.51,2.51,0,0,1-1.78-.85,4.5,4.5,0,0,0,.5-1.18l.69-.34.32-.61-.42-.07-.07-.29h-.49a4.33,4.33,0,0,0-1.19-.7c-.28-.35-1-1.12-1.44-1.2a2.22,2.22,0,0,0-.1-1l.27-.66-.24-.41.12-.51-.57-.33v-.44a3,3,0,0,0-.94-.85l1.25-.26c0-.23-.16-.83,0-1l-.68-.12,0-.44.56-.14.3.36c.35-.31,1.36-.13,1.77-.07l.46.37.35-.32-.17-.56a13.14,13.14,0,0,1,1.69-.74,4.51,4.51,0,0,0,.41-1.51l.68-.87a2.87,2.87,0,0,0-.3-2.11l.12-.3a1.44,1.44,0,0,1-.18-2.16l.82-.44a1.33,1.33,0,0,0,.86-.06,4.64,4.64,0,0,0,3.12.23l.14-.32.64,0,.47.53a1.69,1.69,0,0,1,.86-.36l.17-.73.56-.3.25-.48.36.16,1-.46.39.53.19-.14.6.56a1.59,1.59,0,0,1,.94,0l.21.4.48.21a6,6,0,0,0,.7,1.53l.23-.2,1,.84V232l-.35.18.14,1a4.59,4.59,0,0,1-.8,1.12l-.9-.05.16.52a11.72,11.72,0,0,1,2.41,1.06,3.2,3.2,0,0,1,1.84,1.08l.35-.27.12-.48.7-.42,1.15.38a4.84,4.84,0,0,1,.92,2.38l.32.28c0,.73.89,1.11,1.12,1.73l1.13.67c.37.54,1.23,1.59,1.91,1.73l.62,1.1.4.19a4,4,0,0,0,2.31-2.26l.78.43,0,.23.53.58.15,0-.24-1,.62-.1.17.57.41-.09-.33-.47.2-.34a2.49,2.49,0,0,0,1.7.3l.6.35.29-.21a6.94,6.94,0,0,0,1.85,1.28l-.8.48.56.47.34,0c0,1-.9,2.59.13,3.39l-.42.31.15.4a4.16,4.16,0,0,0-.26,1.25l.56.55-.23.44.66.76-.48.88.49.5a4.71,4.71,0,0,0,1.67.16l.52.56v.53C284.3,254.49,284.92,255.35,285.59,255.35Z" transform="translate(0.44 0.44)"/><path class="cls-1" d="M206.55,241.76l-.1-.38-1-.09-.39-.41a1.4,1.4,0,0,0-.87.24l.22,1.23-.19.24-1.05-.13c.74-3.4-1.28-6.68-3.55-9a15.71,15.71,0,0,0-4.69-7.51l.33-.78a2.75,2.75,0,0,1,1.24,0l.48-.33.17-.43-.36-.54.67-.47.91-.07.35-.76-.62-1,.1-.34a1.72,1.72,0,0,1-.12-1.16l.36-.38-.71-1.29.37-.32c1,.33,1.87-.85,2.49-1.48a3.56,3.56,0,0,1,1.25.42V218l.37.06.71,1.17a3,3,0,0,1,1.33-.25l.22.33.5,0-.3-.49.11-.51-.84-1.16a22.56,22.56,0,0,1,1.32-2.34l.76.94.4.12,0-.58,1.07-.23a2.64,2.64,0,0,0,1,.12l.23.46.81-.06a14,14,0,0,0,1.44,1.23c.31-.18,1.82.5,2.12.59l.33-.16.44.46.8,0a3.23,3.23,0,0,1,1,1.42l.63.33.34-.14.85.22.42-.5.58.44,0,.36.51.26c.21-.17.85-.61.87-.92l.55-.4.22.17.29-.52.81-.18.51.37a4.53,4.53,0,0,0,1.34-.66l.17-.89.54-.48c.55.13,1,.77,1.54,1l.7-.06.47-.66a6.78,6.78,0,0,1,1.78-.47,2.66,2.66,0,0,1,1-.52l.23-.43.49-.25.47.34.26.93c.3.4,1,.4,1.26.74l.67-.05.15.48-.34.13-.14.54.36.52c-.38,0-.9.48-1.13.73,0,.58.4.91.42,1.53.32,0,1,.17,1.18.47l.51.07-.09.55.28.18v.43l.4.16.95-.17,1,.41.13.38.41-.28.35,0c.18.19,1,.85,1,1.15l-1,.2a2.25,2.25,0,0,0,.48,1.29l-.12.2a3.11,3.11,0,0,0-1.34,1.17l0,.74c1,.19,1.47,1.7,2.38,2.06l.65-.41c.24.12.8.4,1.08.32l.47.37a2.6,2.6,0,0,0,.81-.87,4.74,4.74,0,0,1,1.46,1.08l.94-.06a3.47,3.47,0,0,0,1.88.83,1.72,1.72,0,0,0,.6.93l-.12.3a2.87,2.87,0,0,1,.3,2.11l-.68.87a4.51,4.51,0,0,1-.41,1.51,11.88,11.88,0,0,0-1.69.74l.17.56-.35.32-.46-.37c-.42-.06-1.41-.24-1.77.08l-.3-.37-.56.14,0,.44.68.12c-.13.21,0,.81,0,1l-1.25.26a2.84,2.84,0,0,1,.94.85v.44l.57.34-.12.5.24.41-.27.66a2.22,2.22,0,0,1,.1,1c.48.08,1.16.85,1.44,1.21a3.86,3.86,0,0,1,1.19.69h.49l.07.29.42.07-.32.61-.69.34a4.5,4.5,0,0,1-.5,1.18,2.51,2.51,0,0,0,1.78.85l.3.58.37-.11a2.74,2.74,0,0,0,.39,1.64l-.26.31.45.49-.42.39.11.44A4.84,4.84,0,0,0,248,254c.16,1.4,2.05,1.59,2.55,2.9l.25-.22,1.16.76a3,3,0,0,0-.13,1.29c.12.17.73.84.68,1.08l.51.54a4.67,4.67,0,0,1,1.42.38l.42.58-.16.6.17.3-.44.29-.06.29.3.44-.17.27-.49.05-.66.61-.49,0-.11.6-.5.31.1.39-.4.28a4.51,4.51,0,0,1,.18,1.68l-.81,1.31-.44.21.43.57,0,.36-.89.48-.56-.49.15-.43c-1.42-.52-3.89-.6-4.3,1.24l-.7.19a13.62,13.62,0,0,0-1.18,1.7,3.2,3.2,0,0,0-1.82-.28c-.38-.05-1-.94-1.22-1.21a2.66,2.66,0,0,1-1.32.35l.41-.48a4.13,4.13,0,0,0-.7-1.81,5,5,0,0,1-1.64-1.47l-.86-.19c-.44-.51-1.16-1.65-1.83-1.88a2.68,2.68,0,0,0-1.5.54,1.29,1.29,0,0,0-.88-.3c-.48-.46-.8-1.36-1.37-1.76l-.65-.1-.29-.32a2,2,0,0,0-1-.05l-.49-.42-.08-.4a4.79,4.79,0,0,0,1.05-.84,2.39,2.39,0,0,0-.15-1.71l.17-.68.7-.18.26-.42.42-.07c.77-1.58-1-3.71-1.69-5.08-1-2.41-3-6.66-5.72-7.26a3.2,3.2,0,0,0-1.58,1.7l-.39.06-1.21-.59-.5.11-.34.47-.23,0-.65.59-1.1.21-.27.24-1-.74a1.2,1.2,0,0,0-.84.33h-.43a1.85,1.85,0,0,1-.95.36c-.45.76-2.09,1-2.72,1.63l-.12-.72.88-1.82.37.26a2.23,2.23,0,0,0,1-.41c.18-.69,1-1,1.12-1.71l1.23-.74a4.08,4.08,0,0,0-1-2.07l-1,.1c-.43-.07-1.19-1-1.47-1.29l-.09,0h0v0a6.23,6.23,0,0,0-2.53-2.27l-.35,0-.26.34-.78.19-.14.16v0l-.45.71,0,.26-.55.32Zm-8.3,1.92a2,2,0,0,0,1.52.4l.9.36.31,1.07a2.85,2.85,0,0,0-1.21.59,1.8,1.8,0,0,0-1.44,0l-.66-.52.29-.26-.08-.8.16-.15Zm11.36,7.54.18.19-.39.58-.24-.19a4.74,4.74,0,0,1-1.34.41v-.88l.39-.1.85.22Zm-7-7.44-.32.55-.22-.17.22-.48Z" transform="translate(0.44 0.44)"/><path class="cls-1" d="M318,244.06l.49.46c-.05.45.69,1.17,1,1.46l-.24.87a1.89,1.89,0,0,0,1.22,1.3l.15.45c.6.33,1.24,1.12,1.84,1.43a2.45,2.45,0,0,1,1.39.64l.51.05a9.87,9.87,0,0,0,1.41,1.07,5.25,5.25,0,0,0,1.73,1.65l0,.34c.41.54,1.32,1,1.75,1.49s1.11,1.57,1.87,1.73l.27.36,0,.49.27.06a8,8,0,0,0,.82,1.79l-.16.4a2.12,2.12,0,0,0,.68,1.25c0,.31.36,1,.5,1.24l.28-.08.43.42-.28.43.44.63-1,1.23-.2,1.3a5.8,5.8,0,0,1-1.11.82l-.06.93-.42.28a16,16,0,0,0-.57,3.44l.3.63c0,.45-.36,2.44-.12,2.84l-.54.88-.23-.15-.44.28-.37-.15-.23-.43h-.35c-.18-.34-1.25-.82-1.58-1a6.26,6.26,0,0,1-1.73,0c-.79-.54-1.9-.81-2.55-1.64-.33-.2-1.54-.79-1.62-1.23a2.76,2.76,0,0,1-1.19-1.08l0-.34a5.33,5.33,0,0,1-1.09-1.4l.32,0,.32-.46V268l-.48-.76-.64-.25c1.23-.88.72-2.3-.05-3.3l-.7-.23-.16-.42c-.72-.43-1.58-1.31-1.15-2.21-.66-.74-1.22-2-2.12-2.52l-.48.22a4.85,4.85,0,0,0-2.83-.41c-2-.7-4.69.26-6.78.38l-.49-.57-1.09-.22-.2-.33c-.55-.3-1.38-.08-1.93-.35l-.14-.26c-.26-.1-1.1-.36-1.24-.62l-.42.05a3.16,3.16,0,0,1-1-.62h-.43l-.36-.42c-.28-.1-1.18-.34-1.34-.64l-.56,0,.14-.5.6-.13.72-.77-.29-.73-.81-.62-1.11,0-.61-.93c-3.37-1.58-6.82,1.84-8.42,4.55-.67,0-1.29-.86-1.72-1.28v-.53l-.52-.56a4.68,4.68,0,0,1-1.67-.16l-.49-.5.48-.88-.66-.76.23-.44-.56-.55a3.88,3.88,0,0,1,.26-1.25l-.15-.4.42-.31c-1-.8-.15-2.38-.13-3.39l-.34,0-.56-.47.8-.48a6.57,6.57,0,0,1-1.85-1.28l-.29.21-.6-.35a2.49,2.49,0,0,1-1.7-.3l-.2.34.33.47-.41.1-.17-.58-.62.11.24,1-.15,0-.53-.57,0-.24-.78-.43a4,4,0,0,1-2.31,2.26l-.4-.19-.62-1.1c-.68-.14-1.54-1.19-1.91-1.73l-1.13-.67c-.23-.62-1.12-1-1.12-1.72l-.32-.28a4.87,4.87,0,0,0-.92-2.39l-1.15-.38-.7.42-.12.48-.35.28a3.19,3.19,0,0,0-1.84-1.09,11.43,11.43,0,0,0-2.41-1.06l-.16-.52.9.05a4.59,4.59,0,0,0,.8-1.12l-.14-1,.35-.18v-.31l-1-.84-.23.2a6,6,0,0,1-.7-1.53l-.48-.21-.21-.4a1.55,1.55,0,0,0-.93,0l-.61-.56-.19.14L256,228l-1,.46-.36-.17-.25.48-.56.3-.17.73a1.62,1.62,0,0,0-.86.37l-.47-.54-.64,0-.14.32a4.64,4.64,0,0,1-3.12-.23,1.33,1.33,0,0,1-.86.06l-.82.44-.43.8v.43a3.47,3.47,0,0,1-1.88-.83l-.94.06a4.74,4.74,0,0,0-1.46-1.08,2.7,2.7,0,0,1-.81.87l-.47-.37a2,2,0,0,1-1.08-.33l-.65.42c-.91-.36-1.38-1.87-2.38-2.06l0-.74a3,3,0,0,1,1.34-1.17l.12-.2a2.25,2.25,0,0,1-.48-1.29l1-.2c0-.3-.79-1-1-1.15l-.35,0-.41.28-.13-.38-1-.41-.95.17-.4-.16v-.43l-.28-.18.09-.55-.51-.07c-.2-.3-.86-.43-1.18-.47,0-.62-.4-1-.42-1.53l.64-.61.49-.12-.36-.52.14-.53.34-.14-.15-.48-.67.05c-.31-.34-1-.34-1.26-.73l-.26-.94a7.16,7.16,0,0,1-1.68-1.57l-.62-.1-.23-.23c-.12-1.16.88-2.63-.14-3.61a1.81,1.81,0,0,0,.58-.86l.94.2.09.34.49.25.5,0,0-.44.56-.12.08-.72a2.41,2.41,0,0,0,1.17-.66H233a1.15,1.15,0,0,1,.92-1l.26-.52a2.3,2.3,0,0,1-1.18-1.12l.19-.49-.37-.47.09-.62.39-.3,0-1-.48-.73.08-.5.56-.51c.05-.22.19-.65.42-.77a2.91,2.91,0,0,1-.07-1.82c1.95.65,4.73-.52,6.43.74,2.28.27,5.17-.63,7.37-1.14.57-.1,1.27.45,1.82.45a36.4,36.4,0,0,0,9.22-1.68c.57.32,1.63,0,2.23.38a2.68,2.68,0,0,0,1.85,1.09l.27.69.42.2a2.65,2.65,0,0,0,.74,2.22l-.13.17a3.14,3.14,0,0,1-.16,1.94l-.49.21-.16.49-.45.2-.19.35-1,.46-.4.58-.46.17-.22.6c-1.35,1.15-3.29,1.88-4.54,3.14a6.55,6.55,0,0,0,2.44,6.57c1.14.67,3.26,1.63,4.49,2.16a7.14,7.14,0,0,0,2.11.94,11.83,11.83,0,0,0,1.76,1.19c.54.09,2.15.59,2.69.76a5.82,5.82,0,0,0,1.83.87c.59,1.07,2.92,1,3.61,1.87.32.11,1,.4,1.11.73l1.29.46a3.81,3.81,0,0,1,2,.57l2.44.61a1.72,1.72,0,0,0,1.78.72l.37.34.39,0c.74.55,2,.57,2.79,1.14a2.55,2.55,0,0,1,1.08.32,8.21,8.21,0,0,1,2.81.87c0,.12,1.38.85,1.45.91a2.74,2.74,0,0,1,1.73,1l.07.24a7.83,7.83,0,0,1,4.43,3.54,3.92,3.92,0,0,1,1.94,1.25c.52.45,1.43.73,1.74,1.4,1.77,1.08,4.23,1.57,6.17,2.2,1.28.52,3.1,2,4.39,2.55a7.43,7.43,0,0,0,3.33.32l.17.47.44.34-.24.47C317,244.22,317.7,244.31,318,244.06Zm-74.51-53-.19-.31.41-.54.15.38Z" transform="translate(0.44 0.44)"/><path class="cls-1" d="M279.55,266.36a11.87,11.87,0,0,0-1.05,1.53,7.84,7.84,0,0,1-.14,1.68c.51.72.24,2.06,1,2.66-.42,1.41-1.67,2.58-2.46,3.76-.83,1.5-2.07,3.4-1,5.09l.91.62c-.27,2.5.23,2.74,2.4,3.74,1.07.29,2.73-.08,3.83.17l.58-.33.69.28a6.2,6.2,0,0,0,1.18,1,4,4,0,0,0,2.6,2.33,7,7,0,0,0,3.68,1.42,4.51,4.51,0,0,0,2.83,2.85c.3,0,.94.17,1.13.44a2.67,2.67,0,0,0-.55,1.39c-.24.74-.76,1.92-.5,2.7-.45,1.19.39,2.38,1.24,3.14-.3,1.31-1.2,2.8-.95,4.2l.26.39.51.16-.12.31c.06,1,1.16,1.57,2,1.77-.56.68-1.46,1.95-.64,2.74a23.7,23.7,0,0,1-2.18,2.07c-.18-.31-1.09-.41-1.4-.46l-.51.19-.23.36c-.31-.07-.63-.64-.76-.89l-.6-.31a17,17,0,0,0-6.1,2c-1.4.81-3,2.39-4.49,3l-1.37,2.17.05.44c-.29.49-1.06,1.35-.88,2l.33.42.26.05c.27,1,0,2.36.51,3.3a13.56,13.56,0,0,1,.24,2.68,22.26,22.26,0,0,1,.43,3.19c-.32,1.57-2,3.17-3.09,4.28a41.85,41.85,0,0,1-4.25,2c-1,1.24-2.26,3.3-3.3,4.59-.33.69-1.24,1.39-1.52,2.09-.11,2.75-.69,5.84-2.65,7.92-.58.18-1.46.07-2,.44a7.27,7.27,0,0,1-2.36-.45,10.93,10.93,0,0,0-2.42.48,11.54,11.54,0,0,0-2.27.19l-.56-.34h-.41c-.58-.24-1-1-1.69-1.07a8.72,8.72,0,0,1-1.41-2.43l.61-.5.08-.32a1.55,1.55,0,0,1-.27-1.1l-.45-.28-.15-1,.51-.49a3.53,3.53,0,0,0,.17-1.48l-.45-.61a2,2,0,0,0-.27-1,6.06,6.06,0,0,1,.07-1.48c.25-.09,1.17-.32,1.27-.61l1-.31a2,2,0,0,0,1.08-.14,4.69,4.69,0,0,0,2.33-2.68,3.47,3.47,0,0,1,.06-1.2c.78-.73.89-1.85,1.3-2.76a7.59,7.59,0,0,0,1.08-3.13c.09-.32.43-1.35.26-1.67-.35-.19-1-.62-1.12-1.05-.74-.34-1.32-1.31-2-1.67a2.91,2.91,0,0,1,1.3-2c.28.07.77-.26,1-.42l1.25-.33c.41-.31.65-1,1.1-1.28a4.57,4.57,0,0,0,1.36-.23,20.63,20.63,0,0,1,2.19.55l.43-.27.27.08c.62-.27.93-1,1.57-1.27a11,11,0,0,0,.77-6.87,14.35,14.35,0,0,1-1.9-1.07l-.72-1.68a3,3,0,0,1-1.14-1.63A18.74,18.74,0,0,0,264,305c-.21-1.5-.46-4.78-.69-6.32-.33-.54-.36-1.94-.75-2.45-.5-1.41-.94-3.47-2.21-4.41a3.55,3.55,0,0,0-2.36-2.45,39.87,39.87,0,0,1-1.62-4.73l-.43-.36c-.3-1.64-.77-3.65-1.09-5.3l-.27-.18,0-1,.3-.18c.14-.88-.63-2-1.09-2.74l.28-.29a3,3,0,0,1,.37-1.36l.44-.24.7-1.19.88-.19.52.6.28-.26.39.07.24.48.85-.77,1.2.32.33.35.77-.3.06-.27.66.1.1.34a2.84,2.84,0,0,0-.75,1.09l.32,1.13a2.8,2.8,0,0,1,1.12,1.09l.87,0,.58-.42h.75l.27.19.6-.71,1.66.84.12-1.24.53.08.88-.43c.25.22,1,.15,1.33.13l.91,1.07.35,0,.1-.71a1.37,1.37,0,0,1-.66-.62l.23-.51.33-.2c-.07-1,.92-1.67,1.09-2.54a2.56,2.56,0,0,1,.37-2.4,4,4,0,0,0-.22-1.55l.32-.3a1.44,1.44,0,0,0,.92-.27,2.24,2.24,0,0,1,1.26.32l.68-.17.37.4.92-.5.32.13.41-.28a2.67,2.67,0,0,0,1.19.08Z" transform="translate(0.44 0.44)"/><path class="cls-1" d="M251.71,338.54h.64l.28.29a8.31,8.31,0,0,0-2,.75,5.78,5.78,0,0,0-.72,2.19l.56-.2c-1.34,1.48-1.79,3.85-2.83,5.49-.14.2-1.18,1.23-1.11,1.49a27,27,0,0,0-2.71,4c-.41.58-1.64,1.67-1.38,2.49l-.35.13a2.12,2.12,0,0,0-.59,1.27,11.13,11.13,0,0,0-1.77,3,3.93,3.93,0,0,1,.45,1.19,5.91,5.91,0,0,0-.71,2.39l-.56.57a10.14,10.14,0,0,0,.15,2.14l-.33.19-.21.47-.32.14-.15.5-.81.47,0,.33c-1.22,1.1-.85,3.09-.67,4.53a14.71,14.71,0,0,0,.26,3.25l.42.38.86.15.7.66.3-.17.7.4.29-.46a3.93,3.93,0,0,0,1.15,1.28l.18.55-.87.31-.34-.25-.49.51.15.3-.35.59.14.7.46.48v.65l.24.37.39,0v.8a3.35,3.35,0,0,0,1.32.87l.57-.17.43.12.19,1-.27.43-.42.17-.2.54.27.63.3.08.41-.41.37.22a5.14,5.14,0,0,0,.69,1.11l-.07.23-.58-.06-.36-.42-1.09.5a2.48,2.48,0,0,1-.23,1.14l-.9.13-.3.31-.35,0-.14.32c-.66.26-.85,1.33-1.5,1.59a6.31,6.31,0,0,0-.49,1.87l-.28,0a3.27,3.27,0,0,0-.63,1.23,1.55,1.55,0,0,1,.05,1.06l-.35.29.14.32-.1.56a10.89,10.89,0,0,0,.85,1.71,2,2,0,0,0,.62,1.77l-.21.67-.63-.19a2.88,2.88,0,0,1-.92.95l-.35-.36-.43-.11c0-.76-.76-1.29-1.38-1.56a2.35,2.35,0,0,0-1.24.43l-.49-.05c-1.11-1.08-2.66-2-4-.72h-.48a1.76,1.76,0,0,1-.85.48l-.34-.26H227l-.44-.38c-.24,0-.94,0-1.13.15l-.51-.15-.6-.81c-.26-.12-.87-.41-1-.69-1.06-.22-2.19-1-3.31-.69l-.47-.26-.7,0a4.32,4.32,0,0,0-1.12-1.25c-.32-3.09-3-6.14-5.08-8.3a18,18,0,0,0-3-1.65c-1.43-.58-3.42-1.32-5-.9a4.62,4.62,0,0,0-3.08.41,1.21,1.21,0,0,0-.88,0,3.82,3.82,0,0,1-1.45-.62,2.15,2.15,0,0,0-1.07-1.23,10.94,10.94,0,0,1-2.24-.17L195,382l-.44-.05a4.56,4.56,0,0,0-1.2-.77,4.48,4.48,0,0,0-1.69-1.86c-.48-.59-1.41-1.14-1.91-1.72l-.43.18-.78-.35-.9.14-.53-.27-.36,0a3.17,3.17,0,0,1-1.46-1.39,1.49,1.49,0,0,1-.84-.55,3.54,3.54,0,0,0-1.67-.7l-.78-.91-.8-.17c-.22-1.06-1.15-1.7-1.66-2.6l-.64-.23a1.89,1.89,0,0,0-1.57-1.23l-.42.19a4,4,0,0,0-2.31-.45,1.36,1.36,0,0,1-.94.34l-.31-.15c.12-.42-.55-1.29-.75-1.61a3.82,3.82,0,0,0-2.16-1.39l-.38.13c-2.26-.83-4.82,0-7.05.51a6,6,0,0,1-1.77-2.89l-.84-.76-.21.13-.36-.35-.49-.12-.53.17-1-.62c-.07-.36-.63-.88-.89-1.11l0-1.68a2.29,2.29,0,0,1-.46-1,3.76,3.76,0,0,0-.87-1.07l.47-.47h.49l.32-.55c-.17-.37.42-1.43.56-1.75l-.11-.31-.47-.4-.22-.63c.55-.75,1.4-2,1.11-2.95l.33-.35.09-.4.3-.17v-.48c.23-.27,1.26-1.21,1.22-1.61l.56-.28c.83.56,2.05-.23,2.57-.9l-.17-.5.47-.28.45.34.67-.11a6.93,6.93,0,0,0,.84-1.24,4.26,4.26,0,0,1-.64-1.45l.32-.35.35.45.83-.16a1.76,1.76,0,0,1,.11,1.11l.29,0,.35.61,0,.89c.44.69,1.19,2.23,2.12,2.37l.24,0,.09.57.64.48a7.52,7.52,0,0,0,4.43-1.82l.38,0,.78-.61a4.58,4.58,0,0,0-.77-2l.43-.14.49-.57-.08-.62.74-.66.51,0,.48.31.71,0v.46a2.22,2.22,0,0,0,2.6-1l.86-.13a2.54,2.54,0,0,1,1.25-.84l.29.47,0,.31.62.48.38,0a2.72,2.72,0,0,1,.18,2.48c.89,1.38,2.91,1.39,4.22.65l.11-.44.81.48a5.89,5.89,0,0,1,.16,1.88,4.82,4.82,0,0,0,1.74,1.22,3.17,3.17,0,0,0,1.3.81,3.49,3.49,0,0,0,1.9.53l.21.51a2.19,2.19,0,0,1,1,.29,12.48,12.48,0,0,0,6-2.3,1.49,1.49,0,0,1,1,0,3,3,0,0,0,1.18-.37l.37,0,.93.69a3.76,3.76,0,0,1,1.33.15,2.32,2.32,0,0,0,1.18-.45l.71.29.31-.09c.72.16,2,.65,2.74.27a2,2,0,0,0,2-.27,2.73,2.73,0,0,0,2.58-.86l.37,0,.29.25a4.43,4.43,0,0,0,3.31-1l.74,0,1.06-.53.41.05a15,15,0,0,0,3.44-3.71c.79.88,2.45.16,3.32-.23.69.24,1.37-.46,1.76-.93,1.88,1.25,1.07,1.95,3.85,1.47l.35.33.06.45.78.41c.35.12,1.24-.55,1.51-.71a4.17,4.17,0,0,0,1.14-.56,6.75,6.75,0,0,0,2-3.31,2.33,2.33,0,0,1,0-1.23l.42.82a3,3,0,0,1-.33,1.1l.13.19A3,3,0,0,0,243,341a9.07,9.07,0,0,0,2.17-.72l1.46-.8c.4-.33,2.08-2.05,2.67-2a3.15,3.15,0,0,1,1.29.68ZM142.36,395.46l.37-.2a3.61,3.61,0,0,0,1.08,1,3,3,0,0,1,0,1.91l-.63.55a1.31,1.31,0,0,1-1.71-1.06l-.48-.21a2.61,2.61,0,0,0-.91-1.32,1.78,1.78,0,0,1,.27-1.13l.55-.29.49.12A1.86,1.86,0,0,0,142.36,395.46Zm89.38-66,.06,1.22.49.39-.67.1v.66l.18.31-.27.49-.65-.84-.59-.14-.4-.53c0-.32,0-1.31.36-1.52Zm-2.91-2.32.22.84-.15.35.09.6-.44.1c-.44-.42-1.41-.58-1.81-1l.31-.87A4,4,0,0,0,228.83,327.15Zm3,6.52a1.65,1.65,0,0,1,1.3,1.37l-.4.36-.48-.07c-.17-.19-.56-.58-.84-.61l-.32-.93.44-.34ZM158.36,445.22a12.62,12.62,0,0,0,1.95.34l.34-.2.85.3-.21.3.22.64a2.92,2.92,0,0,1-2-.69,8.51,8.51,0,0,1-1.58-.4ZM152.12,352l.25.6.28.16.38-.14,1,.7-.15.47-.46-.06-.4-.48a2.7,2.7,0,0,0-1.29.13l-.39-.11-.22-.66Zm86.94-32.3c-.23-.1-.71-.35-.8-.61l.69-.87.24-.08.65.26-.43,1.07Zm-94.31,30.78c-.11.59.61,1.16.6,1.74l-.84-.28a5.79,5.79,0,0,1-.67-1.42l.17-.16Zm75.73-22.17-.93,0-.52-.75.18-.3.91.14.15.72Zm-41.93-5.67.42.27a1.18,1.18,0,0,1-1.42.61l.2-.71.61-.34Zm-25.66,26.73.52,1.24-.64.06-.29-.54Zm3.49,4.82-.13.1a5.45,5.45,0,0,1,.17,1.56l-.22.19-.37-1.85ZM169.18,432l.11.78-.66,0-.35-.51.37-.28Zm44.27-102.53-.31-.15,0-.51.26-.23.52.16-.21.69Zm21.08-4-.05-.49.33-.38.25.13-.1.57Z" transform="translate(0.44 0.44)"/><path class="cls-1" d="M35.29,306.83c-.24-.37-.06-1.33-.35-1.7l.27-.31-.2-.48.31-.48.38-.07.37.52a2.46,2.46,0,0,0,1.19-.32l.15.51.71.51a2.15,2.15,0,0,0,.19,1,3.84,3.84,0,0,0,.76-1c-.37-.35-.34-1.12-.74-1.45l-.56.15-.24-.52a1.94,1.94,0,0,0,.16-1l-.53-.61-.37.47-.22-1.59-.21,0-.48-.45-.14-.73A7,7,0,0,0,37.12,298l.44-.17L38,297c-.07-.28-.21-1.17-.5-1.32l0-.42-.57-.08a3,3,0,0,1-.28-1.09l-.26-.14.34-.94a1.79,1.79,0,0,0,.82-1.79l-.53-.25-.25-.41.16-.72a8.25,8.25,0,0,0,2-2.59,3.18,3.18,0,0,1,.47-1.23,1.39,1.39,0,0,1,.23-.88l-.14-.6-.38-.27a2.82,2.82,0,0,1,.3-1.69l-.42-.44a3.92,3.92,0,0,0,.4-1.24l-.24-.17a4.41,4.41,0,0,0,0-1.66l.24-.43.26.06a11,11,0,0,0,1,2,3.84,3.84,0,0,1,.71-1l-.22-.29a5.4,5.4,0,0,0,1.36-4.2l-.35-.24.16-.56a2.5,2.5,0,0,0-1-1l-1.15.09-.92,1.07A1.69,1.69,0,0,0,38,273.37a6.4,6.4,0,0,0,0-2.92,2.48,2.48,0,0,0,.7-1.47l-.19-.43-.83,0,.25-.56,1,.11.35-.28h.61L41,266.73l0-1.47a2.34,2.34,0,0,1-.59-2.06l-.15-.25.39-.88-.13-.55a22.26,22.26,0,0,0,.75-2.72l-.52-.61v-.57l-.59-.16c-.23-.71-.84-.82-1.5-.81l-.29-.87.31-.22a7.41,7.41,0,0,0,.39-2.46,12.45,12.45,0,0,1-.59-2.37l-1-.76a16.57,16.57,0,0,1-.66-2l.17-.44a1.87,1.87,0,0,0-.86-1l-1.22.49-.07.42-1.33-.12c0-.28.41-.69.6-.86l.06-.36-.23-.44-.6-.07a3.8,3.8,0,0,1-.88,1.43l-.3-.1a4.6,4.6,0,0,0-.14-1.39l.11-.41a4.55,4.55,0,0,0,1.2-.43,3.3,3.3,0,0,1,.58-1.53v-.35l-.8-.28A2.18,2.18,0,0,0,32,241.1l0-.24a2.08,2.08,0,0,0,1-1.59l-.19-.42A2.7,2.7,0,0,0,34,237.21c.36-.64,1.16-1.69.82-2.47l-.75-.53,0-.45-.38-.34c-.09-.17.62-1.22.69-1.37.2.16.83.78,1.1.76l-.26.49.14.81-.11.24c1.17,2.23,2.52,3.22,5.09,3l1,.74c1.8.24,4.73-.06,5.41-2.05.54-.45,1.52-.64,2-1.18l.78.11.21-.16c1.27.37,2.28-.5,3.06-1.4a4.55,4.55,0,0,0,1.38-2.7l.37,0,.4-.31.28,0A16.8,16.8,0,0,0,57,228.74a4,4,0,0,1,2-2l.45.38c.62.08,1.52,0,1.86-.6l-.07-.25,1-.09.46-.47.08-.35-.33-.26-.1-.52c.21-.16.37-1,.43-1.22l-.18-.26-.36.18-.28-.29.19-.35.73.25c.4-.38,1.21-.22,1.62-.62l.28,0,0,.49a2.13,2.13,0,0,1,1.24.77,2.27,2.27,0,0,1-.36,1.2l.19.13.3-.93.41.6V225l.85-.13.24-.36.73-.08.16.95a5.06,5.06,0,0,0,1.52.3l0,.39-.41.4.61.07,0,.34.36.59-.09,1.06.94-.83,0-.62.45-.16.7.24.16-.58.32,0a2.42,2.42,0,0,0,.54,1l-.22.33.15.39.48-.26.23.39-.25,1-.3.18-.32-.41-.32.59.06.47-.29.35.08.39-.4.94.44.05,0-.46a2.13,2.13,0,0,0,1-.31l0,.49-.38.69.75.18.59-.67.31.1.39.5.6.22.4-.13.21.42-.34.36c-.35,0-.94-.55-1.18-.77l-.76.55-.09.45.31.32-.77,1,.16.57-.35.14a1.8,1.8,0,0,1-1.12-.4l-.63.2.1.63c.52,0,1.14-.35,1.65-.23l.36.61.44.12.66-.71.91.12L75.21,237l.42.21.21.4h.47l-.15.53.43.33.5-.24.24.52.65.18-.19.38-.6-.2-.25.39.29.61-.47.14c-.49.79.27,1.89,1.06,2.12a5.47,5.47,0,0,0-.07,1.67c.09.31.63.73.87.91a2,2,0,0,1,.07,1.18,1.82,1.82,0,0,0-.24,1.17l.28.42v.71a3.51,3.51,0,0,0,1,1l.26,1.19.73.41.07.19a13.46,13.46,0,0,1-1.12,3.21l-.28.16a2.63,2.63,0,0,0-.34,1.22l-.59,1-.36,0c-1.45.9-2.38,2.57-3.34,3.9a3.72,3.72,0,0,0-.17,2,3.63,3.63,0,0,0,.08,1.73c.32.1.64,1.35.75,1.61.36.52,1.24,1.76,1.9,1.93l.14.64-.21.14a2.73,2.73,0,0,1-.7,1.41,3,3,0,0,0-.2,1.25l-.42.62,0,1.38.36.49.39-.1.07.41-.67.32c-.38.31-.39,1.41-.4,1.84L76,277c-.67.62-.78,2.07-1,2.92a18,18,0,0,1,.13,2.54l-.52.71.13.37c-1.12,1.24.16,3.31-.6,4.67l0,.45-.37.36a6.17,6.17,0,0,0-.26,1.64l.3.14c-.11.58.14,1.41-.16,2-.87,1.25-1.67,3.2-1.22,4.74l.68.48c-1.53.82-2,2.86-2.07,4.45l.39.19c-.35.45-.28,1.49-.68,1.9l-.53,0c-.27.27-.79.88-.78,1.28l-.34-.36.21-.39-.18-.5-.54-.19a2.77,2.77,0,0,0-1.36.47c0-.26-.71-.72-.89-.87l-.47-.06.1-.38a3.1,3.1,0,0,0-1.42-1.08,1.72,1.72,0,0,0-.72-.94l-.47,0-.14-.3L61.8,301a1.13,1.13,0,0,0-.67-.5,2.37,2.37,0,0,0-2,1.26l.12.45-.55-.09a5.42,5.42,0,0,0-1-1.21l-.42,0a5.9,5.9,0,0,0-2.74,3.46,2.66,2.66,0,0,1,.16,1.31l.83,1.25a5.16,5.16,0,0,1-.7,1.36l0,.62-.4.62-.47.06c-.51,1.08-2.34,1.94-2.91,3a6.21,6.21,0,0,0-1.49,1h-.65l-.36-.68-.39-.22-.37.19-.36-.33v-.41a4.51,4.51,0,0,1-1.44-.79c-.33.13-1.31.47-1.5.79l-.54,0,.08.51L43,312.52l-.32.18-.44-.12,0-.51.34-.35.2-.83-.29-.8-.69-.29-.64-1.39.07-.46.26-.19,0-.58-.27-.53-.61-.07-.48-.51a2.91,2.91,0,0,0-1.8,0l0,.31a3.48,3.48,0,0,0-.62,2.28l-.34.43.11.3a2,2,0,0,1-.95.52l-.3-.29-.49-1.71C35.56,307.78,35.37,307.07,35.29,306.83Zm3-79.84.54.35.15.36-.42.28.1.36-.28.8c-.15-.25-1.13-.53-1.38-.63a5.84,5.84,0,0,1-1,1.16l-.09.59.39.6-.26.67a4.76,4.76,0,0,0-1.35-.27l.17-.67.25-.11.24-.47-.31-.2.2-.58.61-.1a3.27,3.27,0,0,0,.69-1l.5-.05a1.62,1.62,0,0,0-.3-.95l.13-.21c.23,0,.82.09,1-.08Zm-4.38,74.08c-.16.58,0,1.36-.12,1.93a1.77,1.77,0,0,1-.14,1.09l-.71.17-1-.52.17-.25,0-.7-.89-.61.36-.62.78-.13.47-.39Zm36.45-78.56.18,1,.27.1-.34.74-.6-.14-.44.23-.57,0-.19-.66.14-.28,1-.58,0-.66Zm1.07.7.36.28-.14,1.41-.42.37-.5-.08A3,3,0,0,1,71.44,223.21Zm7.17,12.63.24.4a5.06,5.06,0,0,0-1.48.9l-.55-.18ZM67.85,222.76l.46.29-.44.56-.35-.27,0-.46Zm10.58,14.88.34.21-.3.43-.54-.28.09-.39Zm-8.77-12.32-.33-.45.46-.34.24.53ZM69,220.61l.11.33-.59.43-.12-.26Zm-.78,1.18-.54-.21.34-.29Z" transform="translate(0.44 0.44)"/><path class="cls-1" d="M159.18,16.19l-1.15.44-.76,1h-.69l.14.78-.66.11-.54-.45-.62,0-.28.41-.58,0-.59-.43-.45.19-.07.29-1.26.43v-.55l-.31-.07-.29-.5h-.69a14,14,0,0,0-2-1.59,10.14,10.14,0,0,1-.11,2l-.52.57.11.55a23.32,23.32,0,0,1-1.39,2.32l-.27-.49a1.91,1.91,0,0,0-1,.23l-.1.37-.32.06-.58-.21c-.59.46-1.62.45-2.22.9l-.07-.49-.38-.43c-.15.14-.57.47-.56.71a4.73,4.73,0,0,1-1.24.33l-.73-.36a2.19,2.19,0,0,1-2.1.48l.27.73-.61.4.09.28a2.59,2.59,0,0,0-.26,1.47c-.13.26-.56,1.05-.49,1.35l-.25.23-.8.17-.16,1.07-.31.2c-.27-.4-1.37-.64-1.81-.74l.06.3-.38.17-.3.65a3.36,3.36,0,0,1-1.33.34,1.89,1.89,0,0,1-.54.86l-.09.44.41,1-.25.13-.79-.17-.06-.42a1.37,1.37,0,0,1-.66-.68l-.54.47.12.31-.28.55-.41-.1a5.23,5.23,0,0,1-2.26,1.54c-.23-.08-.72-.27-.83-.51a2.28,2.28,0,0,1,.45-.94l-.63-.19-.6-1,.51-.09a12.49,12.49,0,0,0,1.12-1.95L125,28l.62-1.48-.21-1.09.35-.56-.14-.52.22-.19-.3-1.37-.55-.5a2.19,2.19,0,0,1-1.54,1l-.47-.62-.58-.17-.16-1.14-.77.56-.14.36a5.1,5.1,0,0,1,.58,2.52l-.5-.33-.33.09a3,3,0,0,0-1.37-1.42l-.66.05-.22.44-.49.11-.15.51-.55.37-.51-.05-.31-.22-.53.53a7.12,7.12,0,0,0-1.61-.3c-.35-.44-.54-1.23-.89-1.67l-.52,0a5.73,5.73,0,0,1-1.65,1.24c-.49-.15-1.18.32-1.67.1l-.54-.82c-.45,0-1-.56-1.26-.9-.31,0-1.5-.34-1.78-.13l-.69-.67-.11-.77.23-.4.3-.08a3,3,0,0,1,.33-1.38,4,4,0,0,1,.19-1.35,6.71,6.71,0,0,0-1.12-1l-.93.19-.24-.19A7.72,7.72,0,0,1,104,15l.44-.69.33-.12.08-.34-.43-.56c.25-.21,1-.8,1.16-1.12a1.86,1.86,0,0,0-.48-1l.14-.29.5-.18a1.74,1.74,0,0,0,.28-1,4.38,4.38,0,0,1,.62-1.12l.48.44a3.94,3.94,0,0,0,1.37-.05v.4a2.39,2.39,0,0,0,1.22-.65c.57-.25,1.41-.24,1.9-.67l.09.21.66.32-.09.4a3.17,3.17,0,0,0,1.61.81l.2.34-.49.71L113,11l.11.37.66.13.88-.35.64.75.28.06.34-.29c.21.16.89.75,1.17.75s.75-.18.88-.39a4.08,4.08,0,0,1,2.07.3l.54-.17.2.23a7.85,7.85,0,0,0,.51-1.48l1.16-.66-.28-1.07A6.62,6.62,0,0,1,123,7.67L122.83,7l.38-.33.17-.55.64.14.77-.64-.15-.21.71-.76a4.87,4.87,0,0,0,1.38.06c.32-.41,1.35-.54,1.82-.58l.29-.24.37.22.61-.14a3.33,3.33,0,0,0,1.1,1A2.68,2.68,0,0,0,132,4.53l.3-.59.42-.1.35-.61.8.25.66.8c.86-.2,1.43-1,2.36-1.05l.22.38a3.09,3.09,0,0,0,2,.4l.41.78L140,5a2.43,2.43,0,0,0,.93-.87,1.91,1.91,0,0,0,2.08-.6,3.77,3.77,0,0,0,1.45-.9l1.39-.3.31-.35c.3,0,1.07.19,1.34,0l.12-.29a1.44,1.44,0,0,1,.92-.07l.6-.61.75.07a1.66,1.66,0,0,1,1-.26l.68-.39,1,.36.38.57-.63.35a2.11,2.11,0,0,1-.32,1.17A2.81,2.81,0,0,1,150.6,3l-.72.67.4.91-.14.72.17.28.53.24.25.49-.35.66.1.43.83.13a3.8,3.8,0,0,0,.64,1.23l.45-.23.11-.31.79.05.24.56.43.3-.07.31.44.88-.63.72.26.48-.32.42.08.32a3.89,3.89,0,0,1,1.78.24,15.93,15.93,0,0,1,.69,2.12c.66.57,1.56,1.5,2.51,1.35Z" transform="translate(0.44 0.44)"/><path class="cls-1" d="M115.12,48l-.39-.2-.91.15-.38-.39-.69.24-.42-.25-.66.24-.25-.2-.7.38-.57-.1-.19,1a3.52,3.52,0,0,0-2.3.84l-.69-.08-.17-.39.36-.85-.38-.33-.56.09-.15-.37a3.91,3.91,0,0,0,.05-1.45l-.29-.44.12-.67.35-.19v-.76l-.43-.33-.19-.72.19-.41-.08-.33a1.55,1.55,0,0,1-.87-.22l.13-1.21.8-.81-.11-.78.27-.63a3,3,0,0,0,1.64-3l.45-.78a2.3,2.3,0,0,0-.61-.84,2.64,2.64,0,0,1,.74-1.19v-.47l.5-.48-.24-1.18-.41-.29.54-.58-.38-.56,0-.51-1.3-.8.11-.34.48.06a2.08,2.08,0,0,1,.8-.89l1.08,0,.64-.87c-.34-.37-.26-1.3-.19-1.74.49.22,1.18-.25,1.67-.1a5.73,5.73,0,0,0,1.65-1.24l.52,0c.35.44.54,1.23.89,1.67a7.12,7.12,0,0,1,1.61.3l.53-.53.31.22.51.05.55-.37.15-.51.49-.11.22-.44.66-.05A3,3,0,0,1,121,24.57l.33-.09.5.33a5.1,5.1,0,0,0-.58-2.52l.14-.36.77-.56.16,1.14.58.17.47.62a2.19,2.19,0,0,0,1.54-1l.55.5.3,1.37-.22.19.14.52-.35.56.21,1.09L125,28l.3.66a12,12,0,0,1-1.12,1.95l-.51.09.6,1,.63.19a2.28,2.28,0,0,0-.45.94c.1.24.61.44.83.51a5.17,5.17,0,0,0,2.26-1.54l.41.1.28-.55-.12-.31.54-.47a1.37,1.37,0,0,0,.66.68l.06.42.79.17.25-.13-.41-1,.09-.44a1.89,1.89,0,0,0,.54-.86,3.49,3.49,0,0,0,1.33-.34l.3-.65.38-.17-.06-.3c.45.1,1.53.34,1.81.74l.31-.2.16-1.07.8-.17.25-.23c-.07-.3.37-1.09.49-1.35a2.59,2.59,0,0,1,.26-1.47l-.09-.28.61-.4-.27-.73a2.19,2.19,0,0,0,2.1-.48l.73.36a4.63,4.63,0,0,0,1.24-.33c0-.24.41-.58.56-.72l.38.43.07.49-.35.33-.07.85,1.61.23.34.32,0,.86-.51.33-.51,0-.34.72.14.21a3.8,3.8,0,0,1-1.07,1.71L140.9,28l-.48.35.14.26.61.34v.37l.77.33.12.85-.29.68.35.58a2.4,2.4,0,0,0,1.22-.33v.79l.22.29.5,0,.3.35-.41.71c.26,0,.66.81.78,1l.61,0v.47l-.35.23,0,.42-.52-.2a1.14,1.14,0,0,1-.28.78l.09.23a1.85,1.85,0,0,0-.77,1.07l-2,.48-.17.22-1.11-.06-.35.29-.21-.37-.91.07-.36.48h-.57l.09.91.47.43.06.35a2.19,2.19,0,0,0-1.06.29l.17.34-.19.46.61,1.1-.47.93-1.22.12.09-.33h-1.15L135,41.72c-.2.11-.82-.2-1-.28a3.47,3.47,0,0,1-1.28.16l-.21.31-.42.11-.58.62a4.88,4.88,0,0,1-1.83-.16l-.16.43.2,1.17-.6,0v.7l-.36.17v.45a2.11,2.11,0,0,1-.88-.74l-.23.37-1.14,0c0,.75-.56,1.64-.63,2.38l-.57.45v.43a1.74,1.74,0,0,0-.77.59,1.82,1.82,0,0,0,.11,1l-.16.32L124,50a4.88,4.88,0,0,1,0,2l-1,.9v.48l-1.24,0a3,3,0,0,1-1-.91l-.4.44L120,53l-.53-.23c-.1.4-.77.92-1.08,1.14l-.45-.18-.39.42-.67-.59.19-.46a2.87,2.87,0,0,0-2-.74l.32-.89.2-.07.09-.67.54-.64-.31-.4.31-1.09Z" transform="translate(0.44 0.44)"/></svg>