<svg xmlns="http://www.w3.org/2000/svg" class="prefix__h-100 prefix__w-100">
  <g class="prefix__countries">
    <path
      d="M134.716 40.199l-.278.603.23.764.09.776.2.508-.282.676-1.03.885-2.66 2.556-.532.845.53 1.624.042.728-.398.743-.503.229-.337.718.07.503.68 1.042.259.72.344.19 1.034.205.198.545-.414.87-.006.299.616.12.436.267-.297.24.46.848-.645.296-.076.332.602.229.14.524.294.169.023.418-.321.385.294.35.064 1.002.253.511-.185.418.365.69.863.25.375.499.413.237-.074.641.533.634.308.65.034.383.447 1.01-.883.15-.476.36-.744-.417-.062.406-.423.125-.78-.173.704.869.422.247-.529.356-.058.316-.423-.048-.333 1.138-.526.284-.828.06-.232-1.302-.626-.512-.056-.448-.45-.194-.68.057-.226.17-.747-.327-.673.448.276.895-.845.403-.29.585.465.25-.099.413.603-.06-.13.356.365 1.036-.178.419-.44.114.02.3.814.587.57-.081-.963.979-.043.334.229.484.732.327.194.664.585.492-.09.578.695.779.098.477-.106.386.25.44-.358.536.467.26-.03.443.529-.12.8.057.375-.382.202.519.769.164-.108.422.746.09.099-.605.384.173.281-.232-.094-.395.402-.027.32-.33 1.563-.219.455.149.13.95-.119.704.602.964.645-.171.348.207.416.646-.276.905.484.504.492 1.094.276.094.31.487.351.16.34-.148.353.897-.565.72.784 1.272.383-.156.353.533 1.255-.091.485.53-.093.932.588.598.517.195-.094.777-.244.372.118.741-.246.626.124 1.015-.229.427.056 1.357.039.547-.178.247-.422.027-.879.627-.352.012-.715-.322-.27-.458.085-.532-.76-.688-.61.082-.216-.264-.29-.777-.239-.156-.28-.613-.54.122-.568-.044-.337-.497-.86.025-.591 1.027-.706.268.048.284.507.442.138 1.58.24.502-.457.397-.585.128-.237-.393-1.316-.043-.112.886-.498.131-.33.476.005.837-.408.427-.43-.185.207-.48-.123-.753-.864-1.796-.307-.379-.658-.013-.43.161-.388-.31-.544-.026-.738.182-.542.31-.11.431.412.403-.192.336-.308-.006-.167.365-.465.15.044.538-.451.224-.673-.434-.568.099-.99-.077-.179-.464-.507.465-.12.467-.626-.332-.186-.319-.412.143-.311 1.094-.547.199-.466.34-.189-.784-.8-.178-.41-.567-.904-.212-.455-.86-.819.51-.24.716.024.52-.588.132-.07.506.376.357-.103.285.366.73-.405.488-.146.429-.486.347-1.033.353.007.365-.26.259.165.518-.443.85-.746-.068.024.684-.223.534-.831-.456-.331.4.079.488.265-.004.392.577-.247.478-.494.3.452.462-.466.921.231.45.356.12.118 1.071-.6.614-.206.526-.674.035-.364-.457-.526-.084-.689.453-.196.344.742.342.215.595-.318.3-.895-.46-.39.334-.583.122-.277-.426-1.169.152-.086-.342-.378-.203-.958-.128-.425-.143-1.065-.709-.342-.056-.47.181-.66.526-.143.62.503 1.077-.374.634-.368-.068.034-1.018-.58-.826-.484-.494-.112-.507.356-.48-.146-.51.377-.532-1.084-.22-.345.152-.174.527-.304.355-1.432-.177-.465.226-.375-.095-.393.349-.652-.195-1.06.554-.863-.236-.1.622-.608-.193-.282-.3-.735.282-.308-.028-.267-1.101-.33.043-1.221-.151-.222.15-.797-.69-.09-.524-.677.075-.39-.682-.278-.072-.102-.471-.334-.031-.33-.359-.626.223-.75-.687-.415-.145-.278-.356-.473-.195-1.008.27-.106-.262-.619-.27-.195-.523.025-1.155-.361-.28-.304.053-.345-.515.133-.529-.85-.868-.084-.725-.88-.416.23-.403.13-1.266-.08-.616.873-.013.282-.254.368.025-.933-.92-.117-.618-.795-.61-.443-1.242-.05-.55.506-.448.216-.458 1.023-.167-.027-.375.603-.205.029-.681.384-.484.287-.59.378-.14-.398-.481-.102-.572.703-.917.468-.424.439.13.745-.123.836.501.386-.129-.22-1.17-.641-.262-.42-.801.084-.869-.113-.535-.49-.534.276-.336.457-.934-.376-.144-.044-.513-.636-.306-.357-.033-.985-.713-.554.681-1.345-.32-.586-.386-.257-.336-.555-.33-.408-.556-.21.004-.337-.57-.562-.212.07-.632.249-.302-.331-.269.559-.743-.002-.483-.338-.278-.316-.614.346-.067-.129-.782-.445-.25-1.38-.006-.236-.49.155-.472-.19-.395.04-.68-.38-.419-.467-.797.2-.486.417.02.685-.315.234-.593.327.06.544-.172.743.353.841-.815 1.159.508.72.55.23.335.64-.293.68-.154-.32-.65.272-.417.375.125.671-.136.526-.301.482-.559-.153-.31 1.276-.46.63.07.596-.316.394.618.449-.198.035-.27.684-.737.46.02.375-.42-.1-.716.124-.301-.33-.658-.256-1.136.449.039.389-.893.591-.28.16-.844.557-.7.06-.25-.513-.243-.304-.393-1.009-.502.044-.261-.321-.53.11-.484.257-.22.079-.53.372-.922.314-.16.115.752-.11.611.447-.189 1.117.282.398.408.425-.137.504-.685.433-.145.213-.605.851-.045.58.146.309-.226.821-.112.29.346.942-.659.38-.394.712-.32.02-.162.654-.65.77-.152.883.281.45-.418.472-.08.41.361.456.191.231.614.69-.258.316.082.789.702.322-.181.763-.019.42.352.643-.47.818-.38.31-.427 1.458-.524.35.22.92-.056.034-.444.565-.803.548-.069.112-.302-.394-.522-.444-.997.213-.706.235-.032.487-.835-.226-.413.06-.287-.76-.306-.38-.44-.036-.429-.48-.79.117-.402-.08-.704.314-.209-.228-.54.375-.822-.184-.247-.09-1.585.077-.286.364-.36-.206-.448.24-.422.084-.885.493-.353.393-.558 1.216.069.63-.056.294.135.331-.554h.318l.06-.768.602-.475-.268-.895.338-1.143 1.026-.242.315.044.697-.197.218-.705.774-.203.306-.41-.097-.44.475-.855-.305-.38-.036-.437-.276-.904-.36-.156-.36-.772-.749-.386.901-.83.227-.405.463-.338.62.243 1.002-.182.37-.389.359-.778.276-.212.752-.169.09-.712.574-.05.737-.37.198-.362-.029-.427-.692-.472.302-.392 1.057-.461.48-.538.487-.192.509.063.378-.226 1.022-.147.496.823-.238.305-.015.471.268.43-.253.949.163.833-.202.443.03.773-.305.428-.267.06-.131.555-.345.227.69 1.377-.377.362.546.364.106.44.732.246.397.283.54.145.175.788.323.225.406.61.071.466.775.446-.237.451.4.41.015.39.96-.007.263.421.552.118.292.331z"
      class="prefix__country" fill="rgba(0,102,204,1)" stroke="#FFF" stroke-width=".7" />
    <path
      d="M111.65 45.953l-.076.286.09 1.585.184.247-.375.823.228.54-.314.208.08.704-.118.402.48.79.037.43.38.439.76.306-.06.287.226.413-.487.835-.235.032-.213.706.444.997.394.522-.112.302-.548.069-.565.803-.034.444-.92.056-.35-.22-1.458.524-.31.427-.818.38-.642.47-.421-.352-.763.019-.322.18-.789-.7-.315-.083-.69.258-.232-.614-.456-.19-.41-.362-.472.08-.45.418-.882-.281-.771.152-.655.65-.019.163-.712.319-.38.394-.942.659-.29-.346-.821.112-.309.226-.58-.146-.851.045-.213.605-.433.145-.504.685-.425.137-.398-.408-1.117-.282-.446.189.11-.61-.116-.754-.314.161-.372.921-.079.531-.257.22-.758-.332-.747.014-.068-.287.304-.525-.284-.155-.623-.023-.542-.319.145-.608-.229-.334.076-.613-.108-.707.18-.488-.432-.52.247-.72.028-.67.284-.108.168-.444-.73-.321-.283-.301-.847.251-.382-.235.053-.269-.577-.666-.624-.225-.583-.44-.474-.523-.176-.576-.267-.264.255-.555-.296-.348.062-.513-.086-.752.333-.576-.013-.928.29-.57.65-.183.595.368.256-.464.566.166 1.195-.073.331-.44.729-.324.386.017.44-.652-.026-.51.416-.545.756-.24.465.521-.008.372.737.967.137.663.448.002.479-.468.523-.22.525.66.393.19.217-.431.552-.673.868-.107.294.118.49-.386.415-.709.651.178.362.268.389-.157.968.76.663-.421.726-.318.365-.477.825-.121.125-.628.67-.268.938.276.232-.286-.068-.576.234-.312.745.045.13.544.68.15.781.01.512-.214.274.161.283.59.59.207.183.238-.099.511.254.37.443.07.374-.513.565.051.83.812.51-.334z"
      class="prefix__country" fill="rgba(0,102,204,1)" stroke="#FFF" stroke-width=".7" />
    <path
      d="M181.532 25.412l.106.764.687.671.403-.106 1.381.237.645.706.617.198.54.811-.098 1.139.282.605-.637.87-1.076.035-.548.42-.252.464-.485-.059-.103.342 1.3.797-.03.515.378.554-.546.583.41.292.243 1.175-.5.485.004.463-.476.503-.267.69.342.327.268.515-.449.776.029.826-.28.826-.675.87-.717.487-.266.636.107.783-.804.802-.129 1.211.373.192.505.032.077.329-.192.412.194.721.43.33-.013.752-.35.199-.121.667.289.435.064 1.072-.113.377.153.376.562-.093.378.328-.36.852.17.394.687.074 1.018-.69 1.286-.147.189-.956.565.096.707-.38.245.196.66-.237.423.247.686-.237.386.39.907-.15.391.2-.16.55-.546.53-1.195 2.011-1.954 2.944-1.97 2.38-.076.28.242 5.568.124.23.146 1.365.297-.446 1.272.378.17.494-.08.398-.479.777.373.309-.285.328-.49.17.023.436.433.047.313.29-.053.398.46.31.06.402-.145.54.24.161 1.258-1.049.89.84.493.783.28.678.742.172.203.223.486.002.095.384.89.175-.177.577.432.482.451.02.713.37.191.394-.118 1.368.425.073.505-.397.36.598.036.373-.418.418.364.443.807.517.563.121.043-.39.29-.111.587.24.32-.784 1.364.564-.332.474-.024.336.282.241-.354.302-.019.49.74.07.396.18.592.493.513-.399.35.388-.2.396.319.624 1.022.31.666.793 2.317 1.104.062.456-.489-.009-.832-.315-.572.29-.751-.423-.43.083-.319-.16-.475.208-.489.481-.553-.301-.134.206-.77.085-.3.148-1.187.021-.273.15-.64-.677-.562-.275-.825-.181-.377.5-1.373-.24-.402.028-.75.71-.454.053-.255.43-.749-.063-1.017.204-1.526-.791-1.225-.248-.83-.275.135-.524-.24-.887-.377-.227-.366.317-.262.675-.405-.837-.193.376-.444.298-.387.78-.56.72-.87.522-.896.222-1.252-.198-.417-.384-1.074-.603-.71-.202-.16-.204-.376-1.183-.289-.272-.616.191-.503.485-.484-.15-.432-.44-.594-.272-.228-.507-.691.07-.373-.638-1.3-.794-.478.212-.506-.252-.45-.396-.289.327-1.14.472-.355-.075-.224-.334-.035-.546-.685.168-.347-.838-.37-.158-.212-.406.231-.674-.501-.625-.437-.741-.386-.168-.33.234-.846.834-.58.153.337-1.196-.278-.282-.946.42-.064.59.552.672-.124.54-.39.223-.498-.707-.481-.19-.274.1-.129.45.099.402-.251.69-.286-.046.03-.616-.17-.36-.83-.403-.314-.692-.237-.209-.348.242.19.743-.162.412-.496.454-.477.164-.809-.511-.13-.25-.498-.182-.411.039-.297-.43.161-.357.069-.896-.527-.356-.167.73-.327.36-.9-.153-.186-.589-.315-.402-.314.242-.017.426.328.767-.172.393-.358.231-.788-.993-.979.297-.723.017-.114.45-.615-.098-.2.41-.465.318-.53.587.139.25-.211.683.16.152-.278.615-.516.225-.376.893.056.32-.372.349-.3.723-.737.07.093.513-.186.673.163.498-.083.315.453.246.399-.12.128.287.406.116.16 1.234.208.89-.801.549-.246.008-.138.585-.83.411-.048.498 1.23.987-.275.507-.296.16-.132.44.413.618-.484.043-.24.272-.412-.208-.699.153-.08-.576-.484-.802-.103.56.206.526-.646.155-.45-.129.245-.626-.118-.741.244-.372.094-.777-.517-.195-.588-.598.093-.932-.485-.53-1.255.091-.353-.533-.383.156-.784-1.271.565-.72-.354-.898-.339.149-.35-.161-.311-.487-.276-.094-.492-1.094-.484-.504.276-.905-.416-.646-.348-.207-.645.17-.602-.963.12-.703-.131-.951-.455-.149-1.562.219-.321.33-.402.027.094.395-.28.232-.385-.173-.099.605-.746-.09.108-.422-.769-.164-.202-.519-.376.382-.8-.057-.529.12.03-.444-.466-.259.357-.537-.249-.44.106-.385-.098-.477-.694-.78.09-.577-.586-.492-.194-.664-.732-.327-.229-.484.043-.334.962-.98-.57.082-.814-.586-.02-.301.441-.114.178-.419-.366-1.036.13-.356-.602.06.1-.413-.466-.25.29-.585.845-.403-.276-.895.673-.448.747.328.226-.171.68-.057.45.194.056.448.626.512.232 1.302.828-.06.526-.284.333-1.138.423.048.058-.316.529-.356-.422-.247-.705-.87.781.174.423-.125.062-.406.744.417.476-.36.883-.15-.447-1.01-.034-.383-.308-.65-.533-.634.074-.64-.413-.238-.375-.5-.863-.25-.365-.689.185-.418-.253-.511-.064-1.002-.294-.35.32-.385-.022-.418-.295-.169-.139-.524-.602-.229.076-.332.645-.296-.46-.848.297-.24-.436-.266-.616-.121.006-.3.414-.869-.198-.545-1.034-.205-.344-.19-.258-.72-.681-1.042-.07-.503.337-.718.503-.23.398-.742-.042-.728-.53-1.624.532-.845 2.66-2.556 1.03-.885.282-.676-.2-.508-.09-.776-.23-.764.278-.603.279-.458.509-.43.343.724.692.405.853-.087.438.546.499.332.044.537-.298.485-.361.029-.102.53-.604.426-.407.616.08.502.944.199.937 1.105.69.104.098.513-.156.573.773.97-.08.414.25.401.02.872-.548.683.095.368.824-.326.522.46.466-.216.278.149-.133.466.518.15.484-.042.302-.976.25-.206.155-.783.666-.46v-.99l-.715-.367-.177-.27-.598-.09-.149-.506.057-.705-.664-.511.537-.293.414-.436.032-.905-.333-.432.226-.825.905-.477.642.029.466-1.041-.422-1.143 1.334-.522.425-.716.448-.262.247-.361.59.034.287-.323.05-.56.192-.5.5-.296.1-.549.662-.063.198-1.26.639-.962.29-.205-.065-.483.522-.64-.186-.452.188-.21-.075-.456-.37-.133-.112-.594.232-.444-.216-.344.155-.673-.795-.75-.052-.59.685-.28.106-1.11.224-.48.753-.277 1.458-.067.081.529.52.818.612.27.304-.36.045-.496.269-.316.402-.047.24.58.077.646-.16.175.011.798-.177.809.159.296.192.968-.141.547.77.366.368.64.122.611.578.93.473.144.725.481.717.028.22.28.433.061 1.073-.594.355.358.698.053.328-.777-.04-1.025.57-.405.535.545.337.12.412-.293.788-.307.776-.47.509.099 1.004-.663.458.577.25-.317.517-.164.295.617.827.509-.437 1.072.347.338-.099.667.153.531.838.245.656.566.118.575-.362.604.597.59.646-.413.754.205.607-.234.148-.349.65-.56-.03-.408-.294-.426-.128-.557-.435-.548-.585-.409-.3-.725.115-.685.566-.344-.005-.644.368-.296.611-.18-.063-.953-.328-.146-.117-.34-.37-.156-.744.338-.58.027-.462-.242-.127-.52-.436-.214.379-.649-.252-.633.142-1.191.168-.203.028-.588-.215-.197 1.109-1.123-.117-.33.553-.271-.089-.402.14-.647.75.196 1.621-.727.542.325.318-.389.433-.249.097.438.375.51-.438.692.026.535.273.262.397-.214.366.265.317.489-.018.316.8-.03.289.326.71-.441.897.47.577-.255.444.538zm-40.113 20.333l-.458-.139.283-.74.255.048z"
      class="prefix__country" fill="rgba(0,102,204,1)" stroke="#FFF" stroke-width=".7" />
    <path
      d="M241.907 22.406l-.545.315-.17.271.1.625-.494.053-.887 1.074-.34-.137-.402.595-.258.778.268.951.015.562.636.627.219.58-1.106-.24-.393.424-.297-.255-.655-.184-.752.639-.958.674-.361.64.074.472-.352.333-.576.866.057.435-.908.664-.466.794-.359.088-.502-.13-.652.458-.11.995-.575.44-.219.677.429.963 1.03.642.676-.23.178.254-.038.588.625-.086.305.41.132.734.255.346.912.53.192.763-.131.615-.287.669-.293.28-1.195.753-.617 1.283.606 1.798-.164 1.521.1.354.73-.013.255.49.522.348.48.021.46.973-.046.371.42.32.126.508.334.31.255.518-.183.416.187.4 1.015.15-.076-.336.302-.29.274.347.439.01.144.418.438.337-.104.226.497.492.267-.144.907-1.003.467-.624.342.408.7-.714.172-.298.782.328-.156.462.085.362.456-.053v-.353l.492-.29-.009-.235 1.024-.117-.147.635.55.517.67-.162.388.281.602-.19-.017-.798.267-.144.258.698.275.38-.19.427.284 1.006.612.607-.173.599.388.326.026.417.362.2.397 1.205-.009.372.604.508-.138.308.604.217.45.526-.086.29-.924.191-1 .028-1.295.145-1.623.534-.25-.072-.458.534-.778.534-1.703.931-1.039.76-1.22.685-1.758.72-.988.495-.798.486-.901.34-.772.395-1.136.411-.738.404-.706.794-.733-.458-.515.495-.56.795-.808 1.618-.048.617-.274.66-.357 1.24-.29 1.668.16.582-.074.553.176.791.66 1.176-.107 1.579.26 1.272.243.156 1.27 1.544.736.595.632.657 1.11.779.845.159.86.576.156.319-1.053 1.202-.176.308-.409 1.241-.806 1.93-.474.324-.508.16-.378.416.173.3-.688.823-1.173-1.026-.189-.474-.074-.627-.19-.246-.882-.134-.467-.576-.11-1.58.345-.534-.37-.63-.671-.032-.448.278-.405.46-.374-.158-.463.059-.4-.249-.275-.393-.3.433-.429.105-.39-.367-.314-.784-.658-.488-.75.02-.45-.295-.873.008-.503-.223-.922-.192-.99.451-.731-.127-.604.129-1.056.05-.913-.176-.573.483-1.006.222-.197.315.124.492-.328.395-.472.003-.764.352-.402.058-1.316.979-.889-.123-.145-.738-.71-.366-.697-.62-1.753-.029-.973.247-.243-.113.065-.68-.062-.456-2.317-1.104-.666-.793-1.022-.31-.32-.624.2-.396-.35-.388-.512.399-.592-.493-.397-.18-.739-.07.019-.49.354-.302-.282-.241.024-.336.332-.474-1.363-.564-.321.783-.587-.24-.29.113-.043.39-.563-.122-.807-.517-.364-.443.418-.418-.036-.373-.36-.598-.505.397-.425-.073.118-1.368-.191-.395-.713-.37-.451-.02-.432-.481.178-.577-.89-.175-.096-.384-.486-.002-.203-.223-.743-.172-.279-.678-.493-.784-.89-.839-1.259 1.05-.239-.161.144-.541-.059-.401-.46-.311.053-.398-.313-.29-.433-.047-.023-.437.49-.169.285-.328-.373-.31.48-.776.079-.398-.17-.494-1.272-.378-.297.446-.146-1.365-.124-.23-.242-5.569.077-.279 1.97-2.38 1.953-2.944 1.195-2.01.546-.532.16-.549 1.147.626-.31 1.09.309.397-.54.64-.085.67-.2.067-.323.89 1.22.157.77.58-.191.467.668.587.389-.417.453.173.799-.626.278-.51.53.229.372-.055.406-.445.461.59.494.32 1.242-.038.01-.48.984-.896.03-.607.157-.532-.171-.91.435.199.161-.323-.16-.566.052-.461.335-.383.434-.21-.009-.435.568-.45.145-.796.286-.547.2-1.03 1.142.022.23-.367.32.414.56.328-.008-.454.355-.166.013-.697.6.047-.202-1.173.162-.423.59.174 1.244-.015.577-.624.414-.111.21-.305.696-.006.586-.154.741.302.275-.022.26 1.445h1.15l-.09.334 1.22-.127.469-.927-.61-1.096.187-.46-.167-.347.45-.22.61-.063-.064-.354-.465-.433-.09-.908.566-.01.358-.475.909-.068.209.365.355-.294 1.112.06.166-.215 1.967-.482.222-.587.553-.482-.091-.228.27-.431.013-.353.52.205.039-.425.345-.232.005-.462-.608.038-.528-.857-.255-.14.41-.701-.303-.357-.496.04-.219-.284-.016-.789-.601.283-.616.046-.35-.584.29-.676-.117-.852-.772-.328-.004-.371-.61-.343-.132-.256.474-.356.322.113.753-.84.318-.866-.142-.21.342-.72.51.043.507-.33-.04-.86-.337-.32-1.615-.23.071-.85.353-.321.609-.336.895-.17.72-.39.576.206.315-.06.106-.37.445-.202.57-.02.275.482.823-1.34.405-.53.158-.45-.105-.544.516-.574.108-.587.006-1.403.995.635.176.264.842.696.696.006.284.5.314.067.004.552 1.26-.423.07-.298.444-.187.591.43.578-.04.283-.414.62-.05.541.456.663-.113-.139-.779.688-.004.762-.955 1.148-.436.101.11.874-.032.373.183.464.536.635.33.23-.208.628.03.493-.197.559.337.408-.17.849.021.644.3z"
      class="prefix__country" fill="rgba(0,102,204,1)" stroke="#FFF" stroke-width=".7" />
    <path
      d="M267.687 57.32l-.522-.612-1.014-.872-.2-.316-.785-.13-.579-.332-.516.075-.382-.56-.421.121.14.371-.308.374-.135.526.168.779.717.277-.076.236-.491-.015-1.194.732-.508.048-.385.528-.8.485-.94.085-.578-.296-.43.155-.787-.323-.83-.632-.793-.133-.44-.453-.336.183-1.275.139-.396.309-.38.019-.369.653-.904.872-.223.744-.45-.526-.604-.217.138-.308-.604-.508.009-.372-.397-1.205-.362-.2-.026-.417-.388-.326.173-.599-.612-.607-.283-1.006.189-.426-.275-.381-.258-.698-.267.144.017.798-.602.19-.387-.281-.671.162-.55-.517.147-.635-1.024.117.009.235-.491.29v.353l-.457.053-.085-.362.156-.462-.782-.328-.173.298-.699.714-.342-.408-.467.624-.907 1.003-.267.144-.497-.492.104-.226-.438-.337-.144-.418-.439-.01-.274-.346-.302.289.076.335-1.015-.15-.187-.4.183-.415-.255-.518-.334-.31-.126-.509-.42-.319.045-.371-.458-.973-.481-.02-.522-.348-.255-.491-.73.013-.1-.354.164-1.521-.606-1.798.617-1.283 1.195-.754.293-.28.287-.668.131-.615-.192-.762-.912-.531-.255-.346-.132-.735-.305-.41-.625.087.038-.588-.178-.255-.677.231-1.03-.642-.428-.963.219-.677.575-.44.11-.995.652-.458.502.13.36-.088.465-.794.908-.664-.057-.435.576-.866.352-.333-.074-.471.361-.641.958-.674.752-.639.655.184.297.255.393-.424 1.106.24-.22-.58-.635-.627-.015-.562-.268-.951.258-.778.402-.595.34.137.887-1.074.493-.053-.1-.625.171-.27.545-.316.655-.514 1.018.184.203.335.433.21.484.036-.103.643.356.181.604-.098.484.064 1.07-.135.535.3.204-.145.824.262.892-.1.646.263 1.002-.254 1.097.406 1.147.088.273.407.485.253.552.043.52.66.408-.282 1.276.078.51.206.636-.654.518-.002.228-.363.962.322-.024.353.51.151 1.225.003.814-.34.421.732.636-.249.52.079.173.47.576-.285.937.175 1.323.687.783.084.277.523-.347.23.082.678-.285.572.088.47-.377.728-.982-.32-1.463.382-.355.383-.09.67-.966.867-.57.139-.016.235-.91.304-.314.3-.59-.06-.296.328.285.687-.22.535-.358-.007-.602.872-.725.067.438.722.184.996.301.506.335.215-.194.6.224.478.615-.256-.045-.417.324-.101 1.027.148.198.253 1.138.13.438.304.089.625.538-.094.78.221.477-.248.816.402.028.353-.263.346-.047.517-.22.436-1.132.95-.799.894-.718.249-.374.582-.889.358.02.39.343.08-.066.49-.347.726-.479.32.683.984.654.286.122.253.445-.13.558.052.263-.573.333-.256.473.205.668-.204.166.362-.155 1.143.115.57-.518.774-.228.618-.504.42.08.498-.416.665-.074.571.355.343.253.587-.014.417.828.394 1.136-.09.945.854.683.393.443.44 1.001.255.442.323.308.65.434.322.238.606-.127.218.734 1.027.574.52.65.357.402.431-1.037.763-.275.094-.082.481-.384.458-1.095.164-.631-.076-1.076-.571-.655.132-.09-.416.776-.134 1.013.354.48-.457-.64-.022-.017.01.017-.028-.095-.036-.069.028.07-.028-.396-.822-.494-.213.669-.477-.432-1.049-.548-.612-.355-.169-.235-.379z"
      class="prefix__country" fill="rgba(0,102,204,1)" stroke="#FFF" stroke-width=".7" />
    <path
      d="M125.152 108.503l-.027.19-.732.336-.57.79.422.559-.346.555-.683.566-.154.265-.02.727.132.362-.658.412-.424-.003-1.538.666-1.041.292-.653.466-.227.452-.713.927-.336.82-.101 1.396-.505.329-.871.863-.558.963.004.583.32.49-.897.343-.424.779-.96.33-.44.422.01.319-.4.297-.71.015-.53.262-.212.289-1.302.391-.105.295-.553.197-.677.025-.397.26-1.068.011-.626.22-.489.454-.675-.312-.594.11-.897.431-.478.418-.661-.257-1.13.898-2.27-.746-.557-.043-.41.449-.708-.217-.21-.641-.292-1.467-.295-.702.284-.72.348-.316 1.35-.564-.043-.613.372-.706-.131-.327.62-.418.585.017 1.225-.6.123-.43.438-.493-.154-1.13 1.155-.641.353-.58.368.067.374-.634-.503-1.077.143-.62.66-.526.47-.181.342.056 1.065.709.425.143.958.128.378.203.086.342 1.169-.152.277.426.582-.122.39-.333.896.46.318-.301-.215-.595-.742-.342.196-.344.69-.453.525.084.364.457.674-.035.206-.526.6-.614-.118-1.071-.356-.12-.231-.45.466-.92-.452-.463.494-.3.247-.478-.392-.577-.265.004-.08-.487.332-.4.83.455.224-.534-.024-.684.746.068.443-.85-.166-.518.261-.26-.007-.364 1.033-.353.486-.347.146-.43.405-.487-.366-.73.103-.285-.377-.357.071-.506.588-.132-.025-.52.241-.715.819-.512.455.861.904.212.41.567.8.178.189.784.466-.34.547-.2.311-1.093.412-.143.186.319.625.332.121-.467.507-.465.18.464.989.077.568-.1.673.435.45-.224-.043-.539.465-.15.167-.364.308.006.192-.336-.411-.403.109-.43.542-.31.738-.183.544.026.389.31.43-.161.657.013.307.379.864 1.796.123.752-.208.481.431.185.408-.427-.005-.837.33-.476.498-.131.112-.886 1.316.043.237.393.585-.128.458-.397-.24-.503-.14-1.58-.506-.44-.048-.285.706-.268.59-1.027.86-.025.338.497.568.044.54-.122.28.613.24.156.29.777.216.264.61-.082.759.688-.085.532.27.458.715.322.352-.012.879-.627.422-.027.178-.247-.039-.547 1.176-.187.282.375-.312.333.719.24.79-.432.315.44.725.73.702-.198.409.316.249-.508.458-.272.422.217.016.691.47.32.98.102.377.25-.09.515.423.617-.096.651-.19.365.005.783-.743.334-.298.634-.084.551-.367.168-.181.356.088.44.644-.274.338.595.435-.547 1.107-.166.464.064.234-.373.503.192.567-.097.996.911.524.11.195.426.283 1.393.318-.034.537.011.293.43.287 1.046.36.068.419.343.149.505.525.356.58.557.251-.127.993.626.237.781-.137.641.489.409-.535 1.145.47-.047.646-.542.827.584-1.016 1.02.144.178.618-.216.215.144 1.064-.09.333.338-.099.824.168.552.498.699.448-.44.772.18.614.684-.103.452-1.06 1.01-.293.555-.495-.28-.423.195-.234.392-.36-.085-.66-.668-.817-.656-.196-.489-.56.053-.418-.424-.298-.574-.137-.132-.008-.01-.483.129-.288.399.062.493.607.85-.413.413-.315-.348-.636-.268-.405-.306-.7-.735-.475-.063-.325-.785-.897-.624-.442-.462-.495-.246-.409.048-.209.384-.69-.909.041-.39-1.106-.642.03-.326-.45-.482-.637-.206-.744-.602-.14-.479-.406-.243-.327.233-.798-.35-.169-.426-.413-.262-.394.157-.313-.995-.671-.645-1.65-1.06-.896-.5-.659-.265-.304-.304-.568.504-.083.924.156.47-.82-.425-.886-.311-.17-.344.205-.883-.383-.525-1.906-.738-1.641-.337-.709-.305-.845-.01-.562-.226-.172-.69-.32.058.091.532-.793-.373-.435.062-1.336-.435.275-.224-.03-.12-1.5.076-.56-.282-.36.001-1.36.636-.434.58-1.057.184-.458.542-.875.394-.505.066-.185.337-.51.174-.693.448-.464.095-.384.281zm36.954 12.157l-.363-.522.537-.145z"
      class="prefix__country" fill="rgba(0,102,204,1)" stroke="#FFF" stroke-width=".7" />
    <path
      d="M206.257 86.598l-.065.68.243.113.973-.247 1.753.03.697.62.71.365.145.738.89.123 1.315-.98.402-.057.764-.352.472-.003.328-.395-.124-.492.197-.315 1.006-.222.573-.483.913.176 1.056-.05.604-.129.73.127.991-.451.922.192.503.223.872-.008.45.295.75-.02.659.488.315.784.389.367.429-.105.3-.433.276.393.399.249.463-.06.374.158.405-.46.448-.277.671.033.37.63-.344.532.11 1.581.466.576.882.134.19.246.074.627.19.474 1.172 1.026-.637-.214-.903-.824-.18-.437-.66-.523-.656.05-.707.957.362.593-.426.787-.242.652-.178 1.37-.072 1.352.288 1.184.264.829.389.766.167 1 .008 1.182-.091 1.498.321 2.683.369 1.24.284.737.353 2.184.31.93.264 1.365.44 1.43.425.957.56.686.7 1.077 1.341 1.544.983 1.26.826.832.44.33.4-.08 1.23 1.678.97 1.031.891.813.707.493.637.239.38-.008.133.255-.766 1.452-.028.473.21.61-.338.59.318.401-.294.345-.612.098-.525.216-.03.955-.382.171-.639-.13-.587.217-.336-.366-.28-.765.046-.5-.493-.793-.55.134-.065.409-.568.224-.317-.493.348-.47-.308-.366-.293.007-.282-.42-.46-.247.609-.997-.245-.638-.006-.491.26-.535-.176-.247-.843.396-.72.432-.446.488-.914.212.295.857-.18.317.253.83.12.537-.056.49-.541-.021-.397-.358-.56.17-.517.395-.005.7-.336.953-.455.324-.092.381-.856.412.113.347-.157.799-.748.157-.35.37-.442-.331-.525.086-.408.97-.642-.77-.2-.411-.609.367-.517.132-.416-.16-.876.474-.345-.104-.315-.53-.896-.156-.388-.231-.553.175-.91-.556-.17-.575-.78-.118-.24-.73-.367.186-1.114-.333-.404.304-.467-.297-1.093-1.242-1.429-.62-.594-.618.2-1.643-.563-.254-.384-.397.292-.568-.103-.23-.965-.66-.214-.52.505-.602-.188-.458.702-.153.398-.613.052-.499.336-.622.71-.718.157-.525.241-.187.116-.662-.237-.176-.656.19-1.166-.071-.111.344-.563.4-.446-.352-.773-.303-.684.253.095-.435.266-.05.247-.514.331-.295-.064-.456-.695-.174-.469.047-.562-.173-.22.478-1.062-.426-.693-.794-.343-.088-.538-.536.111-.807-.678-.567-.212-.012-.564.471-.5.864-1.038-.246-.502.409-.07.49-1.168 1.014-.254-.15-1.016.007-.571.307-.503-.056-.006.3.608.558 1.147.54.089.448-.439.246-.535-.193-.383.13-.605-.258-.59-.094-.323-.207-.932.172-.894.48-1.081.096-.686-.179-.73-.598.08-.407.286-.14.002-.454-.514.025-.076.262-.703.575-.053.408-.683.857-.438.19-.25.467-.527-.14.115-.751-.652-.498-.822-.001-.148-.45-.356-.29-.296.166-.57-.55-.385-.129-.475-.439-.15-.367-.445-.248-1.175.007-.2-.096-.896.122-.55-.242-.226.512-.28.193-.012.8-.853.168-.416-.648-1.22-.924-.332-.473.097-.298-.34-.473-.537-.379-.124-.312.225-.476-.752-.567-.956.119-.44-.34-.17-.524-.957-.791-.793-.033-.645-.256-.605-.39-1.192.609-.468-.56-.177-.542-1.642-1.325-.168-.56-.507-.389-.617-.001-.572.263-.568-.428-.656-.648-.85-.41-.86-.848.518-1.037-.152-.45-.552-.083-.245-.29-.002-.464-1.324-.354-.358.16-.24-.19-.742.102-.287-.083-.952.075-.334.225-.173.43-.556.517-.271.454-.816.898-.593.797-.417-.161-.85.632-.32.034-.282-1.393-.195-.425-.524-.111-.996-.91-.567.096-.503-.192-.234.373-.464-.064-1.107.166-.435.547-.338-.595-.644.274-.088-.44.181-.356.367-.168.084-.55.298-.635.743-.334-.005-.783.19-.365.096-.65-.424-.618.09-.514-.376-.251-.98-.103-.47-.319-.016-.691-.422-.217-.458.272-.25.508-.408-.316-.702.198-.725-.73-.315-.44-.79.431-.72-.24.313-.332-.282-.375-1.176.187-.056-1.357.229-.427-.124-1.015.45.129.647-.155-.206-.527.103-.56.483.803.081.576.7-.153.411.208.24-.272.484-.043-.413-.617.132-.44.296-.16.274-.508-1.229-.987.047-.498.831-.41.138-.586.246-.008.8-.549-.208-.89-.16-1.234-.405-.116-.128-.287-.399.12-.453-.246.083-.315-.163-.498.186-.673-.093-.513.737-.07.3-.723.372-.349-.056-.32.376-.893.516-.225.277-.615-.16-.152.212-.682-.138-.251.529-.587.466-.318.2-.41.614.098.114-.45.723-.017.979-.297.788.993.358-.231.172-.393-.328-.767.017-.426.314-.242.315.402.187.589.9.152.326-.36.167-.73.527.357-.069.896-.161.358.297.429.41-.04.5.183.13.25.808.511.477-.164.496-.454.163-.412-.191-.743.348-.242.237.209.314.692.83.402.17.36-.03.617.286.047.25-.69-.098-.404.13-.45.273-.099.48.19.498.707.391-.222.124-.54-.552-.674.064-.588.946-.421.278.282-.337 1.196.58-.153.846-.834.33-.234.386.168.437.74.501.626-.231.674.213.406.37.158.346.838.685-.168.035.546.224.334.355.075 1.14-.472.29-.327.449.396.506.252.477-.212 1.3.794.374.638.69-.07.23.507.593.272.432.44.484.15.503-.485.616-.19.289.271.376 1.183.16.204.71.202 1.074.603.417.384 1.252.198.896-.222.87-.521.56-.721.387-.78.444-.298.193-.376.405.837.262-.675.366-.317.378.227.239.887-.135.524.83.275 1.225.248 1.526.79 1.017-.203.75.063.254-.43.455-.053.749-.71.402-.027 1.373.239.377-.5.825.18.561.276.64.676.274-.149 1.187-.02.3-.15.77-.084.134-.206.553.301.49-.48.474-.21.32.16.429-.082.751.423.572-.29.832.315zm21.286 44.102l-.18.271-.896-.153-.436.069.442 1.177.4-.015.385-.333.632-.13.031-.519z"
      class="prefix__country" fill="rgba(0,102,204,1)" stroke="#FFF" stroke-width=".7" />
    <path
      d="M196.394 183.177l.8-.102.328-.504.289-.814.167-1.09-.041-.647-.327-.862-.544-.877-.544.044-.143.361-.468-.574-.319-1.2-.635-.733.135-.389-.659-.524-1.314-.667-.872-2.241-.254-.37-.859-.748-1.15-.61-1.218-.43-1.732-.406-.298.03-1.416-1.11.635-.14.203-.195.408-1.183-.164-.996.504-.707-.297-.745-.88-.787-.861-.514-.909-.378-.958-.18-1.438-.084-.849.087-.623.747.07.385-.665-.046-.607-.536-.398-1.186.128-.388-.123-.458.321-.21.485.05.127-.36-.124-.396.303-.237.314-1.275.229-1.778.09-1.355.001-1.32-.082-1.24-.2-1.535-.626-1.966-.983-1.02-.264-.471.008-.61-.22-.425-.235-.853-.317-.82-.497-.414-.638-1.439-.747-.714-.373-.065-.284-.345.047-.381-.286-.61-.04-.42-.616-1.21.032-1.055.156-.15-.215-.844-.131-1.842-.33-1.157.301-.546-.13-1.26.048-.708-.38-2.723-.465-1.597.018-.582-.288-.728-.796-1.517-.515-.816-1.158-1.502-.651-.694-1.23-1.14-.454-.188-.85-.538.293-.554 1.06-1.011.103-.452-.614-.684-.772-.18-.448.44-.498-.7-.168-.55.1-.825-.334-.339-1.064.091-.215-.144-.618.216-.144-.178 1.016-1.02-.827-.584-.646.542-.47.047.535-1.145-.49-.409.138-.64-.237-.782-.993-.626-.251.127-.58-.557-.525-.356-.15-.505-.419-.343-.359-.068-.287-1.047-.293-.429-.537-.01.851-.633.417.16.593-.796.816-.898.271-.454.556-.517.173-.43.334-.225.952-.075.287.083.743-.102.24.19.357-.16 1.324.354.002.464.245.29.552.082.152.451-.519 1.037.861.847.85.41.656.65.568.427.572-.263.617.001.507.39.168.56 1.642 1.324.177.542.468.56 1.192-.61.605.391.645.256.793.033.956.791.17.524.44.34.957-.119.752.567-.225.476.124.312.537.38.34.472-.097.298.332.473 1.22.924.416.648.853-.168.013-.8.279-.193.225-.512.55.242.896-.122.201.096 1.175-.007.445.248.15.367.475.44.385.127.57.55.296-.165.356.29.148.45.822.001.652.498-.115.752.528.14.25-.468.437-.19.683-.857.053-.408.703-.575.076-.262.514-.025-.002.454-.286.14-.08.407.73.598.686.179 1.08-.095.895-.481.932-.172.323.207.59.094.605.257.383-.129.535.193.439-.246-.089-.448-1.147-.54-.608-.558.006-.3.503.056.571-.307 1.016-.008.254.15 1.167-1.014.071-.49.502-.408 1.037.246.501-.864.564-.471.212.012.678.567-.11.807.537.536.343.088.693.794 1.062.426.22-.478.562.173.47-.047.694.174.064.456-.331.295-.247.514-.266.05-.095.435.684-.253.773.303.446.352.563-.4.111-.344 1.166.071.656-.19.237.176-.116.662-.241.187-.158.525-.709.718-.336.622-.052.5-.398.612-.702.153.188.458-.505.601.214.522.965.66.103.229-.292.568.384.397.564.254-.201 1.643.594.618 1.43.62 1.092 1.242.467.297.404-.304 1.114.333.367-.187.24.73.78.12.17.574.91.556.553-.175.388.231.896.155.315.531.345.104.876-.473.416.159.517-.132.608-.367.2.411.643.77.408-.97.525-.086.442.331.35-.37.748-.157.45.312.745.234.21.429.918.961-.306.498-.336-.311-.41.115.09.992-.498.124.147-.645-.417-.13-.244.461-.662.377-.292-.148-.404.479-.79.63-.453-.04-.484.35.025.246.618.587.103.393-.494.44-.075.428-.865 1.02-.27 1.253-.31-.276-.67.212-.429.005-.337.715.12.465.365.14.62.507.382.122-.102.408-1.039.318-.12.48-.515.523-.686-.162-.155.308-.494.213-.236.343.208.585.535.087.503-.25.196.103-.129 1.227.562.151.217-.234.488.323.457.878-.054.992-.22.398.175.484.891.418.377-.024.15-.68.299-.471.826.653-.38.515-1.223.535-.506.532-.744-.025-.578.531-.432.187-.31-.313-.713-.344-.433.25.163.676-.36 1.015.004.419-.597.42-.529-.005-.489.431-.658.275-.634.53-.104 1.163.259.895-.198.735.341.76.333.003.24-.497.446.178.263.585-.284.525-.015.51-.288.806-.395 1.498.074.538-.256.37-.284 1.144.537.297.185.357-.01.792-.838.063-.496.75-.553.257.078.31-.793-.037-.45-.133-.528.458-.516.148-.09.608-.219.225-.46-.598-.296-.177-.641.701-.216.635.368.141.408.525.147.42.765.175.33.305-.268.46-.135.655-.222.388-.443.04.136.612-.064.7.45.115.213.34-.107.609-.674.346-.876-.122.048.465-.517.74-.621-.2-.332.386-.564.21.157.404-.32.24-.499.039-.395.413-.514-.108-.25.351-.429-.389-.626.127.148.904-.458.348-.21.625.69.466.249.377.593.292.092.484-.112.8.025.729-1.72-.137-.37-.124-.768.315-.776-.24-.221.223.018.529-.934.977.065.456-.067.181-1.875-.707-2.242-.524-.391.083-.543-.548-.599-.02-.757.185-.46.355.158.678-.577.27-.124.298-.639.142-.368.248-.278-.616-.715-.516-.524-.13-.224-.578.062-.782.397-.73.479.511zm-19.526-15.503l-.073.663.081 1.25-.372.071-.55.576.256.536.595.354-.052.864-.511-.133-.805.04-.742-1.488-.33-.474-1.49.338-.072.58-.516.03-.172-.27-.547-.153-.301.119.022.73-1.36-.435-1.035.186-.807-.463-.491-1.009.014-.728.291-.337.808-.42 1.055.006.204-.167.535.208.388.568.588.237.195-.45.618-.154.188-.531 1.147-.066.019.593.613.328.507-.085.094-.717.551-.348.334-.61-.01-.273.518-.787.366.457.625.519zm12.367 17.074l.511.258.556 1.097-.074.436.24.233-.065.481-.342.23-.49-.44-.47-.84-.435-.075-.064-.33.486-.197zm-28.794-26.289l.334.203-.182.586-.643.633-.275.391-.245-.191-.118-.733.222-.92.668-.851.295.302zm67.102-27.759l.378.367-.03.518-.633.131-.385.333-.4.015-.442-1.177.436-.07.896.154zm-54.1 56.231l-.418.298-.614-.146-.117-.35.121-.689.58-.238.399.331zm-6.355-10.602l.177.67-.53.13-.828-.137-.18-.289.254-.32.35.103.58-.591zm28.485 13.535l-.452.7-.086-.63zm-32.764-46.319l.19.18-.242.565-.291-.12.089-.506z"
      class="prefix__country" fill="rgba(0,102,204,1)" stroke="#FFF" stroke-width=".7" />
    <path
      d="M254.324 172.21l.038.8-.486.985.19.372-.162.438-.839.766-.39-.5-.92.884-1.103.52-.624-.182-.154-.373-.443.21-.01.391-.298.246-1.438-.146-.443.146-.172.455-.995-.502-.443.273-.01.273.37.883-.019.61-.588.09-.68.318-.698.59-1.404.234.007.702-1.187.16-.572.308.153.42.695.748-.472.39-.617-.02-.346.445-.7.316-.443-.238-.404-.84-.417.017-.049.665-.21.572.077.839-1.276 1.214-.599.015-.503.663-.344-.093-.161-.43-.058-.956-.546.234-.29-.266-.428.326-.363-.012.378-.908-.806-.27-.445.18-.303-.94.185-.481-.15-.757.438-.334-.686-.505-.371.06-.458.662-.655.278-.178-.438-.559-.387-.237.253-.746-.862-.3.153-.344-1.16.337-.188-.094-.711-.371-.003-.648-.47-.078-.438.286-.635-.467-.404.404-.68-.495-.295.039-.3-.825-.79-.236.06-.357-.412-.424-.159-.576.787-.233-.212-.366.452-.356-.577-.347.351-.587-.051-.237.17-.725.12-.424-.105-.492-.424-.808-.519-1.026-.312.213-.48-.628-.345.204-.416.447-.45.554-.267.311-1.153-.582-.334-.765-.218-.177-.24-.215-.885-.324-.787-.276-.267-.078-.31.553-.258.496-.75.839-.063.009-.792-.185-.357-.537-.297.284-1.144.256-.37-.074-.538.395-1.498.288-.807.015-.51.284-.524-.263-.585-.447-.178-.24.497-.332-.004-.34-.76.197-.734-.259-.895.104-1.164.634-.53.658-.274.49-.431.528.006.597-.421-.005-.42.36-1.014-.162-.676.433-.25.713.344.31.313.432-.187.578-.531.744.025.506-.532 1.223-.535.38-.515-.826-.653-.3.47-.15.681-.376.024-.89-.418-.175-.484.219-.398.054-.992-.457-.878-.488-.323-.217.234-.562-.15.129-1.228-.196-.102-.503.25-.535-.088-.208-.585.236-.343.494-.213.155-.308.686.162.514-.522.121-.481 1.039-.318.102-.408-.383-.122-.62-.507-.364-.14-.12-.465.337-.715.428-.005.671-.212.31.276.27-1.253.865-1.02.075-.427.494-.441.114.246.009.037.192.365 1.05.2.688-.213.497.223.218-.508 1.045-.347.56.013-.27.617.326.42-.341.39-.47.796-.677-.005-.208.39.556.76.472.066.467-.47.887.816.531-.833.43-.134.663.814.295-.016.35-.371.534.24.479.484.193.492 1.109 1.398.658.622.463.23.569.666.323-.399.734-.216.74.322.544.129.164-.8.573-.68.884.147.249.365-.287.19-.01.746.383.456-.145.473-.77.443.08.474.267.528.294.174.089.373.5.502.204.464.097.674-.073.646-.287.245.464.529.52.165.095 1.201.232.683.394.292.332-.045.16.61-.163 1.119-.252.41-.592.317-.028.264.322.7.44-.108.637.147.098.837.35.237-.218 1.33.063.427.413.474-.514.891.152.446.395.61-.342.783.557.42.909.473.036.437.765.164-.235.965.19.547.026.646.396-.055.343-.937.99-.465.423-.473.784.782.883.39.29.62.469.6.434.89.171.1.757-.101.676-.275.54-.474.478.171.092.619.363.964-.368.757-.16.62-.803.047-.63.493.135.41zm-21.116-33.063l-.639-.413.26-.253.374.084z"
      class="prefix__country" fill="rgba(0,102,204,1)" stroke="#FFF" stroke-width=".7" />
    <path
      d="M274.719 165.883l-.342.004-1.383.423-.352-.006-.736.262-.474.423-.79.298-1.297.139-.511.25.128.235-.319.795-.637.296-.368.312-.783.152-.32-.508-.637.396-.838.233-.47-.152-.318-.48-.261.02-.14.82-.386.357-.366.585.059.919-.43.512-1.03-.004-.314.302-.376.767-1.08.742-.878-.26-.471-.299-.626-.798-.633-.271-.245-.364-.66-.034-.286.72-.452-.163-1.373-.297.27-.556-.137-.41.63-.492.804-.048.16-.62.368-.756-.363-.964-.092-.619-.478-.171-.54.474-.676.275-.757.101-.171-.1-.434-.89-.47-.6-.289-.62-.883-.39-.784-.782-.423.473-.99.465-.343.937-.396.055-.027-.646-.189-.547.235-.965-.765-.164-.036-.437-.909-.474-.557-.419.342-.782-.395-.61-.152-.447.514-.891-.413-.474-.063-.428.217-1.329-.35-.237-.097-.837-.637-.147-.44.109-.322-.701.028-.264.592-.318.252-.409.163-1.12-.16-.61-.332.046-.394-.292-.232-.683-.096-1.201-.519-.165-.464-.53.287-.244.073-.646-.097-.674-.205-.464-.5-.502-.088-.373-.294-.174-.267-.528-.08-.474.77-.443.145-.473-.383-.456.01-.746.287-.19-.25-.365-.883-.148-.573.68-.164.8-.544-.128-.74-.322-.734.216-.323.399-.569-.667-.463-.23-.658-.621-1.109-1.398-.193-.492-.48-.485-.533-.24-.35.372-.295.016-.664-.814-.429.134-.531.833-.887-.815-.467.47-.472-.068-.556-.76.208-.389.677.005.47-.797.341-.389-.327-.42.272-.617-.561-.013-1.045.347-.218.508-.497-.223-.688.213-1.05-.2-.192-.365-.01-.037-.113-.246-.103-.393-.618-.587-.025-.246.484-.35.454.04.789-.63.404-.479.292.148.662-.377.244-.462.417.13-.147.646.499-.124-.09-.992.41-.115.335.311.306-.498-.918-.961-.21-.43-.745-.233-.45-.312.157-.8-.113-.346.856-.412.092-.38.455-.325.336-.952.005-.7.517-.397.56-.169.397.358.54.021.057-.49-.12-.538.72-.222.21.355 1.002-.02.182-.736.46.248.28.42.294-.008.308.365-.348.471.317.493.568-.224.065-.41.55-.133.493.793-.046.5.28.765.336.366.587-.216.639.13.382-.172.03-.955.525-.216.612-.098.294-.345-.318-.401.339-.59-.211-.61.028-.473.766-1.452-.132-.255 1.293.13 2.328 1.405.7.219 2.18 2.22.63.491.355.109 1.261 1.073 1.69 1.735 1.477 1.243 1.051 1.026 1.364 1.115 1.088.77 1.312.777.561.161 1.063.769 1.09.495.802.15.914-.687.464.188.951 1.168.11.527.279.316.849.304.439.333-.12.838.061.973.607 1.26.746 1.778 1.116 3.35.39.752.326.334.777 1.931.429.907.747 2.378.238.507.937 2.394.231 1.627.591 2.58.586 1.942zm-41.511-26.736l-.005-.582-.374-.084-.26.253z"
      class="prefix__country" fill="rgba(0,102,204,1)" stroke="#FFF" stroke-width=".7" />
    <path
      d="M283.817 182.3l.16.353.615.575 1.744 1.368 1.503.997.485.193.553.574.016.392.486.866.416.486 1.226 1 .527.537-.03.43.215.305 1.067.665.498.41 1.003.593 2.891 1.24.522.154.085.618-.022.775.125.326-.132.694.188.334.789.686.81.403-.204.268-.285.826.589.243-.452.665-1.084.595-1.709 2.42-.037.957-.627.668-.761.405-.412.992-.02.447-.404.444-.433.882-.493.064-.478.974-.968.736-.267.46-1.001-.138.294-.47-.304-.715-.283-1.617-.386-.121-.171-.371-.936-.732-.418.18-.108-.491-.418.17-.074.557-.426-.34-.458-.649-.097-.372-.621.064-.676-.583-.358.534-.382.17-.178.348-.554.308-.272.815-1.003.277-.738.293-.232.476.503.677.19 1.146.149.216.522.012.224.252-.21.731-.441-.04-.256-.616-.32.715-.695.164-.368-.114-.17.349.235.416-.133.375-.432-.077-.44-.787-.531.08-.46.725.008.646-.752-.027-.211.786-.711-.43-1.084-.07-.437.305-.277-.243-.349-.88-.431-.032-.198-.535-.494.15-1.627-.467-.39-.498-.564.425-.698-.213-.471-.452-.032-.5-.48-.497-.086-.4-.358-.016-.253.385-.422-.152-.37-.489-.488-.26-.43.012-.264.257.132.436-.327.403-.512.177-.364.349-.412.102-.281.44-.386-.235-.459-.006-.744-.433-.465-1.1-.595-.06-.57-.243-.35-.508-1.256-.56-.32.13-.135.547-.339.093-.368-.6-.207-1.393.4-.612.29-.73-.167-.3-.623-.535-.54-.007-.432-.736-.696-.344-.346.147-.724-.708-.503-.1-.32-.39-.44-.19h-.483l-.97-.516-.721-.591-.914-.372-.3.01.11.655-.63-.045-.594-.246-.247-.31-.082-.455-.566-.564-.228-.966.191-.783.337-.91.647-.156.746-.82.21-.574-.184-.72.72.109.273-.083 1.03.755.556.163.419-.193.365.382.502.19.393.546.328.063.464-.357.565.09.573-.148.507-.895.3-.21.592-.03-.02-.291.5-.521-.547-.107-.585-.645.262-.356-.602-.471-.573-.035-.502-.253-.311-.655-.92-.717-.275-.546-.076-1.238-.691-.454-.31-.045-.554-.636-.519-.309.453-.51.562-.42.136-.32-.137-.418-.963-.536-.373-.573-.735-.572.489-.556.58-.156.687-.657-.19-.255.17-1.03-.3-.135-.272-.446-.046-.473.317-.055.252-.429-.055-.573.506-.402-.028-.364.598.19.407-.02.535.39.442-.401.643.034.2.446 1.004-.359.444.19 1.103-.242.315-.383-.12-.41.484-1.049.052-.546-.742-.261-.335.038-.572-.763.016-.51.206-.465.877.26 1.081-.742.376-.767.314-.302 1.03.004.43-.512-.06-.92.367-.584.386-.357.14-.82.26-.02.32.48.47.152.837-.233.637-.396.32.508.783-.152.368-.312.637-.296.319-.795-.128-.235.511-.25 1.297-.139.79-.298.474-.423.736-.262.352.006 1.383-.423.342-.004.37 1.735.46 1.807.464 1.243.387.715.614 1.65.867 1.547.367.497.39.86.666 1.176.83 1.265.56.73 1.002 1.08.516.713.837.9z"
      class="prefix__country" fill="rgba(0,102,204,1)" stroke="#FFF" stroke-width=".7" />
    <path
      d="M309.865 202.57l-.16.906.231.915-.25.233-.17.533-.556.514-.08.494.475.736-.014.957-.396.301-.086.622.368.465-.19.488.542.798.64.322-.262.525-.482.185-.296.308-.143.532-.303.007-.577.469-.601.187-.075.721-.558.122.02.437-.505.03-.483-.253-.09-.336-.942-.198-.191.47-.387.39.35.449.115.653-.04.73-.274.89-.018.884.235.232.619.096.398.51.807.721-.482.248-.23.433-.694.262-.307.261-1.028.177-.758.29-.465.666-.699.06-.54-.299-.553-.49-.446-.173-.543.475-.167.888-.518.356-.823.308-.514-.373-.807.18-.295.524-.215-.17-.554.403-.15.34-.719.578-.512-.264.022-.356-.58-.446-.424.5-.842-.214-.339.143-.632-.336-.317-.742-.655-.673-.802-.032-.44-.458-.33.16-1.694-.63-.423.034-.652-.492-.793-.736-.809.057-.227-.461h-.736l-.314-.113-1.074.232-.047.575-.398-.122-.766-.938-.803 1.322-.512 1.018.843 1.165-.113.502.3.498-.497.015-.225-.325-.801.037-.523.206-.713-1.167-.37-.06.007-1.075-.796-.356.415-.76-.575-.459.626-.736.542-.115.225-.43-.465-.47.421-.123.075-.72-.554-.204-.19-.499.344-.514.02-.574-.42-.633-.25-1.145-.606-.768-.758-.53.437-.305 1.084.07.71.43.212-.786.752.027-.007-.646.459-.726.53-.079.441.787.432.077.133-.375-.235-.416.17-.349.368.114.695-.164.32-.715.256.617.44.04.21-.732-.223-.252-.522-.012-.15-.216-.189-1.146-.503-.677.232-.476.738-.293 1.003-.277.272-.815.554-.308.178-.349.382-.17.358-.533.676.583.62-.064.098.372.458.65.426.34.074-.558.418-.17.108.49.418-.18.936.733.17.37.387.122.283 1.617.304.715-.294.47 1 .138.268-.46.968-.736.478-.974.493-.064.433-.882.404-.444.02-.447.412-.992.76-.405.628-.668.037-.957 1.709-2.42 1.084-.595.452-.665-.589-.243.285-.826.204-.268 2.29 1.311 1.62.613 2.22.452.312.522.5.262 1.098.913.087.208.79.592z"
      class="prefix__country" fill="rgba(0,102,204,1)" stroke="#FFF" stroke-width=".7" />
    <path
      d="M227.401 210.475l-.52-.268.13-.3-.277-.695.132-.436-.58-1.854-.303-.805-.575-1.18-.874-1.357-.463-.396-.955-.401-.38-.396-.782-.39-.72-1.056-.461-.315-.784-.19-.448-.69-1.358-.98-1.031.032-.99.297-.692-.756-.35-1.161-.468-.471-.492-.672-.13-.43-.37-.287-.585-1.193.162-.508-.518-.745-.703-1.759-.403-.406-.415-.826-.92-1.098-.728-.521-1.39-1.161-1.242-.722-1.711-.821.03-.19-.065-.457.934-.977-.018-.529.221-.224.776.241.767-.315.37.124 1.721.137-.025-.73.112-.8-.092-.483-.593-.292-.248-.377-.69-.466.209-.625.458-.348-.148-.904.626-.127.429.39.25-.352.514.108.395-.413.499-.038.32-.241-.157-.403.564-.21.332-.387.621.2.517-.74-.048-.465.876.122.674-.346.107-.61-.212-.339-.45-.115.063-.7-.136-.612.443-.04.222-.388.135-.654.268-.461-.33-.305-.765-.174-.147-.42-.408-.526-.368-.141.216-.635.641-.7.295.176.461.598.22-.225.089-.608.516-.148.529-.458.449.133.793.038.276.267.324.787.215.886.177.239.765.218.582.334-.31 1.153-.555.267-.447.45-.204.416.628.345-.213.48 1.026.312.808.52.492.423.424.105.725-.12.237-.17.587.051.347-.351.356.577.366-.452.233.212.576-.787.424.159.357.413.236-.062.825.79-.039.3.495.296-.404.68.467.404-.286.635.078.438.648.47.37.003.095.711-.337.188.344 1.16.3-.153.746.862.237-.253.56.387.177.438.655-.278.458-.661.371-.061.686.505-.437.334.149.757-.185.481.303.94.445-.18.806.27-.378.908.363.012.429-.326.289.266.546-.234.058.957.16.429.345.093.503-.663.6-.015 1.275-1.214-.078-.839.211-.572.049-.665.417-.016.404.839.444.238.7-.316.345-.445.617.02.472-.39-.695-.749-.153-.419.572-.308 1.187-.16-.007-.702 1.404-.233.698-.59.68-.318.588-.09.02-.61-.37-.884.009-.273.443-.273.995.502.172-.455.443-.146 1.438.146.299-.246.009-.391.443-.21.154.373.624.182 1.103-.52.92-.884.39.5.84-.766.161-.438-.19-.372.486-.985-.038-.8 1.373.296.452.163.287-.72.659.034.245.364.633.27.626.8.47.298-.205.465-.016.51.572.763.335-.038.742.26-.052.547-.483 1.05.12.409-.316.383-1.103.242-.444-.19-1.004.359-.2-.446-.643-.034-.442.402-.535-.39-.407.019-.598-.19.028.364-.506.402.055.573-.252.429-.317.055.046.473.272.446.3.136-.17 1.03.19.254-.687.657-.58.156-.49.556.736.572.373.573.963.536.137.418-.136.32-.562.42-.453.51.519.309.555.636.309.045.691.454.076 1.238.275.546.92.717.311.655.502.253.573.035.602.471-.262.356.585.645.546.107-.498.52.019.292-.592.03-.3.21-.507.895-.573.147-.565-.089-.464.357-.328-.063-.393-.546-.502-.19-.365-.382-.419.193-.556-.163-1.03-.755-.273.083-.72-.109.183.72-.209.574-.746.82-.647.155-.337.911-.191.783.228.966.566.564.082.456.247.31.593.245.63.045-.11-.656.301-.01.914.373.722.59.969.518.484-.001.439.19.32.39.503.1.724.708.346-.147.696.344.432.736.54.007.623.535.166.3-.29.73-.4.612.208 1.393.368.6.339-.093.135-.547.32-.13 1.256.56.35.508.57.243.595.06.465 1.1.744.433.459.006.386.235.281-.44.412-.102.364-.35.512-.176.327-.403-.132-.436.264-.257.43-.013.487.261.37.49.423.15.253-.384.358.015.085.4.481.498.032.5.47.452.7.213.564-.425.39.498 1.626.467.494-.15.198.535.431.032.349.88.277.243.758.53.605.768.252 1.145.42.633-.021.574-.344.514.19.5.554.203-.075.72-.421.124.465.468-.225.431-.542.115-.626.736.575.459-.415.76-.452-.058-.883.93-.575.452-.551.16-.48-.068-.374.322.713 1.297-.356.377-.077.675.19.48-.098.348.618.96-.352.76-.904.063-.67.471.356.544-.171.43-.477.332-.435-.087-.802.134-.335.778-.68-.587-.937-.612-.736.38-.446-.344-.777-.267-.49-.006-.92.462-.432.34-.155.356.21 1.038-.574-.28-.23.148-.817-.66-.518-.107-.474-.398-.424.02-.687-.561-1.092-.65-.98-.461-1.313-.432-1.07-.188-.73.102-.432.457-1.31.004-.72.202-1.079.567-1.079.848-.313.648-.758.11-.656-.2-.342-.547.056-.364-.518-1.358-.683-1.321-.387-.602-.866-1.03-.866-.738-1.243-.858-.635-.302-.792-.156-.544.063-.386-.129-.636.044-.194.228-1.084-.887-.937-.641-.736-.267-.626.07-.72.38-.447-.94-.894-1.517-1.187-1.746-1.87-2.38-.866-.998-1.36-1.33-1.057-.854-1.278-.793-1.571-.77-.082-.018zm20.658 31.554l-.241.939-.483-.146.195-.638z"
      class="prefix__country" fill="rgba(0,102,204,1)" stroke="#FFF" stroke-width=".7" />
    <path
      d="M361.602 259.764l-.445.968-.873 1.488-.862 1.323-.985 2.23-.464 1.68-.72 1.206-.565 1.11-1.133 1.013-.485-.391-.515.057-.672-.137-.412.272-.325-.124-.92.493-.363-.397-.68.173-.707-.319-.555-.006-.515.275-.404-.002-.318.304.167.43.052 1.12-.222.328-.315.879.028.747.14.441-.194.61-.529.694-.32.733-.048.503-.331.204-.236.51.309.436.355.178-.105.715-.35-.041-.907-1.07-.922.043-.412-.176-.879.433-.521-.081-.125 1.244-1.66-.843-.598.714-.27-.191-.754.008-.58.42-.867-.024-.486-.686-.635-.398-.32-1.129.352-.705.402-.387-.106-.343-.653-.097-.066.267-.772.3-.331-.345-1.197-.325-.85.775-.242-.485-.388-.07-.274.265-.527-.603-.879.192-.697 1.189-.444.242-.232.399-.13.961-.284.283-.399-.408-.355-1.128-.895-.976-.092-.234-.548-.367-.144-.752-.383-.527-.558-.111.888-.482-.03-.364-.42-.571.435-.205.806-1.31.004-1.112-.177-.569.396-.276-.097-.39.498-.316.113-.596.487-.024.657-.613.495-.043.17-.27-.304-.446.066-.284.44-.297-.178-.295.16-.598-.412-.58-.806-.303-.62-.081-.504-.54-.056-.273-.633-.81-.023-.756.153-.534-1.155-.758-.247.217-.373-.6-.73-.671-.933-.538-.49-.825-.027-.264-.635-.291-.525-.387-.115-.443.428-.386-.453-.489.262-.308-.429-.982.037-.666-.37.11-.296-.575-.56-.03-.463-.205-.764-.618.417-.804.082-.376.69-.339.319-.61-.412-.07-.074-.29-.493.004-.713-.518-.47-.179-.817-.917-.622-.284.034-.457-.136-.57.27-.655-.243-.413.117-.504-.567-.332-.002-.446-.337-.438-.597-.413 1.248-.26-.112-.718.085-.321-.682-.119-.03-.437.554-.142.307.366.542-.225 1.22.15.466.37.353-.32-.173-.56 1.292-.62.396-.12.228-.472.184-1.035.68-.876.115-1.17-.416-.937.12-.304-.35-.3-.25-.631-.012-.428.43-.796.821-.443.548.066.312-.128.852.349.947.072 1.319-.186.138-.323.64.044.47.533.363-.258.506-.107.162-.734.565-.292.253-.482.357.162.966-.46.397.526.19-.143.6.564.479-.107.457.095.207.403.48.212.127.479.572 1.048.234-.2.992.842.011.31-.356.176.145.98-.235.454-.571.667-.893-.052.157.523 2.02.762.392.297 1.013.302.826.783.352-.277.113-.478.7-.416 1.156.378.362.507.302.664.258 1.212.317.28.05.345.382.56.403.324.279.5 1.131.67 1.025 1.284.892.44.62 1.099.398.194.489-.128.92-.783.455-.501.442-.847.78.425-.028.238.526.572.157-.033-.246-1.04.62-.106.171.577.415-.099-.335-.47.2-.336.984.39.723-.094.6.35.29-.204.43.466 1.411.808-.8.48.56.47.346.022-.03.42-.393 1.74.111.662.444.574-.426.31.157.395-.23.739-.036.512.565.551-.234.439.657.757-.477.886.489.5.708.17.963-.012.52.561.012.529.804.841.445.337z"
      class="prefix__country" fill="rgba(0,102,204,1)" stroke="#FFF" stroke-width=".7" />
    <path
      d="M282.56 246.177l-.098-.381-1.014-.088-.387-.414-.51.034-.36.214.22 1.227-.193.24-1.052-.134.166-1.715-.107-1.129-.368-1.308-.343-.835-.72-1.368-.547-.768-1.624-1.915-.603-1.908-.482-.997-.995-1.485-.47-.834-.637-.832-1.51-1.454.336-.778.802-.134.435.087.477-.333.171-.43-.356-.543.67-.47.904-.064.352-.76-.618-.96.098-.347-.19-.481.077-.675.356-.377-.713-1.297.374-.322.48.068.55-.16.576-.453.883-.93.452.06.796.355-.007 1.075.37.06.713 1.167.523-.206.801-.037.225.325.498-.015-.301-.498.113-.502-.843-1.165.512-1.018.803-1.322.766.938.398.122.047-.575 1.074-.232.314.114.736-.001.227.461.81-.057.792.736.652.492.423-.034 1.695.63.329-.16.44.458.802.032.655.673.317.742.632.336.339-.143.842.214.425-.5.579.446-.022.356.512.264.718-.578.15-.34.555-.402.215.169.295-.525.807-.18.514.374.823-.308.518-.356.167-.888.543-.475.446.173.553.49.54.299.7-.06.464-.666.758-.29 1.028-.177.307-.261.694-.262.23-.433.482-.248.477.345.26.932.423.355.537.134.3.248.663-.052.15.48-.338.135-.135.532.353.52-.486.121-.64.616.086.554.21.269.126.699.807.163.367.31.518.07-.098.55.282.184.01.429.4.154.947-.169.962.414.129.38.418-.284.342.028.843.817.128.334-.965.207.101.708.375.574-.115.203-.847.496-.501.678.055.737.73.319.938 1.261.716.483.647-.417.684.32.398.007.464.37.426-.32.384-.549.912.513.552.56.934-.053.324.319 1.17.45.39.053.25.631.352.3-.121.304.416.936-.115 1.17-.68.877-.184 1.035-.228.472-.396.12-1.292.62.173.56-.353.32-.465-.37-1.221-.15-.542.225-.307-.366-.554.142.03.437.682.119-.085.321.112.717-1.248.261.597.413.337.438.002.446.567.332-.117.504.244.413-.271.655.136.57-.034.457.622.284.816.917.47.179.714.518.493-.004.074.29.412.07-.319.61-.69.339-.082.376-.417.804.764.618.462.206.561.03.296.575.37-.111-.037.666.43.982-.263.308.453.489-.428.386.115.443.525.387.635.291.026.264.491.825.932.538.731.671.373.6.247-.217 1.155.758-.153.534.023.756.633.81.056.272.503.541.621.081.806.303.412.58-.16.598.178.295-.44.297-.066.284.304.447-.17.27-.495.042-.657.613-.487.024-.113.596-.498.316.097.39-.396.276.177.569-.004 1.113-.806 1.31-.436.204.422.57.03.365-.89.482-.56-.494.157-.433-.947-.255-.84-.113-1.197.208-.798.396-.325.465-.201.543-.7.193-.818 1.08-.36.62-1.12-.37-.694.09-.438-.225-.788-.991-.707.319-.61.034.41-.476-.293-1.214-.41-.6-.696-.393-.938-1.08-.86-.188-.987-1.235-.404-.41-.438-.235-.953.16-.555.377-.372-.256-.507-.043-.346-.366-.393-.757-.624-.633-.65-.105-.297-.312-.5-.117-.476.065-.487-.418-.084-.408.767-.527.284-.307.095-.786-.04-.537-.205-.388.173-.678.698-.18.262-.424.42-.074.162-.268.05-.657-.206-.889-.455-1.093-1.243-2.17-.993-2.312-.717-1.26-.731-1.06-1.099-1.282-.968-.892-.903-.456-.308.006-.966.602-.622 1.097-.381.062-1.213-.589-.502.11-.336.462-.232.04-.652.595-1.096.21-.276.242-1-.748-.429.043-.405.29-.438-.012-.406.262-.54.1-.31.415-1.603.7-.803.512-.123-.718.877-1.818.377.259.381-.051.629-.356.233-.533.625-.547.26-.634 1.227-.74-.043-.318-.426-1.041-.57-.71-.976.106-.525-.265-.946-1.034-.092.038v.01l.01.017-.816-1.09-.48-.44-1.238-.738-.343.041-.265.34-.778.185-.146.166.019.036-.455.708.04.264-.553.317zm-8.301 1.917l.15.154.896.3.474-.05.897.355.31 1.072-.724.236-.48.36-.393-.141-.828.054-.222.12-.657-.513.286-.267-.082-.801.166-.148zm11.362 7.548l.18.189-.393.58-.236-.189-.417.198-.93.204-.003-.875.39-.106.843.226zm-7.045-7.448l-.319.55-.216-.17.218-.476z"
      class="prefix__country" fill="rgba(0,102,204,1)" stroke="#FFF" stroke-width=".7" />
    <path
      d="M393.995 248.477l.492.456.134.55.835.91-.24.872.24.626.668.555.315.12.147.447.868.626.566.58.406.232.902.222.491.41.509.052.61.53.8.538.338.5.598.604.8.546.03.345.361.399.83.562.557.533.745 1.005.72.577.403.14.266.368.03.49.276.057.317.903.496.883-.154.402.194.718.484.537.053.407.446.831.277-.08.43.42-.274.428.434.63-.969 1.23-.193 1.299-.221.241-.888.575-.066.935-.416.281-.216.634-.246 1.704-.113 1.103.302.63-.25 2.252.129.585-.542.882-.227-.15-.437.281-.368-.152-.234-.433-.35-.006-.362-.372-1.217-.612-.609.09-1.119-.08-.452-.312-1.16-.471-.946-.85-1.338-.79-.28-.441-.623-.348-.56-.735-.038-.336-.509-.492-.578-.908.318-.036.323-.456-.006-.775-.485-.758-.644-.247.518-.495.25-.753-.055-.8-.756-1.254-.7-.235-.164-.42-.616-.431-.598-.798-.075-.324.143-.656-.89-1.156-.366-.692-.871-.665-.477.218-.682-.31-1.756-.216-.388.112-.385-.172-1.524-.093-1.194.126-1.18.198-2.497.319-.488-.569-1.09-.219-.203-.327-.723-.22-.73.036-.477-.168-.143-.258-.964-.363-.275-.26-.42.056-.43-.189-.527-.44-.43-.007-.358-.42-1.037-.353-.304-.286-.56.044.136-.508.602-.129.721-.764-.296-.734-.806-.619-1.114-.03-.604-.93-1.009-.381-.46-.07-1.192.11-1.497.587-.682.414-1.04.803-1.014.957-.57.645-.956 1.483-.472-.098-.445-.337-.804-.841-.013-.529-.52-.561-.962.013-.708-.171-.489-.5.477-.886-.657-.757.234-.439-.565-.55.035-.513.23-.74-.156-.394.426-.31-.444-.574-.111-.661.394-1.74.029-.421-.346-.023-.56-.469.8-.48-1.412-.808-.429-.466-.29.203-.6-.349-.723.093-.983-.39-.201.337.335.47-.415.099-.172-.577-.62.107.247 1.039-.157.033-.526-.572.028-.238-.78-.425-.442.847-.455.5-.92.784-.489.128-.399-.194-.619-1.098-.892-.441-1.025-1.284-1.131-.67-.28-.5-.402-.323-.383-.56-.05-.345-.316-.28-.258-1.213-.302-.664-.362-.507-1.155-.378-.7.416-.114.478-.352.277-.826-.783-1.013-.302-.391-.297-2.021-.762-.157-.523.893.052.57-.667.236-.454-.145-.98.356-.176-.01-.31-.993-.842-.234.2-.572-1.048-.127-.479-.48-.212-.207-.403-.457-.095-.478.107-.602-.564-.19.143-.396-.525-.966.46-.357-.163-.253.482-.565.292-.162.734-.506.107-.363.258-.47-.533-.64-.044-.138.323-1.319.186-.947-.072-.852-.349-.312.128-.548-.066-.82.443-.431.796.012.428-.39-.053-1.171-.45-.324-.32-.934.054-.552-.56-.912-.513-.384.548-.426.322-.464-.371-.398-.008-.684-.32-.647.418-.716-.483-.938-1.261-.73-.32-.055-.736.5-.678.848-.496.115-.203-.375-.574-.1-.708.964-.207-.128-.334-.843-.817-.342-.028-.418.284-.13-.38-.96-.414-.947.169-.401-.154-.01-.429-.282-.184.098-.55-.518-.07-.367-.31-.807-.163-.127-.699-.209-.269-.086-.554.64-.616.486-.12-.353-.521.135-.532.337-.135-.15-.48-.661.052-.3-.248-.538-.134-.422-.355-.26-.932-.478-.345-.807-.72-.398-.51-.619-.097-.235-.232.018-.884.275-.89.04-.73-.116-.653-.35-.448.387-.392.191-.469.941.198.09.336.484.253.504-.03-.019-.437.558-.122.075-.721.601-.187.577-.47.303-.006.143-.532.296-.308.482-.185.262-.525-.64-.322-.542-.798.19-.488-.368-.465.086-.622.396-.3.014-.958-.475-.736.08-.494.555-.514.17-.533.251-.233-.232-.915.161-.906.863.143 1.136.09 2.421-.097 1.228.096.79.508.817.078 1.889-.17 1.883-.37 2.778-.682.55.02.861.376.413.051 1.807-.137 1.585-.222 3.365-.573 1.776-.469.686-.278.344.17 1.087-.018.795.228.117.215.725.603 1.007.275.271.692.419.195.05 1.147.25.593.438.485-.122.169.1.716-.1.815-.169.407-.488.21-.156.488-.452.207-.19.344-.992.463-.402.58-.453.17-.227.6-1.414 1.06-.67.269-.375.34-.948.497-1.126.975-.192.882-.011.766.16.988.197.687.44 1.052.795 1.241 1.045.95.734.459 1.037.42 2.475 1.219.251.064.999.594 1.11.343 1.232.922.527.273.772.172 1.915.585.823.525 1.01.345.176.24.759.517 2.292.722.385.387.781.342.33.388 1.286.468.983.06 1.038.505 2.44.61.379.403.53.297.542.113.33-.087.366.34.387-.053.73.415 1.113.225.948.497.7.115.38.21 1.42.238 1.39.63.08.133 1.371.776.967.256.767.73.068.244 1.008.335.186.201.847.443 1.052.835.84.853.498.87 1.04.387.899.869.512.385.753.382.478.633 1.26.63 1.313.554 2.198.562 1.401.448 1.222.565.742.636 2.421 1.349 1.342.32 1.508.127.478-.127.176.474.439.34-.245.47.873.098zm-74.506-52.98l-.19-.305.413-.54.147.379z"
      class="prefix__country" fill="rgba(0,102,204,1)" stroke="#FFF" stroke-width=".7" />
    <path
      d="M355.555 270.782l-.642.847-.405.682-.017.976-.122.699.233.419.176 1.096.258.802.316.343-.65 1.43-.625.837-.49.476-.695 1.022-.561 1.08-.62 1.064-.257 1.378.05.573.408.987.903.621-.045 1.726.124.506.327.379.71.5 1.285.633.725.153 1.69-.114 1.416.132.583-.334.693.28.26.336.921.71.307.752.516.544.735.56 1.035.467 1.27.838 1.087.362 1.329.224.435 1.029.278.462 1.043.81 1.07.553.767.147.364.284-.502.854-.05.54-.477 1.427-.116.58.09.698-.145.8.203.885.51.734.68.716-.15.655-.524 1.247-.312 1.31.037.992.256.39.513.158-.12.307.164.64.374.448.805.482.688.205-.692.917-.31.936.091.534.265.352-.615.54-.523.7-1.042.831-.338-.276-1.061-.189-.508.187-.233.366-.354-.212-.403-.684-.597-.302-.791.063-2.203.589-1.938.749-1.17.615-2 1.36-.806.662-1.034.7-.65.28-1.369 2.171.046.436-.705 1.068-.21.537.034.363.334.425.26.044.133.432-.03.95.167 1.288.237.638.235 1.55.006 1.13.156 1.015.115.214.155 1.954-.298.978-.41.61-1.526 1.855-.854.836-1.056.633-.468.127-1.658.784-.479.1-.586.322-.324.35-.464.773-.392.37-.425.79-1.694 2.304-.624.925-.653.661-.243.51-.058 1.105-.378 2.182.055.472-.775 1.94-.557.986-.937 1.226-.48.117-.882.048-.63.276-1.304-.102-1.059-.348-1.352.171-1.067.308-1.095.016-1.178.173-.554-.338-.407.012-.661-.399-.441-.478-.588-.192-1-1.392-.41-1.035.606-.501.077-.321-.287-.557.022-.547-.453-.278-.146-1.008.508-.488.2-.763-.031-.718-.453-.616-.011-.373-.259-.585-.014-1.13.086-.348 1.033-.35.233-.262 1.014-.313.494.049.583-.182 1.322-.934.67-.814.346-.931-.054-.5.112-.705.731-.962.185-.845.384-.95.545-.984.333-1.014.204-1.137.317-1.186-.064-.48-.844-.538-.276-.511-.796-.54-.668-.771-.559-.356.252-.865.347-.558.692-.56.392-.03.592-.394 1.246-.332.325-.302.364-.614.42-.36.478-.007.875-.221 1.256.267.94.277.431-.27.262.082.554-.339.375-.523.647-.406.44-1.1.41-1.401.16-1.383-.092-2.294-.149-.687-.573-.253-1.33-.82-.718-1.68-.512-.446-.4-.551-.233-.63-.33-1.576-.317-1.147-.303-.773-.148-.97-.076-1.402-.459-3.951-.163-.323-.33-1.602-.255-.52-.488-1.498-.664-1.682-.606-.828-.46-.404-.428-.925-.627-.9-.676-.407-.623-.217-.24-.385-.751-2.465-.219-.34-.408-1.536-.437-.36-.285-1.25-.044-.791-.457-1.636-.306-1.623-.27-.183.044-1.023.296-.173.022-.511-.393-1.11-.713-1.126.283-.283.13-.961.233-.4.444-.241.697-1.19.879-.191.527.603.274-.264.388.07.242.484.85-.775 1.197.325.331.345.772-.3.066-.267.653.097.106.343-.402.387-.353.705.321 1.13.635.397.486.686.868.025.579-.421.754-.008.27.19.597-.713 1.66.843.126-1.244.521.081.88-.433.411.176.922-.043.907 1.07.35.041.105-.715-.355-.178-.309-.435.236-.51.331-.205.047-.503.321-.733.53-.695.193-.609-.14-.441-.028-.747.315-.879.222-.327-.052-1.12-.167-.431.318-.304.404.002.515-.275.555.006.708.319.679-.173.363.397.92-.493.325.124.412-.272.672.137.515-.057z"
      class="prefix__country" fill="rgba(0,102,204,1)" stroke="#FFF" stroke-width=".7" />
    <path
      d="M327.721 342.954l.637-.01.279.293-1.187.345-.808.406-.458.87-.262 1.32.555-.199-.762 1.06-.797 1.563-.087.322-.696 1.76-.481.787-1.042 1.186-.07.303-1 1.32-1.605 2.348-.107.349-1.147 1.423-.25.49.016.582-.346.128-.498.659-.092.604-.509.604-1.062 1.812-.2.552.41.864.037.318-.554 1.234-.156 1.16-.56.57.015 1.43.134.706-.327.19-.213.47-.318.144-.154.496-.807.474.037.327-.314.336-.603 1.334.066 1.146.186 1.717.012 1.748.25 1.505.42.373.854.153.7.657.3-.162.705.401.292-.462.608.877.539.396.18.551-.873.313-.34-.246-.486.503.144.306-.348.592.145.697.453.48-.004.647.234.368.394.045.01.8.522.497.794.372.575-.17.424.117.193 1.015-.264.425-.427.175-.202.533.27.63.307.084.412-.411.37.218.166.396.52.715-.073.23-.58-.058-.355-.42-1.088.502-.033.638-.203.497-.901.132-.297.316-.355-.027-.14.322-.511.367-.538.933-.445.293-.46 1.33-.027.538-.285.025-.466.685-.164.55.163.66-.109.403-.357.282.145.324-.105.558.448 1.036.41.672-.002.738.17.533.447.508-.211.669-.626-.194-.267.433-.659.516-.344-.356-.437-.117-.162-.615-.306-.42-.909-.517-.522.039-.712.389-.494-.053-1.185-.966-.737-.348-.553-.052-.816.144-.71.506-.483-.018-.388.336-.46.146-.34-.258-.454.01-.442-.383-.828.016-.303.142-.516-.154-.597-.808-.726-.368-.262-.323-.99-.264-.578-.318-.988-.192-.758.086-.467-.265-.699.048-.475-.701-.649-.545.054-.301-.499-1.64-.254-.541-1.666-2.74-.632-.846-1.14-1.285-.936-.942-1.605-1.06-.443-.094-.968-.505-1.273-.52-1.81-.415-.874-.144-.998.185-1.287-.131-.578.052-1.22.486-.472-.095-.401.122-.866-.237-.592-.377-.111-.372-.525-.586-.434-.27-1.765-.056-.471-.115-.89-.857-.44-.042-.513-.424-.689-.35-.832-1.295-.855-.568-.552-.578-.57-.379-.788-.76-.43.185-.784-.35-.899.132-.53-.27-.361.029-.824-.47-.63-.916-.49-.17-.353-.381-.764-.498-.91-.197-.775-.916-.801-.17-.384-1.028-.597-.572-.676-1-.645-.226-.265-.546-.556-.481-.752-.2-.419.184-.351-.191-1.24-.317-.711.055-.458.31-.488.036-.312-.155-.039-.519-.712-1.083-.993-1.01-1.16-.384-.38.127-1.421-.348-1.432.025-1.403.115-1.19.379-1.609.34-.834-.94-.455-.667-.367-.748-.114-.529-.834-.76-.215.127-.358-.356-.486-.112-.536.17-.98-.624-.22-.475-.668-.632-.038-1.685-.309-.448-.151-.584-.347-.557-.53-.505.478-.47.486-.006.323-.545-.026-.482.58-1.272-.105-.31-.473-.395-.22-.638.284-.345.705-1.298.207-.572-.083-.73.331-.353.09-.4.3-.171-.016-.474 1.09-1.16.138-.455.552-.28.348.175.648.021 1.066-.533.515-.563-.172-.501.465-.28.453.338.668-.107.485-.609.36-.627-.558-1.004-.086-.446.32-.355.356.457.822-.162.172.42-.06.692.29.019.347.61-.021.884 1.089 1.751.367.32.657.301.242-.027.086.565.648.484.581-.045 1.375-.327.89-.382 1.19-.702.387-.364.387-.037.773-.61-.3-1.248-.465-.72.425-.136.492-.574-.077-.62.743-.656.502-.028.483.309.715-.038-.01.455.358.136.628-.037.782-.275.511-.357.317-.484.86-.13.586-.584.666-.258.29.473-.056.31.62.48.386.035.185.29.285 1.102-.295 1.094.582.653.591.316 1.172.204.918-.123.964-.406.104-.437.815.477.158.582-.002 1.303.828.778.912.44.643.552.66.259.7.405 1.202.127.208.509.698.094.34.189 1.578-.205.772-.308.339.006 1.851-.847 1.5-.944.638-.153.398.115.773-.146.414-.223.368.032.927.69.64-.016.689.165.59-.09.595-.363.71.292.309-.095 1.467.38.9.034.367-.142.467.194.707-.029.884-.432 1.037.094.635-.274.9-.68.376-.042.285.25.91.022 1.705-.475.697-.595.746.05 1.054-.528.408.047 1.22-.933.54-.593 1.68-2.183.46.329.69.159 1.767-.51.402-.208.435.045.576-.194.756-.781.716.485.852.975.282.103 1.065.04.934-.13.346.328.058.446.783.41.435-.029 1.076-.681.623-.225.514-.33 1.213-1.37.378-.72.385-1.221-.122-.626.11-.604.417.819-.083.548-.247.553.13.188.692.238.753-.01 1.034-.337.779-.148 1.394-.574 1.456-.796 1.986-1.777.688-.22.496.131.797.552zm-109.355 56.927l.376-.205.427.532.646.453.206.949-.217.962-.637.548-.552.049-.541-.125-.322-.276-.288-.713-.48-.206-.384-.86-.527-.461.018-.673.252-.461.545-.285.49.115.35.395zm89.388-65.992l.056 1.22.49.39-.672.096.005.665.18.306-.278.49-.644-.843-.59-.133-.405-.53.11-1.159.252-.36zm-2.913-2.325l.22.842-.147.35.09.6-.44.1-.77-.477-.842-.301-.206-.215.31-.863 1.154.122zm3.034 6.523l.651.25.373.337.278.787-.397.355-.483-.071-.473-.473-.36-.138-.327-.922.445-.347zM234.371 449.64l.66.167 1.293.17.332-.198.85.294-.21.308.227.637-1.043-.077-.95-.613-.981-.196-.6-.203zm-6.246-93.273l.257.604.28.156.379-.142.955.699-.15.472-.455-.058-.403-.476-.62-.05-.67.176-.387-.112-.218-.657zm86.943-32.3l-.582-.304-.219-.305.697-.874.238-.079.647.258-.432 1.077zm-94.311 30.776l.024.483.476.761.102.502-.84-.282-.324-.504-.349-.915.176-.162zm75.729-22.17l-.931.043-.513-.747.178-.304.914.139.148.726zm-41.93-5.67l.422.271-.421.512-.374.164-.623-.062.2-.711.613-.339zM228.9 353.74l.524 1.234-.64.059-.296-.54zm3.485 4.814l-.127.1.16.748.015.82-.225.19-.366-1.852zm12.8 77.835l.11.782-.66-.02-.348-.509.37-.28zm44.277-102.527l-.31-.15-.046-.519.266-.223.52.157-.21.695zm21.073-4.037l-.05-.491.338-.372.242.121-.092.577z"
      class="prefix__country" fill="rgba(0,102,204,1)" stroke="#FFF" stroke-width=".7" />
    <path
      d="M111.295 311.249l-.105-.188-.068-1.09-.169-.419.265-.314-.195-.476.311-.486.376-.071.374.52.681-.064.5-.249.155.51.709.51.04.696.147.309.413-.417.354-.575-.26-.351-.192-.73-.296-.371-.551.154-.24-.523.164-.43-.008-.575-.532-.611-.367.465-.224-1.581-.21.025-.482-.453-.134-.728 1.065-.894.318-.431.437-.178.386-.847-.242-1.026-.252-.295-.036-.413-.566-.084-.227-.577-.05-.514-.268-.141.343-.94.516-.421.262-.48.046-.891-.529-.247-.254-.414.16-.713.514-.384.99-1.345.508-.86.148-.676.322-.559-.02-.357.245-.526-.14-.6-.375-.265-.045-.422.173-.986.166-.284-.413-.44.256-.553.138-.687-.237-.167.106-.962-.116-.7.24-.434.26.068.311.773.715 1.204.2-.419.514-.622-.222-.285.56-.601.473-.962.356-1.661-.027-.978-.346-.245.16-.558-.352-.51-.704-.446-1.146.088-.922 1.066-.191-.502-.577-.523-.343-.127.176-1.579-.048-.897-.157-.436.513-.631.185-.84-.186-.429-.835-.043.255-.561 1.039.108.353-.274.602.003 1.098-1.058-.048-1.471-.369-.512-.299-.781.086-.763-.156-.254.392-.874-.132-.554.365-1.086.383-1.632-.513-.61.01-.575-.592-.158-.292-.516-.354-.228-.859-.063-.283-.872.302-.222.383-1.431.015-1.022-.31-.9-.279-1.475-.97-.762-.33-.83-.332-1.158.163-.439-.288-.562-.568-.395-1.22.483-.07.425-1.329-.126.103-.35.494-.503.066-.362-.229-.44-.603-.07-.26.67-.62.761-.303-.098-.022-.969-.117-.426.106-.405.491-.11.709-.327.112-.697.474-.832-.01-.348-.805-.28-.137-.564-.572-.643-.404-.277.05-.235.507-.401.444-.633.076-.553-.191-.421.476-.367.622-1.007.014-.273.728-1.247.194-.684-.101-.534-.752-.534-.023-.448-.38-.34.021-.236.674-1.132.782.663.32.099-.268.487.143.811-.106.24.424.763 1.128 1.355.705.567 1.518.325 1.31.022.996.735 1.064.118 1.563-.177 1.163-.38.842-.479.536-.503.235-.627.758-.474.757-.283.466-.424.785.11.202-.154 1.027.085.662-.233.821-.682.556-.576 1.125-1.426.253-1.275.37.045.403-.31.276.04.393-.283 1.43-1.486.46-.755.675-.8.843-.419.455.376.814.036.695-.234.35-.395-.072-.25.976-.094.464-.464.08-.352-.331-.26-.098-.525.197-.283.234-.93-.183-.263-.359.176-.283-.286.19-.347.73.241.333-.232.752-.077.54-.306.276.021.017.484.666.201.577.572-.01.473-.354.724.197.136.298-.936.41.6-.01.456.847-.129.247-.364.724-.08.165.947 1.024.296.49.01-.052.39-.405.395.608.07-.041.345.365.589-.089 1.063.932-.838-.022-.612.45-.165.694.246.162-.586.324-.015.165.517.37.489-.216.329.151.389.473-.256.235.392-.25.976-.304.18-.317-.414-.32.598.056.468-.291.344.086.396-.398.942.434.044-.047-.458.381-.022.623-.286.037.485-.38.697.745.174.592-.67.31.103.39.498.604.223.394-.13.216.418-.347.36-.458-.153-.719-.62-.754.555-.091.452.303.313-.77.964.164.572-.349.142-.683-.1-.434-.308-.63.203.096.633.663-.084.5-.19.49.037.357.616.442.117.658-.705.906.117-.83 1.054.42.207.217.4.465-.01-.15.524.434.335.502-.237.24.52.645.179-.19.376-.598-.196-.247.392.285.604-.47.146-.175.432.047.494.385.643.477.438.322.112-.11.488.049 1.178.227.4.643.508.15.516-.08.662-.24.42v.757l.275.42.011.712.365.497.59.459.265 1.186.733.409.068.194-.258 1.194-.866 2.021-.277.155-.295.646-.048.572-.588.973-.355-.022-.731.548-1.061 1.1-.511.638-.355.717-.69.895-.27.93.1 1.088-.117.634.203 1.093.281.257.466 1.349 1.092 1.463.81.468.137.643-.212.138-.228.822-.473.593-.181.568-.016.675-.418.623-.042 1.375.359.497.39-.104.07.412-.672.322-.32.517-.078 1.32.408.708-.355.416-.354 1.136-.24 1.368.153.981-.082 1.174.062.385-.518.71.128.37-.385.67-.16.504.217 1.777-.089 1.356-.184.367.03.448-.373.36-.225.94-.026.7.298.14-.063.417.102.825-.199.73-.278.328-.748 1.704-.238.757-.137.88.177 1.073.686.473-.488.337-.654.696-.483.93-.202.557-.246 1.933.393.189-.25.537-.222 1.095-.21.265-.536.035-.639.74-.136.543-.338-.36.206-.393-.181-.5-.536-.194-.951.19-.412.285-.15-.289-.74-.586-.465-.055.092-.38-.656-.737-.758-.341-.19-.491-.534-.45-.466-.02-.14-.298-1.524-.218-.262-.33-.403-.163-.604.093-.906.472-.458.692.124.452-.549-.097-.629-.875-.386-.327-.418-.027-1.062.756-.72.789-.601.858-.352 1.06.19.648-.03.664.823 1.25-.177.54-.523.815-.028.628-.4.62-.47.053-.2.392-1.605 1.46-.733.56-.37.548-.655.316-.834.646-.651.006-.361-.673-.392-.22-.363.184-.367-.327-.01-.411-.537-.171-.898-.618-1.141.456-.361.339-.538.037.081.506-1.049-.078-.325.184-.434-.121.044-.509.343-.357.203-.83-.295-.798-.694-.29-.638-1.39.07-.463.258-.188.029-.582-.27-.524-.618-.068-.48-.516-.83-.206-.964.188.032.312-.473.834-.136.613-.013.83-.338.43.109.306-.449.36-.505.157-.3-.289-.486-1.713-.246-.24zm3.018-79.837l.538.347.149.355-.423.279.102.36-.283.807-.284-.243-1.093-.386-.5.686-.497.466-.088.598.386.595-.258.671-.658-.2-.692-.073.165-.666.257-.114.238-.462-.313-.208.197-.574.609-.104.342-.338.35-.639.503-.055-.04-.486-.262-.46.131-.213.711.047.303-.121zm-4.388 74.08l-.107.762.102.425-.115.742.042.65-.176.438-.715.172-.965-.525.166-.247-.039-.705-.884-.604.358-.62.78-.131.468-.395zm36.453-78.568l.183.965.264.102-.334.734-.605-.142-.434.237-.572-.032-.186-.664.131-.277 1.04-.579.055-.663zm1.072.7l.358.287-.138 1.408-.422.366-.496-.074-.056-.458.501-1.22zm7.171 12.637l.236.401-.916.432-.565.462-.551-.175zm-10.758-13.083l.46.293-.439.556-.358-.27.027-.455zm10.572 14.882l.346.204-.304.436-.538-.284.088-.39zm-8.77-12.32l-.325-.45.458-.346.237.538zm-.652-4.713l.107.333-.59.432-.119-.26zm-.787 1.181l-.536-.213.335-.287z"
      class="prefix__country" fill="rgba(0,102,204,1)" stroke="#FFF" stroke-width=".7" />
    <path
      d="M235.192 20.612l-1.148.436-.762.955-.688.004.14.78-.664.112-.54-.456-.62.05-.284.414-.578.04-.59-.43-.444.187-.07.298-1.261.423-.004-.552-.314-.066-.284-.5-.696-.007-.842-.696-.176-.264-.995-.635-.006 1.403-.108.587-.516.574.105.544-.158.45-.405.53-.823 1.34-.275-.483-.57.02-.445.204-.106.37-.315.06-.576-.207-.72.39-.895.17-.609.336-.07-.49-.377-.43-.474.437-.088.28-.42.174-.819.152-.735-.354-.55.381-.778.233-.773-.138.27.728-.61.398.09.282-.285.747.031.725-.457.944-.032.407-.251.231-.804.169-.154 1.066-.31.203-.514-.407-1.3-.33.063.3-.386.166-.293.647-.91.337-.428.011-.24.566-.296.285-.093.442.409 1.004-.25.131-.783-.177-.06-.418-.381-.215-.282-.458-.538.47.122.31-.284.547-.408-.098-1.114 1.065-1.147.476-.602-.248-.234-.267.21-.621.245-.321-.628-.185-.603-1.018.515-.098.43-.598.685-1.345-.303-.668.627-1.472-.217-1.091.352-.564-.134-.519.216-.186-.296-1.373-.551-.5-.23.376-.767.491-.548.134-.472-.617-.575-.175-.163-1.135-.77.553-.135.36.323.803.315 1.212-.062.505-.496-.327-.334.092-.31-.577-.601-.575-.463-.273-.656.049-.215.447-.496.107-.148.513-.554.367-.51-.048-.31-.225-.524.531-1.304-.312-.307.01-.264-.387-.296-.74-.336-.543-.52.023-.716.706-.925.538-.408-.047-.815.224-.45-.085-.54-.811-.617-.198-.645-.706-1.38-.237-.404.106-.687-.671-.106-.764.232-.4.292-.083.093-.894.244-.491.043-.932.139-.412-.685-.717-.433-.31-.932.199-.232-.197-.187-.567-.142-1.244.436-.684.334-.127.078-.332-.433-.565.911-.743.248-.373-.072-.446-.406-.59.143-.286.497-.176.27-.553.005-.489.308-.688.316-.434.48.439.742.056.63-.109-.011.407.52-.113.7-.542.725-.243.535-.04.644-.381.088.201.66.325-.095.396.764.59.85.22.194.34-.483.711-.523.25.109.373.666.126.873-.35.642.75.278.06.338-.29.832.644.345.108.631-.175.242-.212.773-.036.785.135.512.202.546-.169.198.23.377-.923.13-.558 1.167-.663-.282-1.073.54-1.138.278-.337-.163-.682.38-.327.171-.557.64.14.774-.635-.148-.212.708-.754.353.08 1.023-.025.574-.405 1.253-.175.283-.239.376.215.602-.134.579.671.526.308.611-.134.478-.272.297-.591.424-.102.348-.609.806.249.654.798.867-.33.266-.312.765-.341.466-.065.222.383.737.39 1.24.01.412.775.521.16.52-.327.404-.546.86.102.567-.119.65-.58.874-.377.58-.527 1.395-.3.308-.349.935.128.398-.122.12-.297.39-.131.53.069.606-.618.75.07.39-.222.649-.039.678-.382 1.025.362.375.563-.627.357-.013.506-.31.657-.913.218-.573-.096-.724.671.405.908-.142.722.166.282.53.24.257.491-.352.657.097.426.827.134.256.681.385.546.45-.231.112-.307.795.052.24.563.43.293-.079.316.442.872-.632.727.267.473-.325.423.082.317.66-.058 1.117.307.225.499.472 1.614.944.82.76.485.806.05z"
      class="prefix__country" fill="rgba(0,102,204,1)" stroke="#FFF" stroke-width=".7" />
    <path
      d="M191.132 52.406l-.39-.2-.908.15-.386-.39-.686.237-.424-.247-.66.237-.244-.196-.707.38-.565-.096-.189.956-1.286.148-1.018.689-.686-.074-.17-.394.359-.852-.378-.328-.562.093-.153-.376.113-.377-.064-1.072-.29-.435.123-.667.349-.199.012-.752-.429-.33-.194-.721.192-.412-.077-.329-.505-.032-.373-.192.13-1.211.803-.802-.107-.783.266-.636.717-.488.675-.87.28-.825-.029-.826.45-.776-.27-.515-.341-.326.267-.69.476-.504-.005-.463.5-.485-.241-1.175-.41-.292.545-.583-.378-.554.03-.515-1.3-.797.103-.342.485.06.252-.465.548-.42 1.076-.034.637-.871-.282-.605.098-1.139.45.085.815-.224.408.047.925-.538.716-.706.52-.023.336.543.296.74.264.387.307-.01 1.304.312.524-.53.31.224.51.048.554-.367.148-.513.496-.107.215-.447.656-.049.463.273.6.575.311.577.334-.092.496.327.062-.505-.315-1.212-.323-.803.136-.36.77-.553.162 1.135.575.175.472.617.548-.134.768-.491.229-.376.551.5.296 1.373-.216.186.134.52-.352.563.217 1.09-.627 1.473.303.668-.685 1.345-.43.598-.515.098.603 1.018.628.185-.245.32-.21.622.234.267.602.248 1.147-.476 1.114-1.065.408.098.284-.547-.122-.31.538-.47.282.458.38.215.061.418.783.177.25-.131-.409-1.004.093-.442.296-.285.24-.566.427-.01.91-.338.294-.647.386-.165-.063-.3 1.3.33.514.406.31-.203.154-1.066.804-.169.25-.231.033-.407.457-.944-.03-.725.283-.747-.09-.282.611-.398-.27-.728.773.138.778-.233.55-.381.735.354.82-.152.419-.175.088-.28.474-.437.377.43.07.49-.353.322-.07.85 1.614.23.337.32.04.86-.507.33-.51-.043-.342.72.142.21-.318.865-.753.841-.322-.113-.474.356.133.256.61.343.003.371.772.328.117.852-.29.676.35.584.616-.046.601-.283.016.789.219.283.496-.039.303.357-.41.702.255.139.528.857.608-.038-.005.462-.345.232-.04.425-.519-.205-.013.353-.27.431.091.228-.553.482-.222.587-1.967.482-.166.215-1.112-.06-.355.294-.21-.365-.908.068-.358.475-.566.01.09.908.465.433.063.354-.61.063-.449.22.167.347-.187.46.61 1.096-.469.927-1.22.127.09-.334h-1.15l-.26-1.445-.275.022-.741-.302-.586.154-.695.006-.211.305-.414.11-.577.625-1.245.015-.589-.174-.162.423.202 1.173-.6-.047-.013.697-.355.166.008.454-.56-.328-.32-.414-.23.367-1.142-.022-.2 1.03-.286.547-.145.795-.568.451.009.436-.434.209-.335.383-.053.461.161.566-.161.323-.435-.2.17.911-.157.532-.03.607-.983.896-.01.48-1.242.037-.494-.319-.461-.59-.406.445-.372.055-.53-.23-.278.511-.8.626-.452-.173-.39.417-.667-.587.192-.467-.771-.58-1.22-.157.323-.89.2-.067.084-.67.541-.64-.31-.397.31-1.09z"
      class="prefix__country" fill="rgba(0,102,204,1)" stroke="#FFF" stroke-width=".7" />);</g>
</svg>