<svg id="Layer_1" data-name="Layer 1" xmlns="http://www.w3.org/2000/svg" viewBox="0 0 334.82 446.99"><defs><style>.cls-1{stroke:#fff;stroke-miterlimit:10;stroke-width:1.5px;}</style></defs><title>italy.min</title><path class="cls-1" d="M130.25,82.18l-.07.68.25.11a8,8,0,0,1,2.72-.21,4.89,4.89,0,0,0,1.41,1l.14.74.89.12c.27-.17,1.37-1.15,1.72-1a2.32,2.32,0,0,1,1.24-.36l.32-.39-.12-.5L139,82a2.59,2.59,0,0,0,1.58-.71c1,.39,2.28-.12,3.3.13l1-.45a8.29,8.29,0,0,0,2.3.4l.45.3.75,0,.66.49a2.32,2.32,0,0,0,.7,1.15l.43-.11.3-.43a1.65,1.65,0,0,0,.67.64l.47-.06.37.16a2.74,2.74,0,0,1,.85-.74l.68,0,.37.63-.35.53.11,1.58.47.57.88.14.19.24c-.12.9.83,1.65,1.44,2.13-.48,0-1.23-.72-1.54-1,0-.35-.58-.77-.84-1l-.66,0-.71,1,.36.59a7,7,0,0,0-.63,5.35,7.41,7.41,0,0,0,.66,1.59,10.06,10.06,0,0,1,.17,2.19,13.45,13.45,0,0,0,.89,6.15,17,17,0,0,0,.66,3.12,14,14,0,0,0,1.13,3.75,17,17,0,0,1,1.26,1.76c1.13,1.16,2.27,3,3.59,4l.4-.08c1.17,1.49,2.75,4.09,4.81,4.24l.14.26c-.36.67-1.13,1.76-.59,2.53l-.34.59.32.41-.29.34a3.71,3.71,0,0,0-1.14.31l0,1-.38.17-.64-.13-.59.22a1.85,1.85,0,0,1-.57-1.63l-.49-.8-.55.14-.07.41-.56.22-.32-.49.35-.47-.31-.37h-.29a1.45,1.45,0,0,0-.75-.67l.61-1a1.58,1.58,0,0,1,0-1.66l-.17-.25a5,5,0,0,0-2,1.32l-.92.21.3.86-.18.32a4,4,0,0,1,.32,1.85l-.55,0-.39-.36a2.45,2.45,0,0,0-1.08.57,3.79,3.79,0,0,1-.34,1.65l-.46.33-.09.38-.85.41c.18.23,0,.89-.05,1.14l-.75.16-.35.37-.44-.33-.52.09-.41,1a5,5,0,0,1-.84-1.18,3,3,0,0,1-1.13.49l-.41-.16-.88.48-.35-.11-.31-.53a2.9,2.9,0,0,1-1.28-.38l-.56.17-.91-.55-.17-.58-.78-.12-.24-.73-.36.19-1.12-.33-.4.3c-.39-.12-1.3-1.24-1.56-1.54a4.71,4.71,0,0,1-2-1.24l.2-1.64a2.13,2.13,0,0,1-.94-.65l.29-.57-.1-.23-1-.66-.21-.52.5-.6-.19-.46.71-.15c.47-.54.38-1.17.78-1.74.28-.25.87-.83.87-1.24l.24-.19.12-.66-.24-.17a4.13,4.13,0,0,1-1.82.12l-.11.34-.57.4a3.51,3.51,0,0,0-1.22-.66l-.68.26.1-.44.26,0a1.81,1.81,0,0,1,.58-.81l-.06-.45c-.51-.21-1.23-.07-1.73-.3l-.22.48a3.27,3.27,0,0,1-1.76-1.22l-.34-.09-.54-.54.11-.81-.67-.56h-.22a3.56,3.56,0,0,0-1.06,1.33l-1-.25-.5.41-.07.49-1.17,1-.25-.15a2.48,2.48,0,0,0-1.59.31l-.5,0v.3a5,5,0,0,0,1.76,1.09l.09.45-.44.25-.54-.2-.38.13c-.42-.27-1.14-.25-1.52-.55a4.29,4.29,0,0,0-1.82.65,2.51,2.51,0,0,1-2.5-.68l.08-.41.28-.14v-.45l-.52,0-.07.26-.71.58,0,.41c-.21.27-.73,1-1.12,1l-.25.47-.53-.14.12-.75-.65-.5h-.83l-.14-.45-.36-.29-.3.17c-.41-.58-1.4-.73-1.58-1.49-.37-.42-1.39-.1-1.82-.34l-.89.13-.55-.25-.23.52-.28.19v.8l-.85.17c-.3-.8-1.6-1.32-2-2l.1-.3a2.75,2.75,0,0,0-.88-.85l-.13-.31.23-.48-.75-.56-1,.12-.44-.34-.17-.53-1-.79a3.07,3.07,0,0,1-2-.68l-1.19.61a2.43,2.43,0,0,1-.65-1.1l-1.64-1.33-.17-.56-.5-.38a2,2,0,0,0-1.19.26,9,9,0,0,1-1.23-1.08,4.59,4.59,0,0,1-1.71-1.26l.52-1-.15-.45-.55-.09-.25-.29v-.46l-1.32-.35-.36.16-.24-.19c-.69.2-1.73-.2-2.32.31-.55,1.08-1.73,2.05-2.4,3.1l-.42-.16-.85.63-.32,0a7.73,7.73,0,0,0-.48-1.82l-.52-.11-1-.91-.57.09-.5-.19-.23.37a4.65,4.65,0,0,0-1.57.11l-.44.54-.34-.59-.64.27-.09-.44.18-.36.37-.16A3.13,3.13,0,0,1,76.38,99l.74-.33a7.28,7.28,0,0,1,.29-1.8L77,96.21l.09-.51c-.44-.44-1.4-.18-1.82-.67l0-.7-.42-.21-.46.27-.25.51-.41-.32-.7.2a7.64,7.64,0,0,1-1-1.17l-.79.43-.72-.24.31-.33-.28-.38-1.18.19-.05-1.36.23-.42-.13-1a1.49,1.49,0,0,0,1.1,0l-.21-.52.11-.56a2.83,2.83,0,0,1,.56,1.38l.7-.16.41.21.24-.27.49,0-.42-.62.14-.44.29-.16.28-.51-1.23-1,0-.49.83-.41.14-.59h.25l.8-.55a15.16,15.16,0,0,1-.37-2.12l-.4-.12L73,83.2l-.4.12-.45-.25.08-.31-.16-.5a2,2,0,0,0,.09-1.19l.74-.07a2.22,2.22,0,0,1,.67-1.07l-.06-.32.38-.89.51-.23.28-.61-.16-.16.21-.68-.14-.25c.3-.46,1-.79,1.2-1.31l.61.09.12-.45a4.37,4.37,0,0,0,1.7-.31l.79,1,.36-.23.17-.39c-.13-.27-.42-.89-.31-1.19l.31-.25a2.2,2.2,0,0,1,.5,1l.9.15a1.81,1.81,0,0,0,.5-1.09l.52.35a3,3,0,0,1-.23,1.26l.3.43a1.51,1.51,0,0,1,.91.14l.13.25.81.51a1.5,1.5,0,0,0,1.13-1L84.78,75l.35-.24c.23.09.46.69.55.9l.83.4a1.49,1.49,0,0,1,.14,1l.29,0,.25-.69a1.14,1.14,0,0,1,0-.85l.27-.1.48.19.5.71.39-.22.13-.54-.56-.68.07-.59.94-.42.28.28-.34,1.2c.68,0,1.24-.92,1.76-1.22l.39.17a8,8,0,0,0,.93,1.36l-.23.68.22.4.37.16.34.84.69-.17,0,.55.23.33.35.08c.3-.13,1.3-.46,1.43-.8a3.19,3.19,0,0,0,1,.65l.47-.22c.46.26,1.56.87,1.68,1.44l.69-.07.23.5c.56.14.94.79,1.51.86a2,2,0,0,1,1.12-.67c.45.22.48,1.35.82,1.66a4.79,4.79,0,0,1,2.2,1.19,3.08,3.08,0,0,0,3.58-1.27l.39-.78a1.29,1.29,0,0,0,.63-.67l.41.83a1.77,1.77,0,0,1,.63-1l.37.23c.12.34.32,1.07.11,1.41a13.86,13.86,0,0,1,3.58,1.31A4.61,4.61,0,0,1,117,83l.25-.43.46,0,.74-.71a8.39,8.39,0,0,1,1.78.21l.38-.5a2.89,2.89,0,0,1,2,1.13c.16-.22,1.23-.15,1.46-.17a2.78,2.78,0,0,1,1.07-.23l.14-.21.55.31a2.41,2.41,0,0,1,1-.69l.32.16.43-.09.75.43.58-.29A3.06,3.06,0,0,0,130.25,82.18Zm21.28,44.1-.18.27a3.33,3.33,0,0,0-1.33-.08l.44,1.18.4,0a1.56,1.56,0,0,1,1-.46l0-.52Z"/></svg>