<svg id="Layer_1" data-name="Layer 1" xmlns="http://www.w3.org/2000/svg" viewBox="0 0 334.82 446.99"><defs><style>.cls-1{stroke:#fff;stroke-miterlimit:10;stroke-width:1.5px;}</style></defs><title>lazio</title><path class="cls-1" d="M151.39,206.06l-.52-.27.13-.3-.28-.7.14-.43c-.58-1.87-1.28-4.26-2.8-5.59-.35-.13-1.15-.45-1.33-.8-.6-.12-1.24-.95-1.51-1.45A2.71,2.71,0,0,0,144,196c-.18-.57-1.34-1.36-1.81-1.67a5.56,5.56,0,0,0-2,.33,3.47,3.47,0,0,1-1-1.92,3.55,3.55,0,0,1-1.09-1.57c-.37-.11-.8-1.18-1-1.48l.16-.51a10,10,0,0,1-1.22-2.5,3.49,3.49,0,0,1-.82-1.24,15.76,15.76,0,0,0-6-4.32,2.05,2.05,0,0,0,0-.65l.94-1,0-.53.22-.23.78.24.76-.31a10.86,10.86,0,0,0,2.09.26c-.1-.6.18-1.43,0-2l-.59-.29c-.1-.31-.68-.69-.94-.85l.21-.62.45-.35-.14-.9.62-.13.43.39.25-.35.52.1.39-.41.5,0,.32-.24-.16-.4a1.51,1.51,0,0,0,.9-.6l.62.2.52-.74-.05-.46.87.12.68-.35.11-.61-.22-.34-.45-.11a3,3,0,0,0-.07-1.31l.44,0c.31-.4.3-1.11.63-1.51-.17-.29-.8-.43-1.1-.47a2.52,2.52,0,0,0-.55-.95l-.37-.14a2.8,2.8,0,0,1,.86-1.34c.24.07.61.59.75.78l.22-.23.09-.61a2,2,0,0,0,1.05-.6,4,4,0,0,0,1.24.17c.64.46.56,1.61,1,2.18a4.32,4.32,0,0,1,1.35.55l-.31,1.15a2,2,0,0,0-1.21,1.14l.63.34-.21.48a5.15,5.15,0,0,1,1.83.83,1.37,1.37,0,0,0,1.88.24l.59,0,.34-.35.36.58.37-.45.23.21.57-.79a1.38,1.38,0,0,1,.79.57l.23-.06.83.79,0,.3.49.3-.4.68.47.4-.29.64.08.43.65.47h.37l.09.71-.34.19.35,1.16.3-.16.74.87.24-.26.56.39.18.44.65-.28.46-.66.37-.06.69.5-.44.34.15.75-.19.48.31.94.44-.18.81.27-.38.91h.36l.43-.32.29.26.55-.23a3.82,3.82,0,0,0,.22,1.39l.34.09.5-.66.6,0,1.28-1.21c-.19-.68.18-1.42.18-2.08h.42l.4.83.45.24a1.9,1.9,0,0,0,1-.76l.62,0,.47-.39c-.22-.23-.83-.83-.85-1.17a3.94,3.94,0,0,1,1.76-.46v-.71l1.41-.23a3.21,3.21,0,0,1,2-1c.18-.54-.38-1.25-.34-1.76l.45-.28,1,.5.17-.45c.3-.24,1.54,0,1.88,0l.3-.25v-.39l.44-.21.16.38.62.18a5.51,5.51,0,0,0,2-1.41l.39.5c.25-.22,1-.82,1-1.2l-.19-.37a2.66,2.66,0,0,0,.44-1.79,14.83,14.83,0,0,1,1.83.46l.29-.72.66,0,.24.36c.74.12,1.1,1.09,1.73,1.37a1.82,1.82,0,0,0-.22,1l.57.77c.24-.12.85.14,1.08.22a4.06,4.06,0,0,1-.54,1.59l.12.41-.31.39-1.11.24-.44-.19-1,.36-.2-.45-.65,0-.44.4-.53-.39a2.2,2.2,0,0,1-1-.17l0,.36-.51.4.06.58-.25.43-.32.05a1.47,1.47,0,0,0,.32.92l.3.14-.17,1,.19.25c-.27.3-.84.82-1.27.81l-.49.56a3.45,3.45,0,0,1,1.11,1.14l1,.54.14.42-.14.32a4.7,4.7,0,0,0-1,.93,3.22,3.22,0,0,1,1.07.94c.25-.05.81.38,1,.5a3.73,3.73,0,0,0,.35,1.79c.4.26,1.14.87,1.23,1.37a2,2,0,0,0,1.08.29l.6.47-.26.35.58.65.55.11-.5.52,0,.29-.59,0c-.29.07-.67.87-.81,1.1a1.93,1.93,0,0,1-1.14.06l-.46.36-.33-.07-.39-.54a1.67,1.67,0,0,1-.87-.57l-.42.19a4.29,4.29,0,0,1-1.58-.92c-.19.14-.79,0-1,0l.19.72a3.45,3.45,0,0,1-1,1.39l-.65.15a3.5,3.5,0,0,0-.3,2.66l.57.57c0,.82.89,1.07,1.55,1.05l-.11-.65c1.06,0,2,1.12,2.91,1.47a1.23,1.23,0,0,1,1.24.58l.5.1.73.71.34-.15.7.34.43.74h.54c.19.15.73.58.79.83a5.16,5.16,0,0,1-.69,1.34,4.24,4.24,0,0,0,.58,2l.34-.1.13-.54.32-.13,1.26.56.35.5a2.75,2.75,0,0,0,1.16.31l.47,1.1c.26.17.86.54,1.2.44l.39.23.28-.44c.49,0,.78-.56,1.29-.63l.32-.4-.13-.44.26-.25a1.29,1.29,0,0,1,1.29.74l.42.15.26-.39.36,0,.08.4.48.49,0,.5a2,2,0,0,0,1.17.67l.57-.43.39.5,1.62.47.5-.15.2.53.43,0a2.56,2.56,0,0,0,1.38,1.65l.61.77a3.79,3.79,0,0,0,.67,1.78l0,.57-.35.51.19.5.56.21-.08.72-.42.12.47.47-.23.43-.54.11-.63.74.58.46-.42.76-.45-.06c-.62.63-1.46,1.81-2.49,1.48l-.37.32.71,1.29-.36.38a1.72,1.72,0,0,0,.12,1.16l-.1.34.62,1-.35.76-.91.07-.67.47.36.54-.17.43-.48.33a2.75,2.75,0,0,0-1.24,0l-.33.78a11.32,11.32,0,0,0-1.62-1.2l-.74.38a2.47,2.47,0,0,0-1.71-.62c-.46.26-1.38.57-1.51,1.16l.21,1-.57-.28-.23.15-.82-.66a1.62,1.62,0,0,1-1-.51l-.42,0c-1.56-1.26-3.82-2.48-5.87-2.19l-.44.46a4.65,4.65,0,0,0-4.5,2.27,2.26,2.26,0,0,1-1.41-.09l-.34-.55c-.24-2.56-2.34-5-4.51-6.27a2.91,2.91,0,0,0-2-.39,1.87,1.87,0,0,0-1-.09l-.2.23c-1.11-.88-2.66-2.53-4.1-1.35C159.76,212.93,156.35,207.89,151.39,206.06Zm20.66,31.55-.24.94-.48-.15.19-.63Z"/></svg>