<svg id="Layer_1" data-name="Layer 1" xmlns="http://www.w3.org/2000/svg" viewBox="0 0 334.82 446.99"><defs><style>.cls-1{stroke:#fff;stroke-miterlimit:10;stroke-width:1.5px;}</style></defs><title>liguria</title><path class="cls-1" d="M49.14,104.09l0,.19a2.4,2.4,0,0,0-1.31,1.12l.43.56a3.45,3.45,0,0,1-1,1.12,1.55,1.55,0,0,0-.05,1.36l-.65.41c-.86,0-2.15.86-3,1-.28.17-.81.57-.88.92a4.29,4.29,0,0,0-1.15,3.14A5.3,5.3,0,0,0,39.54,116v.58l.32.49-.89.34-.43.78a2.83,2.83,0,0,0-1.4.76v.31l-.4.3c-.48,0-1.21.07-1.45.57l-1.3.39-.11.29a2.87,2.87,0,0,1-1.23.23l-.39.26a2.45,2.45,0,0,0-2.19.68l-.67-.31a3.53,3.53,0,0,0-2,1l-.66-.26-1.13.9a15.18,15.18,0,0,0-2.83-.79l-.41.45-.71-.22c-.31-.76-.39-2.08-.79-2.81.13-1,1.21-1.3,2-1.6l0-.61.37-.71-.13-.32.62-.42c.44.17,1.43-.4,1.81-.59a1.82,1.82,0,0,1,.56-.92l-.16-1.13c.43-.21,1.39-.7,1.51-1.22l.37.07.37-.64-.5-1.07.14-.62a3.47,3.47,0,0,1,1.13-.71c.28-.07,1.19.63,1.41.76.46.24,1.34.15,1.76.48l.09.34,1.17-.15.27.42a1.5,1.5,0,0,0,1-.45l.89.46.32-.3-.22-.6-.74-.34c.06-.3.65-.65.89-.8l.52.09.37.46.67,0a2.61,2.61,0,0,1,.81-1.14L38,107.55l-.36-.12-.23-.45.47-.92-.45-.46.49-.3.25-.48-.39-.58h-.27l-.08-.49.33-.4.83.45a1.94,1.94,0,0,0,.2-1.21l.75.06.44-.85-.16-.51.26-.26v-.37a4.39,4.39,0,0,0,1.52-.7,2.08,2.08,0,0,1,.55-.92l-.37-.73.11-.28-.38-.36.07-.5.59-.14a2.51,2.51,0,0,1,.21-1.23l.82-.51.46.86.9.21.41.57.8.18.19.78a2.82,2.82,0,0,1,1-.54l.32-1.09.41-.15.18.32.63.33.12-.46.51-.47.18.47a4.73,4.73,0,0,0,1.55,0l.68.44.45-.23L52,96l.47-.15.17-.37h.3l.2-.34-.42-.4.11-.43a2.78,2.78,0,0,1,1.83-.47l.39.31A2.08,2.08,0,0,1,56.08,94a7,7,0,0,1,1.3,2.93l-.21.48.43.19.41-.43V96.3l.33-.47.5-.13.11-.89,1.32,0,.24.4a1.62,1.62,0,0,0,1-.53,5.73,5.73,0,0,1-.38-2.08l-.51-.44,0-.29.7-.27.59-1,.86,0,.34.5A2.61,2.61,0,0,0,64.21,91l.28.61.24.16a3,3,0,0,0,.5,1l.61-.08.76.69-.08.53.27.46c.22.11.81.4,1.06.31l.88-.63.43,0,.17-.24,0-.55,1.18-.19.28.38-.31.33.72.24.79-.43a8.8,8.8,0,0,0,1,1.17l.7-.2.41.32.25-.51.46-.27.42.21,0,.69c.42.5,1.38.24,1.82.68l-.09.51.43.62a7.2,7.2,0,0,0-.29,1.8l-.74.33a3.13,3.13,0,0,0-.38,1.19l-.37.16-.18.36.09.44.64-.27.34.59.44-.55a4.89,4.89,0,0,1,1.57-.1l.23-.37.5.19.57-.1,1,.92.52.11a8.31,8.31,0,0,1,.48,1.81,6,6,0,0,1,.85,0,3.82,3.82,0,0,1,.58,1.48,1.25,1.25,0,0,1,.78.41l.15.5a6.54,6.54,0,0,1,1.11.92l.25-.13,1,.63a2,2,0,0,1,.1,1.42l.49.41-.53,1.14.47,0,.64-.54.83.59-1,1,.15.17.61-.21.22.14,1.06-.09.34.34a2.19,2.19,0,0,0,.56,2.08l.45-.44.77.18.62.68-.11.45c-.32.3-1.24,1.12-1.35,1.57l-.49-.28-.43.19-.23.39-.36-.08c-.43-.59-1.49-1.08-1.67-1.81l-.56,0c-.36-.24-.59-.85-.86-1.14l-.49.13-.29.4c-.07.38.46,1.06.67,1.34l-.41.41a2,2,0,0,0-1-.61,8.39,8.39,0,0,1-1.11-1l-.47-.07-.33-.78c-.59-.31-1.22-1.09-1.83-1.33l-.41,0-.21.39-.69-.91,0-.39-1.1-.64,0-.33a1.8,1.8,0,0,0-1.09-.69l-.74-.6-.14-.48-.41-.24-.33.23-.79-.35-.17-.42-.42-.27-.39.16c-.08-1.28-1.69-2.1-2.63-2.7-.5-.37-1.46-.6-1.86-1.07l-.57.51a2.62,2.62,0,0,0,.07,1.39,9.51,9.51,0,0,0-1.7-.74l-.17-.34.2-.88-.38-.53c-1.16-.6-3.09-.88-4.26-1.38a2.82,2.82,0,0,1-1.41-.23l-.17-.69-.32.05.09.54-.79-.38c-.32.19-1.46-.28-1.77-.37l.27-.22,0-.12c-.46,0-1.7.17-2.06-.21a2.94,2.94,0,0,0-2.15,1.22l-1.06.18a2.43,2.43,0,0,1-1.83,1l-.19.34a4.15,4.15,0,0,0-1.2.62A1.42,1.42,0,0,0,49.14,104.09Zm37,12.15-.37-.52.54-.14Z"/></svg>