<svg id="Layer_1" data-name="Layer 1" xmlns="http://www.w3.org/2000/svg" viewBox="0 0 334.82 446.99"><defs><style>.cls-1{stroke:#fff;stroke-miterlimit:10;stroke-width:1.5px;}</style></defs><title>lombardia</title><path class="cls-1" d="M105.52,21l.11.77.69.67c.27-.21,1.47.09,1.78.13.25.34.81.89,1.26.9l.54.82c-.07.44-.15,1.37.19,1.74l-.64.87-1.08,0a2.15,2.15,0,0,0-.8.89l-.48-.06-.11.34,1.3.8,0,.51.38.56-.54.58.41.29.24,1.18-.5.48V33a2.51,2.51,0,0,0-.74,1.19,2.22,2.22,0,0,1,.61.84l-.45.78a3,3,0,0,1-1.64,3l-.27.63.11.78-.8.81-.13,1.21a1.55,1.55,0,0,0,.87.22l.08.33-.19.41.19.72.43.33V45l-.35.19-.12.67.29.44a3.92,3.92,0,0,1-.05,1.45l.15.37.56-.09.38.33-.36.85.17.39.69.08a3.47,3.47,0,0,1,2.3-.84l.19-1,.57.1.7-.38.25.2.66-.24.42.25.69-.24.38.39.91-.15.39.2a55.86,55.86,0,0,1-5.82,8.41,45.9,45.9,0,0,0,.43,7.45l.3-.45,1.27.38.17.49a3.05,3.05,0,0,1-.56,1.18l.38.31a1.23,1.23,0,0,1-.78.49l0,.44.44,0,.31.29,0,.4.46.31a1.69,1.69,0,0,1-.09.94l.24.16,1.26-1a5.14,5.14,0,0,1,1.66,2.3l.75.17.2.23h.48l.1.38.89.18-.18.57.43.49a2.1,2.1,0,0,1,1.17.39l.19.39-.12,1.37.43.07.5-.4c.14.22.45.7.4,1l-.42.42a2.64,2.64,0,0,0,1.73,1.08l0-.39.29-.11.58.24.32-.78,1.37.56-.33.48,0,.33.28.24-.35.31,0,.49a2.29,2.29,0,0,1,1.73.74l.51-.4.35.39-.2.39.32.63,1,.31c.3.76,2.32,1.58,3,1.89l.06.46a3.06,3.06,0,0,1-1.32-.32l-.58.29-.75-.43-.43.09-.32-.16a2.34,2.34,0,0,0-1,.69l-.55-.31-.14.21a2.78,2.78,0,0,0-1.07.23c-.23,0-1.3,0-1.46.17a2.89,2.89,0,0,0-2-1.13l-.38.5a8.47,8.47,0,0,0-1.78-.21l-.75.71-.45,0L117,83a4.61,4.61,0,0,0-1.77.14,13.86,13.86,0,0,0-3.58-1.31c.21-.34,0-1.07-.11-1.41l-.37-.23a1.77,1.77,0,0,0-.63,1l-.41-.83a1.29,1.29,0,0,1-.63.67l-.39.78a3.06,3.06,0,0,1-3.58,1.27,4.79,4.79,0,0,0-2.2-1.19c-.34-.31-.37-1.44-.82-1.66a2,2,0,0,0-1.12.67c-.57-.07-1-.72-1.51-.86l-.23-.5-.69.07c-.12-.57-1.23-1.18-1.68-1.44l-.47.22a3.19,3.19,0,0,1-1-.65c-.12.33-1.14.67-1.43.8l-.35-.08-.23-.33,0-.55-.69.17-.34-.84-.37-.16-.22-.4.23-.68a8,8,0,0,1-.93-1.36l-.39-.17c-.52.3-1.08,1.22-1.76,1.22l.34-1.2-.28-.28-.94.42-.07.59.56.67-.13.54-.39.23L88,75.6l-.48-.19-.27.1a1.14,1.14,0,0,0,0,.85l-.25.69-.29,0a1.49,1.49,0,0,0-.14-1l-.83-.4c-.09-.21-.32-.81-.55-.9l-.35.24.19.74a1.5,1.5,0,0,1-1.13,1L83,76.23,82.9,76a1.51,1.51,0,0,0-.91-.14l-.3-.43a3,3,0,0,0,.23-1.26l-.52-.35a1.78,1.78,0,0,1-.5,1.09l-.9-.15a2.2,2.2,0,0,0-.5-1l-.31.25c-.11.3.18.93.31,1.19l-.17.39L79,75.8l-.79-1a4.56,4.56,0,0,1-1.7.31l-.12.45-.61-.09c-.17.52-.9.85-1.2,1.31l.14.25-.21.68.16.16-.28.61-.51.23-.38.89.06.32A2.15,2.15,0,0,0,72.86,81l-.74.07A2,2,0,0,1,72,82.26l.16.5-.08.31.45.25.4-.12.13.28.4.12a14.91,14.91,0,0,0,.37,2.12l-.8.55h-.25l-.14.59-.83.41,0,.49,1.23,1-.28.51-.29.16-.14.44.42.62-.49,0L72,90.8l-.41-.21-.7.16a2.8,2.8,0,0,0-.56-1.38l-.11.56.21.52a1.49,1.49,0,0,1-1.1,0l.25-.63-.12-.74A2,2,0,0,0,69.81,88a2.35,2.35,0,0,1-1.11-.79l.1-.93-.49-.53-1.25.09-.36-.53-.38.15-.78-1.27.56-.72-.35-.9-.34.15-.35-.16L64.75,82l-.28-.1a4.23,4.23,0,0,0-1-1.6l.27-.9c-.14-.24-.47-.78-.76-.85l-.65.17-.6-1a3.83,3.83,0,0,0,0-1.65c-.3-.27-1.66,0-2,.07l-.32.33-.4,0,.09.39-.28.23L58.44,77l-.1.6-.75-.09.11-.42L56.93,77l-.2-.52-.37.38a3.49,3.49,0,0,0-1.33.06l0-.44-.47-.26.36-.54-.25-.44a1.33,1.33,0,0,0,0-.86l-.7-.78L54.1,73l-.58-.5-.2-.66-.73-.33L52.36,71l0-.34,1-1-.57.09L52,69.19l0-.3.44-.11.18-.42-.36-1,.13-.36-.61.06.1-.41-.46-.25.29-.58.84-.41-.27-.89.67-.45.75.33.22-.17a1.68,1.68,0,0,1,1.13.13l.06.45.62.51.24,1.31a2.36,2.36,0,0,0,1.35-.35l.33-1.14.43.05.05-.31.53-.36c-.35-.09-.91-.85-1.12-1.12.29.09.92.24,1.2,0l.06-.4.75.41a2.25,2.25,0,0,1,1.36-.51c-.44-.84-.56-2-1.33-2.67l.08-.64a1.94,1.94,0,0,1-.79-.74L58,58.61l-.37-.69.19-.42A3,3,0,0,1,57.47,56l-.29-.35.32-.39,0-.41-.29-.17L57,54.14l-.6-.23.07-.33.65-.29-.46-.85.3-.24a2.35,2.35,0,0,0-1.06-.39c-.08-.23.33-1,.42-1.17l-.19-.54a4.24,4.24,0,0,1-1.38-.4c-.11-.73-1-1.53-1-2.26l.34-.72.5-.23.4-.74a7.92,7.92,0,0,0-.58-2.36c.8-1.7,3.79-3.29,4.51-5-.28-.56-.27-1.46-.52-2a3.18,3.18,0,0,1,1.06-1.49l.35.73.69.4.85-.08a2.9,2.9,0,0,0,.94.87l0,.54-.29.49-.37,0-.1.53a2.83,2.83,0,0,0-1,1l.08.5.95.2.93,1.1.69.11a1.61,1.61,0,0,1-.06,1.08l.78,1-.08.42.25.4,0,.87-.55.68.09.37.83-.33.52.46.47-.21.27.15-.13.46a1.91,1.91,0,0,0,1,.11l.31-1,.25-.21.15-.78.67-.46v-1c-.21-.11-.84-.37-.9-.64l-.59-.09a2.37,2.37,0,0,1-.1-1.21l-.66-.51a2.72,2.72,0,0,0,1-.73l0-.91-.33-.43.23-.82.9-.48.64,0,.47-1-.42-1.15,1.33-.52.43-.71a1.5,1.5,0,0,0,.69-.63l.59,0,.29-.33a2.82,2.82,0,0,1,.24-1.06l.5-.29.1-.55.66-.06a3.21,3.21,0,0,1,1.13-2.43l-.07-.48.53-.64-.19-.46.19-.21-.08-.45-.37-.13-.11-.6.23-.44-.21-.35.15-.67-.79-.75,0-.59.68-.28a4.08,4.08,0,0,1,.33-1.59,5.69,5.69,0,0,1,2.21-.34,2.86,2.86,0,0,0,.6,1.34l.61.27.31-.36,0-.49.27-.32.4,0a3.12,3.12,0,0,1,.32,1.23l-.16.18a5.07,5.07,0,0,1-.16,1.6,2.44,2.44,0,0,1,.21,1.81l.77.37a18.21,18.21,0,0,0,1.06,2.18,3.55,3.55,0,0,1,1.2.63l.72,0,.22.28.43.06L84.57,29l.36.36.7.05a3,3,0,0,0,.29-1.8l.57-.41c.17.19.59.66.87.67.51-.41,1.45-.65,2-1.07l.51.1,1-.66.45.57.25-.31.52-.17.3.62.82.51-.43,1.07.34.34a2,2,0,0,0,.06,1.2,2.71,2.71,0,0,1,1.49.81l.12.57-.36.61.59.59.65-.42.75.21.61-.24c0-.29.59-.73.8-.91l0-.4a1.91,1.91,0,0,1-.42-1,3.43,3.43,0,0,0-1-.95l-.3-.73.11-.68.57-.35v-.64a2.1,2.1,0,0,1,1-.48l-.06-1L97.3,25l-.12-.34-.37-.15a2.57,2.57,0,0,1-1.32.36L95,24.63l-.13-.52-.43-.21.37-.65a2.92,2.92,0,0,1-.11-1.83l.17-.2,0-.59-.21-.19,1.1-1.13L95.71,19l.55-.27a1.89,1.89,0,0,1,0-1.05l.75.2,1.62-.73.54.33a2,2,0,0,1,.76-.64,1.78,1.78,0,0,0,.47.95l-.44.69,0,.53.27.27.4-.22a2.08,2.08,0,0,1,.68.76l0,.31.8,0,.29.33.71-.44.9.47.57-.26A2.61,2.61,0,0,0,105.52,21ZM65.41,41.33,65,41.19l.28-.74.26,0Z"/></svg>