<svg id="Layer_1" data-name="Layer 1" xmlns="http://www.w3.org/2000/svg" viewBox="0 0 334.82 446.99"><defs><style>.cls-1{stroke:#fff;stroke-miterlimit:10;stroke-width:1.5px;}</style></defs><title>marche</title><path class="cls-1" d="M198.71,161.47a7.39,7.39,0,0,0-1.73.42,2.08,2.08,0,0,0-1.56.68c-.69.42-1.93.26-2.6.69l.13.23-.32.8c-.58.23-1.11.75-1.78.76l-.32-.51a4,4,0,0,1-1.48.63l-.47-.15-.32-.48-.26,0-.14.82a3.28,3.28,0,0,0-.75.94l.06.92-.43.51h-1a2.86,2.86,0,0,0-.69,1.07l-1.08.74a4.24,4.24,0,0,1-1.35-.56,2.44,2.44,0,0,0-1.26-1.07l-.24-.36-.66,0-.29.72a14.83,14.83,0,0,0-1.83-.46l.27-.55-.13-.41.63-.5.8,0a5.26,5.26,0,0,1,.53-1.38,6.35,6.35,0,0,1-.46-1.58l-.47-.17a2.85,2.85,0,0,1-2,.85l-.17-.1c-.24-.7-.93-1.44-1.19-2.11a3.93,3.93,0,0,1-1.67-1.18,3.11,3.11,0,0,1-1.41.94l-.34.94-.4.05a2.89,2.89,0,0,0-.22-1.19l.24-1-.77-.17,0-.44a7.11,7.11,0,0,1-1.47-.89l.34-.78a3.66,3.66,0,0,1-.54-1.06l.51-.89-.41-.47a5.89,5.89,0,0,1,.15-1.76l-.35-.24-.09-.83a1.67,1.67,0,0,0-1.08,0l-.32-.7,0-.27.6-.31a2.56,2.56,0,0,0,.25-2.14l-.33,0-.39-.29a5.68,5.68,0,0,1-.33-1.88l-.52-.17-.47-.53.29-.24a2.22,2.22,0,0,0-.73-2.29l-.09-.37-.29-.18a2.54,2.54,0,0,1-.35-1l.77-.44.15-.47-.38-.46v-.75l.28-.19-.25-.36-.88-.15a2.37,2.37,0,0,0-.74,1.48,5.42,5.42,0,0,1-1.28-.45l-.74.22-.32.4c-.37-.6-1.23-1-1.69-1.52l-1.11-1.4a1.83,1.83,0,0,0-1.2-1.22l-.35.38h-.3l-.66-.81-.43.13-.53.83-.89-.81-.47.47-.47-.07-.55-.76.2-.39h.68a6.09,6.09,0,0,1,.81-1.19l-.33-.42.28-.62a4,4,0,0,0-1.61.34l-.22.51-.49-.23a2.6,2.6,0,0,1-1.74,0,3.72,3.72,0,0,1-.42-1l-.62-.59,0-.25.48-.35.45,0a6,6,0,0,0,1.2-1.11l.29.15.66-.38.25-.46.41.13-.14.65.49-.13-.09-1,.41-.11.34.31.31-.5c-.24-.25-1.07-1-1.13-1.39a3.21,3.21,0,0,1-1.2-.55c.06-.25.23-.91.05-1.14l.85-.41.09-.38.46-.33a3.79,3.79,0,0,0,.34-1.65,2.45,2.45,0,0,1,1.08-.57l.39.36.54,0a2.12,2.12,0,0,0-.06-1l.72-.22.21.36,1,0,.19-.74a1.46,1.46,0,0,1,.74.67h.29l.31.37-.35.47.32.49.56-.22.07-.41.55-.14.49.8a1.85,1.85,0,0,0,.57,1.63l.59-.22.64.13.38-.17,0-1a3.79,3.79,0,0,1,1.14-.31l.29-.34-.32-.41.34-.59c-.54-.77.23-1.86.59-2.53l-.14-.26c1.38-.21,3.09,1.48,4.32,1.76a35.56,35.56,0,0,0,2.81,2.71c1.08.38,2.48,2.15,3.31,2.92a32,32,0,0,1,2.53,2.27c1.23,1,2.79,2.37,4.32,2.82a6.18,6.18,0,0,0,3,1.41l.91-.68c.43,0,1.18,1.07,1.42,1.35a1.25,1.25,0,0,0,.39.84,3.51,3.51,0,0,1,1.28.64c-.52,1.64.78,3.37,1.3,4.85a34.74,34.74,0,0,0,1.5,4.1c.66.62,1.06,2.42,1.54,3.17a54.53,54.53,0,0,0,1.92,5.28A27.86,27.86,0,0,0,198.71,161.47ZM157.2,134.73v-.58l-.37-.09-.26.26Z"/></svg>