<svg id="Layer_1" data-name="Layer 1" xmlns="http://www.w3.org/2000/svg" viewBox="0 0 334.82 446.99"><defs><style>.cls-1{stroke:#fff;stroke-miterlimit:10;stroke-width:1.5px;}</style></defs><title>molise</title><path class="cls-1" d="M233.86,198.15a3,3,0,0,0,.07,1.82c-.23.11-.37.55-.42.77l-.56.51-.08.5.48.73,0,1-.39.3-.09.62.37.47-.19.49a2.3,2.3,0,0,0,1.18,1.12L234,207a1.15,1.15,0,0,0-.92,1h-.31a2.41,2.41,0,0,1-1.17.66l-.08.72-.56.12,0,.44-.5,0-.49-.25-.09-.34-.94-.2a1.81,1.81,0,0,1-.58.86c1,1,0,2.45.14,3.61l.23.23.62.1a7.81,7.81,0,0,0,1.21,1.23l-.49.25-.23.43a2.66,2.66,0,0,0-1,.52,6.78,6.78,0,0,0-1.78.47l-.47.66-.7.06c-.52-.19-1-.83-1.54-1l-.54.48-.17.89a4.53,4.53,0,0,1-1.34.66l-.51-.37-.81.18-.29.52-.22-.17-.55.4c0,.31-.66.75-.87.92l-.51-.26,0-.36-.58-.44-.42.5-.85-.22-.34.14-.63-.33a3.23,3.23,0,0,0-1-1.42l-.8,0-.44-.46-.33.16c-.31-.09-1.81-.77-2.12-.59a14,14,0,0,1-1.44-1.23l-.81.06-.23-.46a2.64,2.64,0,0,1-1-.12l-1.07.23,0,.58-.4-.12-.76-.94a21.57,21.57,0,0,0-1.32,2.34l.84,1.16-.11.51.3.49-.5,0-.22-.33a3,3,0,0,0-1.33.25l-.71-1.17-.37-.06V217l-.8-.36.42-.76-.58-.46.63-.74.54-.11.23-.43-.47-.47.42-.12.08-.72-.56-.21-.19-.5.35-.51,0-.57a3.79,3.79,0,0,1-.67-1.78,4.59,4.59,0,0,0-1.37-1.3l.44-.31a2.88,2.88,0,0,1,1.79.5l.22-.78.75,0v-.65l.46-.73.53-.08.44.79.43.08.14-.38-.24-.41.17-.35.37.11.69-.16.32-.72.26.62.44,0,.21-.73-.22-.25-.53,0c-.19-.1-.29-1.17-.33-1.36l-.51-.67.23-.48a13.24,13.24,0,0,1,1.75-.57l.27-.82.55-.3.18-.35.38-.17.36-.54.68.59.62-.07a2.38,2.38,0,0,0,1,1.37l.07-.56.42-.17.11.49.42-.18c.23.19,1.08.76,1.1,1.1l.39.12a8.23,8.23,0,0,0,.59,2.33l-.3.47,1,.14c.09-.39.94-1,1.24-1.19l.48-1,.49-.06a4.29,4.29,0,0,1,.84-1.33,3.63,3.63,0,0,1,.43-1.44,3.72,3.72,0,0,0,1.39-1.07l0-1,1.71-2.42a3.14,3.14,0,0,0,1.54-1.26l-.59-.24a3.37,3.37,0,0,1,.49-1.09,15.15,15.15,0,0,0,6.13,2.37l.31.52a4.74,4.74,0,0,1,1.68,1.39A5.12,5.12,0,0,0,233.86,198.15Z"/></svg>