<svg id="Layer_1" data-name="Layer 1" xmlns="http://www.w3.org/2000/svg" viewBox="0 0 334.82 446.99"><defs><style>.cls-1{stroke:#fff;stroke-miterlimit:10;stroke-width:1.5px;}</style></defs><title>piemonte</title><path class="cls-1" d="M58.71,35.78l-.28.6c.25.59.24,1.49.52,2-.72,1.67-3.72,3.26-4.51,5A8,8,0,0,1,55,45.75l-.4.74-.5.23-.34.72c0,.73.9,1.53,1,2.26a4.42,4.42,0,0,0,1.38.4l.19.54c-.09.21-.5.94-.42,1.17A2.35,2.35,0,0,1,57,52.2l-.3.24.46.85-.65.29-.07.33.6.23.14.53.29.17,0,.41-.32.39.29.35a3,3,0,0,0,.32,1.51l-.19.42.37.69.86.25a2,2,0,0,0,.79.74l-.08.64c.77.65.89,1.83,1.33,2.67a2.25,2.25,0,0,0-1.36.51L58.76,63l-.06.4c-.28.19-.91,0-1.2,0,.21.28.77,1,1.12,1.12l-.53.36-.05.31-.43-.05-.33,1.14a2.36,2.36,0,0,1-1.35.35l-.24-1.31-.62-.51L55,64.32a1.68,1.68,0,0,0-1.13-.13l-.22.17L52.91,64l-.67.45.27.89-.84.41-.29.58.46.25-.1.41.61-.06-.13.36.36,1-.18.42-.44.11,0,.3.82.59.57-.08-1,1,0,.34.23.48.73.33.2.66.58.5-.09.57.7.78a1.36,1.36,0,0,1,0,.87l.25.44-.36.53.47.26,0,.44a3.49,3.49,0,0,1,1.33-.06l.37-.38.2.52.77.16-.11.42.75.09.1-.6.38.17L59.1,77,59,76.57l.4,0,.32-.33c.36,0,1.71-.33,2-.07a4,4,0,0,1,0,1.65l.6,1,.65-.17c.29.07.62.61.76.85l-.27.9a4.23,4.23,0,0,1,1,1.6l.28.1.31.48.35.16.34-.15.35.9-.56.72.78,1.27.38-.15.36.53,1.25-.09.49.53-.1.93a2.35,2.35,0,0,0,1.11.79,2,2,0,0,1-.34,1.15l.12.74a2.46,2.46,0,0,0-.12,1.65l-.23.42c0,.39.06,1.54.09,1.91l-.17.24-.43,0-.88.63c-.25.09-.84-.21-1.06-.31L66.52,94l.08-.53-.76-.69-.61.08a3,3,0,0,1-.5-1l-.24-.16L64.21,91a2.61,2.61,0,0,1-1.11.08l-.34-.5-.86,0-.59,1-.7.27,0,.29.51.44c0,.41.08,1.77.38,2.08a1.62,1.62,0,0,1-1,.53l-.24-.4-1.32,0-.11.89-.5.13L58,96.3v.84l-.41.43-.43-.19.21-.48A7,7,0,0,0,56.08,94a2.08,2.08,0,0,0-1.08.15l-.39-.31a2.78,2.78,0,0,0-1.83.47l-.11.43.42.4-.2.34h-.3l-.17.37L52,96l0,.53-.45.23-.68-.44a4.74,4.74,0,0,1-1.55,0l-.18-.47-.51.47-.12.46-.63-.33-.18-.32-.41.15L47,97.36a2.82,2.82,0,0,0-1,.54l-.19-.78-.8-.18-.41-.57-.9-.21-.46-.86-.82.51A2.51,2.51,0,0,0,42.17,97l-.59.14-.07.5.38.36-.11.28.37.73a2.08,2.08,0,0,0-.55.92,4.39,4.39,0,0,1-1.52.7V101l-.26.26.16.51-.44.85-.75-.06a1.94,1.94,0,0,1-.2,1.21l-.83-.45-.33.4.08.49h.27l.39.58-.25.48-.49.3.45.46-.47.92.23.45.36.12.12,1.07a2.69,2.69,0,0,0-.81,1.14l-.67,0-.37-.46-.52-.09c-.24.15-.82.5-.89.8l.74.34.22.6-.32.3-.89-.46a1.5,1.5,0,0,1-1,.45l-.27-.42L32.2,111l-.09-.34c-.42-.33-1.3-.24-1.76-.48-.22-.13-1.13-.83-1.41-.76a3.22,3.22,0,0,0-1.13.71l-.14.62.5,1.07-.37.64-.37-.07,0-1a8,8,0,0,0-1.07-1.32l-.11-.51.36-.48-.15-.51.38-.53-1.09-.22-.34.15a1.89,1.89,0,0,1-.48.89l-1.43-.18-.47.23-.37-.1-.4.35-.65-.2-1.06.56-.86-.24-.1.62a1.44,1.44,0,0,1-.89-.49c-.21.08-.82.36-1,.26l-.27-1.11a6.81,6.81,0,0,1-1.55-.1l-.22.15-.8-.69-.09-.53-.68.08-.39-.68-.28-.08-.1-.47-.33,0-.33-.36-.63.23c-.23-.22-.83-.82-1.16-.84a1.31,1.31,0,0,0-.75-.55l-1,.27L9,104.69l-.62-.27a3.65,3.65,0,0,1-.17-1.68l-.36-.28-.3.06L7.2,102l.14-.53-.85-.87-.09-.72-.88-.42a3.64,3.64,0,0,0,.28-2.28l.88,0L7,96.91l.37,0L6.39,96l-.11-.62-.8-.61A6.55,6.55,0,0,1,5,93a2.06,2.06,0,0,0,.72-.91l1-.17,0-.37.6-.21,0-.68A4.38,4.38,0,0,0,8,89.59l.38-.14a1.58,1.58,0,0,1-.5-1.06,7.87,7.87,0,0,1,1.17-1.34,2,2,0,0,0,1.18,0l.84.5.38-.13-.22-1.17L10.6,86l-.42-.8a3.3,3.3,0,0,0,0-1.4l-.49-.54A5.35,5.35,0,0,0,10.4,82L10,81.85l0-.52A2.41,2.41,0,0,0,9,81l-1-.72L7.44,81c-.66-.14-1.85-.35-2.18-1a2.36,2.36,0,0,1-1-.88H4.08l-.33-.57-.57-.21.07-.63.25-.31-.33-.27.56-.74v-.48a1.93,1.93,0,0,1-.65-.89l.34-.07-.13-.78c-.27-.34-1.45-.25-1.82-.26l-.24-.49.16-.47a1.54,1.54,0,0,1-.15-1.08,5.48,5.48,0,0,1-.85-1.21l.2-.49c.29.11.85-.16,1.1-.29l.24-.6c.21.12.66,0,.87-.11l.74.36.84-.82A4.31,4.31,0,0,1,6.49,70a4.77,4.77,0,0,1,1.32-.44l-.32-.65.27-.42c.74.35,1.64-.26,2.06-.87l-.16-.31c.42-.16,1.46-.59,1.91-.39l.59-.32.4.62L13,67l0-.27.69-.73.46,0,.37-.42-.1-.72.13-.3a5.77,5.77,0,0,1-.59-1.8l.45,0,.39-.89.59-.28.16-.84c.11-.16.65-.74.62-1a1.58,1.58,0,0,1-.82-.64l-1-.5,0-.26L14.1,58l.11-.49.26-.22a5.08,5.08,0,0,1,.45-1.45l.31-.16a2.84,2.84,0,0,1,0,1.36l.45-.18,1.11.28.4.41.43-.14.5-.69.43-.14.22-.61a3.62,3.62,0,0,1,1.43.1c.17-.25.86-.3,1.13-.33l.29.34c.63-.36,1.33-1.16,2-1.37l0-.16.66-.65A2.3,2.3,0,0,1,26,54l.45-.42.47-.08a2.26,2.26,0,0,0,.87.55l.23.61.69-.25c.27,0,.92.63,1.1.78.2-.21.83-.2,1.09-.2l.42.35c.46-.48,1.46-.66,1.77-1.27l1.46-.53.35.22.92,0,0-.45.57-.8.54-.07.12-.3a5.78,5.78,0,0,1-.84-1.52l.21-.71.24,0,.48-.83-.22-.42L37,48.3a2,2,0,0,1-1.14-.75c.07-.32-.36-1-.52-1.22a2.09,2.09,0,0,0,0-1.11l.31-.2-.23-.54.38-.83-.19-.24a9,9,0,0,1,0-1.87l.37-.36-.21-.45a2.45,2.45,0,0,0,.32-1.31,2.59,2.59,0,0,0,.89-.91c.57.12,1.64-.09,2.14.15l.33-.56h.32l.06-.76.6-.48L40.19,36l.34-1.15c.57-.2,1.49-.19,2-.39l.22-.71.77-.2.31-.41-.1-.44.47-.86-.3-.38a5.41,5.41,0,0,0-.31-1.34l-.36-.15-.36-.77-.75-.39c.55-.38,1.07-1.24,1.59-1.57l.62.24,1-.18a3.09,3.09,0,0,0,.73-1.17c.15-.22.79-.33,1-.38l.09-.71a2.7,2.7,0,0,0,1.31-.42l.2-.36,0-.43L48,23.33c.12-.39,1-.72,1.36-.86a1.33,1.33,0,0,1,1.47-.66c.22-.25,1.09-.34,1.4-.38l.5.83-.24.3,0,.47.27.43a2.86,2.86,0,0,0-.09,1.78,2,2,0,0,0-.17,1.22l-.3.43-.27.06-.13.55-.35.23.69,1.38-.37.36.54.36.11.44c.54.11,1.13.59,1.67.68l.17.79a1.66,1.66,0,0,1,.8,1.3l.78.44-.24.45.4.41v.39h1l.27.42.55.12.29.33Z"/></svg>