<svg id="Layer_1" data-name="Layer 1" xmlns="http://www.w3.org/2000/svg" viewBox="0 0 334.82 446.99"><defs><style>.cls-1{stroke:#fff;stroke-miterlimit:10;stroke-width:1.5px;}</style></defs><title>puglia</title><path class="cls-1" d="M318,244.06l.49.46c-.05.45.69,1.17,1,1.46l-.24.87a1.89,1.89,0,0,0,1.22,1.3l.15.45c.6.33,1.24,1.12,1.84,1.43a2.45,2.45,0,0,1,1.39.64l.51.05a9.87,9.87,0,0,0,1.41,1.07,5.25,5.25,0,0,0,1.73,1.65l0,.34c.41.54,1.32,1,1.75,1.49s1.11,1.57,1.87,1.73l.27.36,0,.49.27.06a8,8,0,0,0,.82,1.79l-.16.4a2.12,2.12,0,0,0,.68,1.25c0,.31.36,1,.5,1.24l.28-.08.43.42-.28.43.44.63-1,1.23-.2,1.3a5.8,5.8,0,0,1-1.11.82l-.06.93-.42.28a16,16,0,0,0-.57,3.44l.3.63c0,.45-.36,2.44-.12,2.84l-.54.88-.23-.15-.44.28-.37-.15-.23-.43h-.35c-.18-.34-1.25-.82-1.58-1a6.26,6.26,0,0,1-1.73,0c-.79-.54-1.9-.81-2.55-1.64-.33-.2-1.54-.79-1.62-1.23a2.76,2.76,0,0,1-1.19-1.08l0-.34a5.33,5.33,0,0,1-1.09-1.4l.32,0,.32-.46V268l-.48-.76-.64-.25c1.23-.88.72-2.3-.05-3.3l-.7-.23-.16-.42c-.72-.43-1.58-1.31-1.15-2.21-.66-.74-1.22-2-2.12-2.52l-.48.22a4.85,4.85,0,0,0-2.83-.41c-2-.7-4.69.26-6.78.38l-.49-.57-1.09-.22-.2-.33c-.55-.3-1.38-.08-1.93-.35l-.14-.26c-.26-.1-1.1-.36-1.24-.62l-.42.05a3.16,3.16,0,0,1-1-.62h-.43l-.36-.42c-.28-.1-1.18-.34-1.34-.64l-.56,0,.14-.5.6-.13.72-.77-.29-.73-.81-.62-1.11,0-.61-.93c-3.37-1.58-6.82,1.84-8.42,4.55-.67,0-1.29-.86-1.72-1.28v-.53l-.52-.56a4.68,4.68,0,0,1-1.67-.16l-.49-.5.48-.88-.66-.76.23-.44-.56-.55a3.88,3.88,0,0,1,.26-1.25l-.15-.4.42-.31c-1-.8-.15-2.38-.13-3.39l-.34,0-.56-.47.8-.48a6.57,6.57,0,0,1-1.85-1.28l-.29.21-.6-.35a2.49,2.49,0,0,1-1.7-.3l-.2.34.33.47-.41.1-.17-.58-.62.11.24,1-.15,0-.53-.57,0-.24-.78-.43a4,4,0,0,1-2.31,2.26l-.4-.19-.62-1.1c-.68-.14-1.54-1.19-1.91-1.73l-1.13-.67c-.23-.62-1.12-1-1.12-1.72l-.32-.28a4.87,4.87,0,0,0-.92-2.39l-1.15-.38-.7.42-.12.48-.35.28a3.19,3.19,0,0,0-1.84-1.09,11.43,11.43,0,0,0-2.41-1.06l-.16-.52.9.05a4.59,4.59,0,0,0,.8-1.12l-.14-1,.35-.18v-.31l-1-.84-.23.2a6,6,0,0,1-.7-1.53l-.48-.21-.21-.4a1.55,1.55,0,0,0-.93,0l-.61-.56-.19.14L256,228l-1,.46-.36-.17-.25.48-.56.3-.17.73a1.62,1.62,0,0,0-.86.37l-.47-.54-.64,0-.14.32a4.64,4.64,0,0,1-3.12-.23,1.33,1.33,0,0,1-.86.06l-.82.44-.43.8v.43a3.47,3.47,0,0,1-1.88-.83l-.94.06a4.74,4.74,0,0,0-1.46-1.08,2.7,2.7,0,0,1-.81.87l-.47-.37a2,2,0,0,1-1.08-.33l-.65.42c-.91-.36-1.38-1.87-2.38-2.06l0-.74a3,3,0,0,1,1.34-1.17l.12-.2a2.25,2.25,0,0,1-.48-1.29l1-.2c0-.3-.79-1-1-1.15l-.35,0-.41.28-.13-.38-1-.41-.95.17-.4-.16v-.43l-.28-.18.09-.55-.51-.07c-.2-.3-.86-.43-1.18-.47,0-.62-.4-1-.42-1.53l.64-.61.49-.12-.36-.52.14-.53.34-.14-.15-.48-.67.05c-.31-.34-1-.34-1.26-.73l-.26-.94a7.16,7.16,0,0,1-1.68-1.57l-.62-.1-.23-.23c-.12-1.16.88-2.63-.14-3.61a1.81,1.81,0,0,0,.58-.86l.94.2.09.34.49.25.5,0,0-.44.56-.12.08-.72a2.41,2.41,0,0,0,1.17-.66H233a1.15,1.15,0,0,1,.92-1l.26-.52a2.3,2.3,0,0,1-1.18-1.12l.19-.49-.37-.47.09-.62.39-.3,0-1-.48-.73.08-.5.56-.51c.05-.22.19-.65.42-.77a2.91,2.91,0,0,1-.07-1.82c1.95.65,4.73-.52,6.43.74,2.28.27,5.17-.63,7.37-1.14.57-.1,1.27.45,1.82.45a36.4,36.4,0,0,0,9.22-1.68c.57.32,1.63,0,2.23.38a2.68,2.68,0,0,0,1.85,1.09l.27.69.42.2a2.65,2.65,0,0,0,.74,2.22l-.13.17a3.14,3.14,0,0,1-.16,1.94l-.49.21-.16.49-.45.2-.19.35-1,.46-.4.58-.46.17-.22.6c-1.35,1.15-3.29,1.88-4.54,3.14a6.55,6.55,0,0,0,2.44,6.57c1.14.67,3.26,1.63,4.49,2.16a7.14,7.14,0,0,0,2.11.94,11.83,11.83,0,0,0,1.76,1.19c.54.09,2.15.59,2.69.76a5.82,5.82,0,0,0,1.83.87c.59,1.07,2.92,1,3.61,1.87.32.11,1,.4,1.11.73l1.29.46a3.81,3.81,0,0,1,2,.57l2.44.61a1.72,1.72,0,0,0,1.78.72l.37.34.39,0c.74.55,2,.57,2.79,1.14a2.55,2.55,0,0,1,1.08.32,8.21,8.21,0,0,1,2.81.87c0,.12,1.38.85,1.45.91a2.74,2.74,0,0,1,1.73,1l.07.24a7.83,7.83,0,0,1,4.43,3.54,3.92,3.92,0,0,1,1.94,1.25c.52.45,1.43.73,1.74,1.4,1.77,1.08,4.23,1.57,6.17,2.2,1.28.52,3.1,2,4.39,2.55a7.43,7.43,0,0,0,3.33.32l.17.47.44.34-.24.47C317,244.22,317.7,244.31,318,244.06Zm-74.51-53-.19-.31.41-.54.15.38Z"/></svg>