<svg class="_2HCuqd3NYACKYaSTmrITE3" viewBox="0 0 20 20" xmlns="http://www.w3.org/2000/svg"><path d="M3.37,2.75a5.9,5.9,0,0,1,5.49,3.7.62.62,0,0,1-.29.79A3.16,3.16,0,0,0,7.24,8.57a.63.63,0,0,1-.79.29,5.89,5.89,0,0,1-3.7-5.49A.62.62,0,0,1,3.37,2.75Zm8.06,4.49a.63.63,0,0,1-.29-.79,5.89,5.89,0,0,1,5.49-3.7.61.61,0,0,1,.62.6v0a5.89,5.89,0,0,1-3.7,5.49.62.62,0,0,1-.79-.29A3.16,3.16,0,0,0,11.43,7.24Zm2.12,3.9a5.89,5.89,0,0,1,3.7,5.49.62.62,0,0,1-.62.62h0a5.89,5.89,0,0,1-5.49-3.7.63.63,0,0,1,.29-.79,3.16,3.16,0,0,0,1.33-1.33A.62.62,0,0,1,13.55,11.14Zm-5,1.62a.62.62,0,0,1,.29.79,5.89,5.89,0,0,1-5.49,3.7.62.62,0,0,1-.62-.62h0a5.9,5.9,0,0,1,3.7-5.49.62.62,0,0,1,.79.29,3.1,3.1,0,0,0,1.35,1.33ZM10,5.93A7.23,7.23,0,0,0,7.51,2.82,5,5,0,0,1,9.68.09a.61.61,0,0,1,.64,0,5,5,0,0,1,2.17,2.73A7.23,7.23,0,0,0,10,5.93Zm9.91,3.75a.61.61,0,0,1,0,.64,5,5,0,0,1-2.73,2.17A7.23,7.23,0,0,0,14.07,10a7.36,7.36,0,0,0,3.11-2.49A5,5,0,0,1,19.91,9.68ZM10,14.07a7.18,7.18,0,0,0,2.5,3.11,5,5,0,0,1-2.18,2.73.61.61,0,0,1-.64,0,5,5,0,0,1-2.17-2.73A7.23,7.23,0,0,0,10,14.07ZM5.93,10a7.23,7.23,0,0,0-3.11,2.49A5,5,0,0,1,.09,10.32a.61.61,0,0,1,0-.64A5,5,0,0,1,2.82,7.51,7.23,7.23,0,0,0,5.93,10Z"></path></svg>