<svg id="Layer_1" data-name="Layer 1" xmlns="http://www.w3.org/2000/svg" viewBox="0 0 51.29 94.93"><defs><style>.cls-1{stroke:#fff;stroke-miterlimit:10;stroke-width:1.5px;}</style></defs><title>sardegna</title><path class="cls-1" d="M35.29,306.83c-.24-.37-.06-1.33-.35-1.7l.27-.31-.2-.48.31-.48.38-.07.37.52a2.46,2.46,0,0,0,1.19-.32l.15.51.71.51a2.15,2.15,0,0,0,.19,1,3.84,3.84,0,0,0,.76-1c-.37-.35-.34-1.12-.74-1.45l-.56.15-.24-.52a1.94,1.94,0,0,0,.16-1l-.53-.61-.37.47-.22-1.59-.21,0-.48-.45-.14-.73A7,7,0,0,0,37.12,298l.44-.17L38,297c-.07-.28-.21-1.17-.5-1.32l0-.42-.57-.08a3,3,0,0,1-.28-1.09l-.26-.14.34-.94a1.79,1.79,0,0,0,.82-1.79l-.53-.25-.25-.41.16-.72a8.25,8.25,0,0,0,2-2.59,3.18,3.18,0,0,1,.47-1.23,1.39,1.39,0,0,1,.23-.88l-.14-.6-.38-.27a2.82,2.82,0,0,1,.3-1.69l-.42-.44a3.92,3.92,0,0,0,.4-1.24l-.24-.17a4.41,4.41,0,0,0,0-1.66l.24-.43.26.06a11,11,0,0,0,1,2,3.84,3.84,0,0,1,.71-1l-.22-.29a5.4,5.4,0,0,0,1.36-4.2l-.35-.24.16-.56a2.5,2.5,0,0,0-1-1l-1.15.09-.92,1.07A1.69,1.69,0,0,0,38,273.37a6.4,6.4,0,0,0,0-2.92,2.48,2.48,0,0,0,.7-1.47l-.19-.43-.83,0,.25-.56,1,.11.35-.28h.61L41,266.73l0-1.47a2.34,2.34,0,0,1-.59-2.06l-.15-.25.39-.88-.13-.55a22.26,22.26,0,0,0,.75-2.72l-.52-.61v-.57l-.59-.16c-.23-.71-.84-.82-1.5-.81l-.29-.87.31-.22a7.41,7.41,0,0,0,.39-2.46,12.45,12.45,0,0,1-.59-2.37l-1-.76a16.57,16.57,0,0,1-.66-2l.17-.44a1.87,1.87,0,0,0-.86-1l-1.22.49-.07.42-1.33-.12c0-.28.41-.69.6-.86l.06-.36-.23-.44-.6-.07a3.8,3.8,0,0,1-.88,1.43l-.3-.1a4.6,4.6,0,0,0-.14-1.39l.11-.41a4.55,4.55,0,0,0,1.2-.43,3.3,3.3,0,0,1,.58-1.53v-.35l-.8-.28A2.18,2.18,0,0,0,32,241.1l0-.24a2.08,2.08,0,0,0,1-1.59l-.19-.42A2.7,2.7,0,0,0,34,237.21c.36-.64,1.16-1.69.82-2.47l-.75-.53,0-.45-.38-.34c-.09-.17.62-1.22.69-1.37.2.16.83.78,1.1.76l-.26.49.14.81-.11.24c1.17,2.23,2.52,3.22,5.09,3l1,.74c1.8.24,4.73-.06,5.41-2.05.54-.45,1.52-.64,2-1.18l.78.11.21-.16c1.27.37,2.28-.5,3.06-1.4a4.55,4.55,0,0,0,1.38-2.7l.37,0,.4-.31.28,0A16.8,16.8,0,0,0,57,228.74a4,4,0,0,1,2-2l.45.38c.62.08,1.52,0,1.86-.6l-.07-.25,1-.09.46-.47.08-.35-.33-.26-.1-.52c.21-.16.37-1,.43-1.22l-.18-.26-.36.18-.28-.29.19-.35.73.25c.4-.38,1.21-.22,1.62-.62l.28,0,0,.49a2.13,2.13,0,0,1,1.24.77,2.27,2.27,0,0,1-.36,1.2l.19.13.3-.93.41.6V225l.85-.13.24-.36.73-.08.16.95a5.06,5.06,0,0,0,1.52.3l0,.39-.41.4.61.07,0,.34.36.59-.09,1.06.94-.83,0-.62.45-.16.7.24.16-.58.32,0a2.42,2.42,0,0,0,.54,1l-.22.33.15.39.48-.26.23.39-.25,1-.3.18-.32-.41-.32.59.06.47-.29.35.08.39-.4.94.44.05,0-.46a2.13,2.13,0,0,0,1-.31l0,.49-.38.69.75.18.59-.67.31.1.39.5.6.22.4-.13.21.42-.34.36c-.35,0-.94-.55-1.18-.77l-.76.55-.09.45.31.32-.77,1,.16.57-.35.14a1.8,1.8,0,0,1-1.12-.4l-.63.2.1.63c.52,0,1.14-.35,1.65-.23l.36.61.44.12.66-.71.91.12L75.21,237l.42.21.21.4h.47l-.15.53.43.33.5-.24.24.52.65.18-.19.38-.6-.2-.25.39.29.61-.47.14c-.49.79.27,1.89,1.06,2.12a5.47,5.47,0,0,0-.07,1.67c.09.31.63.73.87.91a2,2,0,0,1,.07,1.18,1.82,1.82,0,0,0-.24,1.17l.28.42v.71a3.51,3.51,0,0,0,1,1l.26,1.19.73.41.07.19a13.46,13.46,0,0,1-1.12,3.21l-.28.16a2.63,2.63,0,0,0-.34,1.22l-.59,1-.36,0c-1.45.9-2.38,2.57-3.34,3.9a3.72,3.72,0,0,0-.17,2,3.63,3.63,0,0,0,.08,1.73c.32.1.64,1.35.75,1.61.36.52,1.24,1.76,1.9,1.93l.14.64-.21.14a2.73,2.73,0,0,1-.7,1.41,3,3,0,0,0-.2,1.25l-.42.62,0,1.38.36.49.39-.1.07.41-.67.32c-.38.31-.39,1.41-.4,1.84L76,277c-.67.62-.78,2.07-1,2.92a18,18,0,0,1,.13,2.54l-.52.71.13.37c-1.12,1.24.16,3.31-.6,4.67l0,.45-.37.36a6.17,6.17,0,0,0-.26,1.64l.3.14c-.11.58.14,1.41-.16,2-.87,1.25-1.67,3.2-1.22,4.74l.68.48c-1.53.82-2,2.86-2.07,4.45l.39.19c-.35.45-.28,1.49-.68,1.9l-.53,0c-.27.27-.79.88-.78,1.28l-.34-.36.21-.39-.18-.5-.54-.19a2.77,2.77,0,0,0-1.36.47c0-.26-.71-.72-.89-.87l-.47-.06.1-.38a3.1,3.1,0,0,0-1.42-1.08,1.72,1.72,0,0,0-.72-.94l-.47,0-.14-.3L61.8,301a1.13,1.13,0,0,0-.67-.5,2.37,2.37,0,0,0-2,1.26l.12.45-.55-.09a5.42,5.42,0,0,0-1-1.21l-.42,0a5.9,5.9,0,0,0-2.74,3.46,2.66,2.66,0,0,1,.16,1.31l.83,1.25a5.16,5.16,0,0,1-.7,1.36l0,.62-.4.62-.47.06c-.51,1.08-2.34,1.94-2.91,3a6.21,6.21,0,0,0-1.49,1h-.65l-.36-.68-.39-.22-.37.19-.36-.33v-.41a4.51,4.51,0,0,1-1.44-.79c-.33.13-1.31.47-1.5.79l-.54,0,.08.51L43,312.52l-.32.18-.44-.12,0-.51.34-.35.2-.83-.29-.8-.69-.29-.64-1.39.07-.46.26-.19,0-.58-.27-.53-.61-.07-.48-.51a2.91,2.91,0,0,0-1.8,0l0,.31a3.48,3.48,0,0,0-.62,2.28l-.34.43.11.3a2,2,0,0,1-.95.52l-.3-.29-.49-1.71C35.56,307.78,35.37,307.07,35.29,306.83Zm3-79.84.54.35.15.36-.42.28.1.36-.28.8c-.15-.25-1.13-.53-1.38-.63a5.84,5.84,0,0,1-1,1.16l-.09.59.39.6-.26.67a4.76,4.76,0,0,0-1.35-.27l.17-.67.25-.11.24-.47-.31-.2.2-.58.61-.1a3.27,3.27,0,0,0,.69-1l.5-.05a1.62,1.62,0,0,0-.3-.95l.13-.21c.23,0,.82.09,1-.08Zm-4.38,74.08c-.16.58,0,1.36-.12,1.93a1.77,1.77,0,0,1-.14,1.09l-.71.17-1-.52.17-.25,0-.7-.89-.61.36-.62.78-.13.47-.39Zm36.45-78.56.18,1,.27.1-.34.74-.6-.14-.44.23-.57,0-.19-.66.14-.28,1-.58,0-.66Zm1.07.7.36.28-.14,1.41-.42.37-.5-.08A3,3,0,0,1,71.44,223.21Zm7.17,12.63.24.4a5.06,5.06,0,0,0-1.48.9l-.55-.18ZM67.85,222.76l.46.29-.44.56-.35-.27,0-.46Zm10.58,14.88.34.21-.3.43-.54-.28.09-.39Zm-8.77-12.32-.33-.45.46-.34.24.53ZM69,220.61l.11.33-.59.43-.12-.26Zm-.78,1.18-.54-.21.34-.29Z" transform="translate(-30.23 -219.32)"/></svg>