<svg id="Layer_1" data-name="Layer 1" xmlns="http://www.w3.org/2000/svg" viewBox="0 0 114.77 130.07"><defs><style>.cls-1{stroke:#fff;stroke-miterlimit:10;stroke-width:1.5px;}</style></defs><title>sicilia</title><path class="cls-1" d="M251.71,338.54h.64l.28.29a8.31,8.31,0,0,0-2,.75,5.78,5.78,0,0,0-.72,2.19l.56-.2c-1.34,1.48-1.79,3.85-2.83,5.49-.14.2-1.18,1.23-1.11,1.49a27,27,0,0,0-2.71,4c-.41.58-1.64,1.67-1.38,2.49l-.35.13a2.12,2.12,0,0,0-.59,1.27,11.13,11.13,0,0,0-1.77,3,3.93,3.93,0,0,1,.45,1.19,5.91,5.91,0,0,0-.71,2.39l-.56.57a10.14,10.14,0,0,0,.15,2.14l-.33.19-.21.47-.32.14-.15.5-.81.47,0,.33c-1.22,1.1-.85,3.09-.67,4.53a14.71,14.71,0,0,0,.26,3.25l.42.38.86.15.7.66.3-.17.7.4.29-.46a3.93,3.93,0,0,0,1.15,1.28l.18.55-.87.31-.34-.25-.49.51.15.3-.35.59.14.7.46.48v.65l.24.37.39,0v.8a3.35,3.35,0,0,0,1.32.87l.57-.17.43.12.19,1-.27.43-.42.17-.2.54.27.63.3.08.41-.41.37.22a5.14,5.14,0,0,0,.69,1.11l-.07.23-.58-.06-.36-.42-1.09.5a2.48,2.48,0,0,1-.23,1.14l-.9.13-.3.31-.35,0-.14.32c-.66.26-.85,1.33-1.5,1.59a6.31,6.31,0,0,0-.49,1.87l-.28,0a3.27,3.27,0,0,0-.63,1.23,1.55,1.55,0,0,1,.05,1.06l-.35.29.14.32-.1.56a10.89,10.89,0,0,0,.85,1.71,2,2,0,0,0,.62,1.77l-.21.67-.63-.19a2.88,2.88,0,0,1-.92.95l-.35-.36-.43-.11c0-.76-.76-1.29-1.38-1.56a2.35,2.35,0,0,0-1.24.43l-.49-.05c-1.11-1.08-2.66-2-4-.72h-.48a1.76,1.76,0,0,1-.85.48l-.34-.26H227l-.44-.38c-.24,0-.94,0-1.13.15l-.51-.15-.6-.81c-.26-.12-.87-.41-1-.69-1.06-.22-2.19-1-3.31-.69l-.47-.26-.7,0a4.32,4.32,0,0,0-1.12-1.25c-.32-3.09-3-6.14-5.08-8.3a18,18,0,0,0-3-1.65c-1.43-.58-3.42-1.32-5-.9a4.62,4.62,0,0,0-3.08.41,1.21,1.21,0,0,0-.88,0,3.82,3.82,0,0,1-1.45-.62,2.15,2.15,0,0,0-1.07-1.23,10.94,10.94,0,0,1-2.24-.17L195,382l-.44-.05a4.56,4.56,0,0,0-1.2-.77,4.48,4.48,0,0,0-1.69-1.86c-.48-.59-1.41-1.14-1.91-1.72l-.43.18-.78-.35-.9.14-.53-.27-.36,0a3.17,3.17,0,0,1-1.46-1.39,1.49,1.49,0,0,1-.84-.55,3.54,3.54,0,0,0-1.67-.7l-.78-.91-.8-.17c-.22-1.06-1.15-1.7-1.66-2.6l-.64-.23a1.89,1.89,0,0,0-1.57-1.23l-.42.19a4,4,0,0,0-2.31-.45,1.36,1.36,0,0,1-.94.34l-.31-.15c.12-.42-.55-1.29-.75-1.61a3.82,3.82,0,0,0-2.16-1.39l-.38.13c-2.26-.83-4.82,0-7.05.51a6,6,0,0,1-1.77-2.89l-.84-.76-.21.13-.36-.35-.49-.12-.53.17-1-.62c-.07-.36-.63-.88-.89-1.11l0-1.68a2.29,2.29,0,0,1-.46-1,3.76,3.76,0,0,0-.87-1.07l.47-.47h.49l.32-.55c-.17-.37.42-1.43.56-1.75l-.11-.31-.47-.4-.22-.63c.55-.75,1.4-2,1.11-2.95l.33-.35.09-.4.3-.17v-.48c.23-.27,1.26-1.21,1.22-1.61l.56-.28c.83.56,2.05-.23,2.57-.9l-.17-.5.47-.28.45.34.67-.11a6.93,6.93,0,0,0,.84-1.24,4.26,4.26,0,0,1-.64-1.45l.32-.35.35.45.83-.16a1.76,1.76,0,0,1,.11,1.11l.29,0,.35.61,0,.89c.44.69,1.19,2.23,2.12,2.37l.24,0,.09.57.64.48a7.52,7.52,0,0,0,4.43-1.82l.38,0,.78-.61a4.58,4.58,0,0,0-.77-2l.43-.14.49-.57-.08-.62.74-.66.51,0,.48.31.71,0v.46a2.22,2.22,0,0,0,2.6-1l.86-.13a2.54,2.54,0,0,1,1.25-.84l.29.47,0,.31.62.48.38,0a2.72,2.72,0,0,1,.18,2.48c.89,1.38,2.91,1.39,4.22.65l.11-.44.81.48a5.89,5.89,0,0,1,.16,1.88,4.82,4.82,0,0,0,1.74,1.22,3.17,3.17,0,0,0,1.3.81,3.49,3.49,0,0,0,1.9.53l.21.51a2.19,2.19,0,0,1,1,.29,12.48,12.48,0,0,0,6-2.3,1.49,1.49,0,0,1,1,0,3,3,0,0,0,1.18-.37l.37,0,.93.69a3.76,3.76,0,0,1,1.33.15,2.32,2.32,0,0,0,1.18-.45l.71.29.31-.09c.72.16,2,.65,2.74.27a2,2,0,0,0,2-.27,2.73,2.73,0,0,0,2.58-.86l.37,0,.29.25a4.43,4.43,0,0,0,3.31-1l.74,0,1.06-.53.41.05a15,15,0,0,0,3.44-3.71c.79.88,2.45.16,3.32-.23.69.24,1.37-.46,1.76-.93,1.88,1.25,1.07,1.95,3.85,1.47l.35.33.06.45.78.41c.35.12,1.24-.55,1.51-.71a4.17,4.17,0,0,0,1.14-.56,6.75,6.75,0,0,0,2-3.31,2.33,2.33,0,0,1,0-1.23l.42.82a3,3,0,0,1-.33,1.1l.13.19A3,3,0,0,0,243,341a9.07,9.07,0,0,0,2.17-.72l1.46-.8c.4-.33,2.08-2.05,2.67-2a3.15,3.15,0,0,1,1.29.68ZM142.36,395.46l.37-.2a3.61,3.61,0,0,0,1.08,1,3,3,0,0,1,0,1.91l-.63.55a1.31,1.31,0,0,1-1.71-1.06l-.48-.21a2.61,2.61,0,0,0-.91-1.32,1.78,1.78,0,0,1,.27-1.13l.55-.29.49.12A1.86,1.86,0,0,0,142.36,395.46Zm89.38-66,.06,1.22.49.39-.67.1v.66l.18.31-.27.49-.65-.84-.59-.14-.4-.53c0-.32,0-1.31.36-1.52Zm-2.91-2.32.22.84-.15.35.09.6-.44.1c-.44-.42-1.41-.58-1.81-1l.31-.87A4,4,0,0,0,228.83,327.15Zm3,6.52a1.65,1.65,0,0,1,1.3,1.37l-.4.36-.48-.07c-.17-.19-.56-.58-.84-.61l-.32-.93.44-.34ZM158.36,445.22a12.62,12.62,0,0,0,1.95.34l.34-.2.85.3-.21.3.22.64a2.92,2.92,0,0,1-2-.69,8.51,8.51,0,0,1-1.58-.4ZM152.12,352l.25.6.28.16.38-.14,1,.7-.15.47-.46-.06-.4-.48a2.7,2.7,0,0,0-1.29.13l-.39-.11-.22-.66Zm86.94-32.3c-.23-.1-.71-.35-.8-.61l.69-.87.24-.08.65.26-.43,1.07Zm-94.31,30.78c-.11.59.61,1.16.6,1.74l-.84-.28a5.79,5.79,0,0,1-.67-1.42l.17-.16Zm75.73-22.17-.93,0-.52-.75.18-.3.91.14.15.72Zm-41.93-5.67.42.27a1.18,1.18,0,0,1-1.42.61l.2-.71.61-.34Zm-25.66,26.73.52,1.24-.64.06-.29-.54Zm3.49,4.82-.13.1a5.45,5.45,0,0,1,.17,1.56l-.22.19-.37-1.85ZM169.18,432l.11.78-.66,0-.35-.51.37-.28Zm44.27-102.53-.31-.15,0-.51.26-.23.52.16-.21.69Zm21.08-4-.05-.49.33-.38.25.13-.1.57Z" transform="translate(-139.31 -317.29)"/></svg>