<svg id="Layer_1" data-name="Layer 1" xmlns="http://www.w3.org/2000/svg" viewBox="0 0 334.82 446.99"><defs><style>.cls-1{stroke:#fff;stroke-miterlimit:10;stroke-width:1.5px;}</style></defs><title>toscana</title><path class="cls-1" d="M120.38,178.76l.8-.1a4,4,0,0,0-.12-4.8l-.55,0-.14.36a3.53,3.53,0,0,1-.79-1.78l-.63-.73.13-.39a8.69,8.69,0,0,0-2-1.19,18.16,18.16,0,0,0-1.13-2.61,8.62,8.62,0,0,0-5.25-2.16l-1.42-1.11.64-.14a2.63,2.63,0,0,0,.44-2.38l.51-.7c-.86-2.31-4-2.9-6.2-2.61l-.62.75.07.39-.66-.05-.61-.54-.4-1.18.13-.39-.12-.46.32-.21.48.05.13-.36-.12-.39.3-.24a20.82,20.82,0,0,0,.35-8.5l-.63-2a6.73,6.73,0,0,1-1.24-1.49,1.56,1.56,0,0,0-.21-1c-.2-.67-.37-1.71-1.05-2.08a4.9,4.9,0,0,0-1.39-2.16l-.37-.06-.29-.35,0-.38a2.22,2.22,0,0,1-.32-1,3.27,3.27,0,0,1-.59-2.26l.16-.15c-.36-1.07-.22-2.79-.68-3.84l.3-.55a47.09,47.09,0,0,0-.46-4.69l-.46-1.6a2.52,2.52,0,0,0-.27-1.31A13.71,13.71,0,0,0,90.84,116c.1-.45,1-1.27,1.35-1.57l.11-.45-.62-.68-.77-.18-.45.44a2.19,2.19,0,0,1-.56-2.08l-.34-.34-1.06.09-.22-.14-.61.21-.15-.17,1-1-.83-.59-.64.54-.47,0,.53-1.14-.49-.41a2,2,0,0,0-.1-1.42l-1-.63-.25.13a6.1,6.1,0,0,0-1.11-.92l-.15-.5a1.25,1.25,0,0,0-.78-.41,3.82,3.82,0,0,0-.58-1.48h-.53l.85-.63.42.16c.67-1,1.85-2,2.4-3.1.59-.51,1.63-.11,2.32-.32l.24.19.36-.16,1.32.36v.46l.25.29.55.08.15.46-.52,1a4.59,4.59,0,0,0,1.71,1.26,9,9,0,0,0,1.23,1.08,2.05,2.05,0,0,1,1.19-.27l.5.39.17.56,1.64,1.33a2.52,2.52,0,0,0,.65,1.1l1.19-.61a3.05,3.05,0,0,0,2,.68l1,.79.17.53.44.34,1-.12.75.56-.23.48.13.31a2.75,2.75,0,0,1,.88.85l-.1.3c.37.73,1.67,1.25,2,2l.85-.17v-.8l.28-.19.23-.52.55.25.89-.13c.43.24,1.45-.08,1.82.34.18.76,1.17.91,1.58,1.48l.3-.16.36.29.14.45h.83l.65.5-.12.75.53.14.25-.47c.38,0,.91-.78,1.12-1l0-.41.71-.58.07-.26.52,0v.45l-.28.14-.08.41a2.5,2.5,0,0,0,2.49.68,4.33,4.33,0,0,1,1.83-.65c.38.3,1.1.28,1.52.55l.38-.13.54.2.44-.25-.09-.45a5.16,5.16,0,0,1-1.76-1.09v-.3l.5,0a2.49,2.49,0,0,1,1.59-.31l.25.15,1.17-1,.07-.49.5-.41,1,.25a3.64,3.64,0,0,1,1.06-1.33h.22l.67.56-.11.81.54.54.34.09a3.27,3.27,0,0,0,1.76,1.22l.22-.48c.49.23,1.22.09,1.73.3l.06.45a1.81,1.81,0,0,0-.58.81l-.26,0-.1.44.68-.26a3.51,3.51,0,0,1,1.22.66l.57-.4.11-.34a4.13,4.13,0,0,0,1.82-.12l.24.17-.12.66-.24.19c0,.41-.59,1-.87,1.24-.4.58-.3,1.2-.78,1.74l-.71.15.19.46-.5.6.21.52,1,.66.1.23-.29.57a2.11,2.11,0,0,0,.95.65l-.21,1.64a4.71,4.71,0,0,0,2,1.24c.27.3,1.17,1.42,1.56,1.54l.4-.3,1.12.33.36-.19.24.73.78.12.17.58.91.55.56-.17a2.94,2.94,0,0,0,1.28.38l.31.53.35.11.88-.47.41.15a3,3,0,0,0,1.13-.49,5.3,5.3,0,0,0,.84,1.18l.41-1,.52-.09.44.33.35-.37.75-.16a3.06,3.06,0,0,0,1.2.55c.06.35.89,1.14,1.13,1.39l-.31.5-.34-.31-.41.11.09,1-.49.13.14-.65-.41-.13-.25.46-.66.38-.29-.15a6,6,0,0,1-1.2,1.11l-.45,0-.48.35,0,.25.62.59.1.39-.49.44-.08.43-.86,1-.27,1.25-.31-.28a2.84,2.84,0,0,1-1.1.22l-.34.72.12.46c.46.09.89.72,1.37.77l-.1.41-1,.32-.12.48-.52.52-.68-.16-.16.3-.49.22-.24.34.21.59.54.08.5-.25.19.11-.12,1.22.56.15.21-.23c.42.12.79.84,1,1.2,0,.32,0,1.15-.27,1.39l.17.48c.25.12,1,.53,1.27.4a2.36,2.36,0,0,1,.45-1.15l.82.65c-.34.78-1.69.85-2.11,1.58l-.74,0a2.76,2.76,0,0,1-1,.72,2.76,2.76,0,0,0-1-.66l-.44.25.17.67a3.92,3.92,0,0,0-.36,1.44l-.6.42h-.52c-.45.5-1.34.73-1.79,1.24a4.11,4.11,0,0,0,.16,2.06l-.2.73.34.76h.34l.24-.5.44.18.26.58a1.62,1.62,0,0,0-.29,1,6.46,6.46,0,0,0-.61,2.84,3.9,3.9,0,0,0-.54,1.51l.53.3c.22.22.19.87.18,1.15l-.84.06-.5.75-.55.26.08.31a4,4,0,0,1-1.24-.17,2,2,0,0,1-1.05.6l-.09.61-.22.23c-.14-.2-.51-.71-.75-.78a2.87,2.87,0,0,0-.86,1.34l.37.14a2.56,2.56,0,0,1,.55.94c.31,0,.93.19,1.1.48-.33.4-.32,1.11-.63,1.51l-.44,0a3,3,0,0,1,.07,1.31l.45.11.22.34-.11.61-.68.35-.87-.12.05.46-.52.74-.62-.2a1.51,1.51,0,0,1-.9.6l.16.4-.32.24-.5,0-.39.41-.52-.1-.25.35-.43-.39-.62.13.14.9-.45.35-.21.62c.26.16.83.54.94.85l.59.29c.18.58-.1,1.41,0,2a10.86,10.86,0,0,1-2.09-.26l-.76.31-.78-.24-.22.23,0,.53-.94,1c0,.14.1.52,0,.64-1.14-.41-3.28-1.32-4.51-1.15l-.54-.55a2.32,2.32,0,0,0-1.82.52l.16.68-.58.27-.12.3a2.16,2.16,0,0,0-1,.39,1.86,1.86,0,0,0-1.51-1.26,2,2,0,0,1,.23-2.09l.48.51Zm-19.52-15.5a8.72,8.72,0,0,0,0,1.91l-.38.07-.55.58.26.53.6.36-.06.86a3.21,3.21,0,0,0-1.31-.09,14.68,14.68,0,0,0-1.07-2l-1.49.33-.08.58-.51,0-.17-.27-.55-.15-.3.12,0,.73a3.56,3.56,0,0,0-2.4-.25l-.8-.46a2.81,2.81,0,0,1-.48-1.74,2.3,2.3,0,0,1,2.15-.75l.21-.17.53.21.39.57.59.24.19-.45.62-.16.19-.53,1.15-.07,0,.6.61.33.51-.09.09-.72a1.83,1.83,0,0,0,.89-.95v-.28l.51-.78a5.06,5.06,0,0,0,1,1Zm12.37,17.07.51.26.55,1.1-.07.43.24.23-.07.49-.34.23a3.79,3.79,0,0,1-1-1.28l-.43-.08-.07-.33.49-.2ZM84.43,154l.34.2c0,.65-.81,1.1-1.1,1.61l-.25-.19a2.57,2.57,0,0,1,.77-2.5l.3.3Zm67.1-27.76.38.37,0,.52a1.58,1.58,0,0,0-1,.46l-.4,0-.44-1.18a3.33,3.33,0,0,1,1.33.08Zm-54.1,56.23-.41.3-.62-.14c-.16-.23-.05-.8,0-1l.58-.24.39.33Zm-6.35-10.6.18.67a2.42,2.42,0,0,1-1.36,0l-.18-.28L90,172l.35.1.58-.59Zm28.48,13.54-.45.7-.08-.63ZM86.8,139.13l.19.18-.24.56-.29-.12.09-.5Z"/></svg>