<svg id="Layer_1" data-name="Layer 1" xmlns="http://www.w3.org/2000/svg" viewBox="0 0 334.82 446.99"><defs><style>.cls-1{stroke:#fff;stroke-miterlimit:10;stroke-width:1.5px;}</style></defs><title>trento</title><path class="cls-1" d="M115.12,48l-.39-.2-.91.15-.38-.39-.69.24-.42-.25-.66.24-.25-.2-.7.38-.57-.1-.19,1a3.52,3.52,0,0,0-2.3.84l-.69-.08-.17-.39.36-.85-.38-.33-.56.09-.15-.37a3.91,3.91,0,0,0,.05-1.45l-.29-.44.12-.67.35-.19v-.76l-.43-.33-.19-.72.19-.41-.08-.33a1.55,1.55,0,0,1-.87-.22l.13-1.21.8-.81-.11-.78.27-.63a3,3,0,0,0,1.64-3l.45-.78a2.3,2.3,0,0,0-.61-.84,2.64,2.64,0,0,1,.74-1.19v-.47l.5-.48-.24-1.18-.41-.29.54-.58-.38-.56,0-.51-1.3-.8.11-.34.48.06a2.08,2.08,0,0,1,.8-.89l1.08,0,.64-.87c-.34-.37-.26-1.3-.19-1.74.49.22,1.18-.25,1.67-.1a5.73,5.73,0,0,0,1.65-1.24l.52,0c.35.44.54,1.23.89,1.67a7.12,7.12,0,0,1,1.61.3l.53-.53.31.22.51.05.55-.37.15-.51.49-.11.22-.44.66-.05A3,3,0,0,1,121,24.57l.33-.09.5.33a5.1,5.1,0,0,0-.58-2.52l.14-.36.77-.56.16,1.14.58.17.47.62a2.19,2.19,0,0,0,1.54-1l.55.5.3,1.37-.22.19.14.52-.35.56.21,1.09L125,28l.3.66a12,12,0,0,1-1.12,1.95l-.51.09.6,1,.63.19a2.28,2.28,0,0,0-.45.94c.1.24.61.44.83.51a5.17,5.17,0,0,0,2.26-1.54l.41.1.28-.55-.12-.31.54-.47a1.37,1.37,0,0,0,.66.68l.06.42.79.17.25-.13-.41-1,.09-.44a1.89,1.89,0,0,0,.54-.86,3.49,3.49,0,0,0,1.33-.34l.3-.65.38-.17-.06-.3c.45.1,1.53.34,1.81.74l.31-.2.16-1.07.8-.17.25-.23c-.07-.3.37-1.09.49-1.35a2.59,2.59,0,0,1,.26-1.47l-.09-.28.61-.4-.27-.73a2.19,2.19,0,0,0,2.1-.48l.73.36a4.63,4.63,0,0,0,1.24-.33c0-.24.41-.58.56-.72l.38.43.07.49-.35.33-.07.85,1.61.23.34.32,0,.86-.51.33-.51,0-.34.72.14.21a3.8,3.8,0,0,1-1.07,1.71L140.9,28l-.48.35.14.26.61.34v.37l.77.33.12.85-.29.68.35.58a2.4,2.4,0,0,0,1.22-.33v.79l.22.29.5,0,.3.35-.41.71c.26,0,.66.81.78,1l.61,0v.47l-.35.23,0,.42-.52-.2a1.14,1.14,0,0,1-.28.78l.09.23a1.85,1.85,0,0,0-.77,1.07l-2,.48-.17.22-1.11-.06-.35.29-.21-.37-.91.07-.36.48h-.57l.09.91.47.43.06.35a2.19,2.19,0,0,0-1.06.29l.17.34-.19.46.61,1.1-.47.93-1.22.12.09-.33h-1.15L135,41.72c-.2.11-.82-.2-1-.28a3.47,3.47,0,0,1-1.28.16l-.21.31-.42.11-.58.62a4.88,4.88,0,0,1-1.83-.16l-.16.43.2,1.17-.6,0v.7l-.36.17v.45a2.11,2.11,0,0,1-.88-.74l-.23.37-1.14,0c0,.75-.56,1.64-.63,2.38l-.57.45v.43a1.74,1.74,0,0,0-.77.59,1.82,1.82,0,0,0,.11,1l-.16.32L124,50a4.88,4.88,0,0,1,0,2l-1,.9v.48l-1.24,0a3,3,0,0,1-1-.91l-.4.44L120,53l-.53-.23c-.1.4-.77.92-1.08,1.14l-.45-.18-.39.42-.67-.59.19-.46a2.87,2.87,0,0,0-2-.74l.32-.89.2-.07.09-.67.54-.64-.31-.4.31-1.09Z"/></svg>