<svg id="Layer_1" data-name="Layer 1" xmlns="http://www.w3.org/2000/svg" viewBox="0 0 334.82 446.99"><defs><style>.cls-1{stroke:#fff;stroke-miterlimit:10;stroke-width:1.5px;}</style></defs><title>umbria</title><path class="cls-1" d="M178.31,167.79a2.66,2.66,0,0,1-.44,1.79l.19.37c0,.38-.76,1-1,1.2l-.39-.5a5.39,5.39,0,0,1-2,1.41l-.62-.18-.16-.38-.44.21v.39l-.3.25c-.34,0-1.58-.24-1.88,0l-.17.45-1-.5-.45.28c0,.51.52,1.22.34,1.76a3.21,3.21,0,0,0-2,1l-1.41.23v.71a3.94,3.94,0,0,0-1.76.46c0,.34.63.95.85,1.17l-.47.39-.62,0a1.89,1.89,0,0,1-1,.76l-.44-.24-.4-.84-.42,0c0,.65-.37,1.42-.18,2.08l-1.28,1.21-.6,0-.5.66-.34-.09a3.82,3.82,0,0,1-.22-1.39l-.55.23-.29-.26-.43.32h-.36l.38-.91-.81-.27-.44.18-.31-.94.19-.48-.15-.75.44-.34-.69-.5-.37.06-.46.66-.65.28-.18-.44-.56-.39-.24.26-.74-.87-.3.16-.35-1.16.34-.19-.09-.71h-.37l-.65-.47-.08-.43.29-.64-.47-.4.4-.68-.49-.3,0-.3-.83-.79-.23.06a1.42,1.42,0,0,0-.79-.57l-.57.79-.23-.21-.37.45-.36-.58-.34.35-.59,0a1.37,1.37,0,0,1-1.88-.24,5.15,5.15,0,0,0-1.83-.83l.21-.48-.63-.34a2,2,0,0,1,1.21-1.14l.31-1.15a4.32,4.32,0,0,0-1.35-.55c-.43-.57-.35-1.72-1-2.18l-.08-.31.55-.26.5-.75.84-.06c0-.28,0-.93-.18-1.15l-.53-.3c.08-.31.27-1.3.54-1.51a6.43,6.43,0,0,1,.61-2.84,1.6,1.6,0,0,1,.29-1l-.26-.58-.45-.18-.24.5h-.33l-.34-.76.2-.73a4.11,4.11,0,0,1-.16-2.06c.45-.51,1.34-.74,1.79-1.24h.52l.6-.42a4,4,0,0,1,.36-1.44l-.17-.67.44-.25a2.68,2.68,0,0,1,1,.66,2.88,2.88,0,0,0,1-.72l.74,0c.42-.73,1.77-.8,2.11-1.58l-.82-.65a2.4,2.4,0,0,0-.45,1.15c-.29.13-1-.28-1.27-.4l-.17-.48c.25-.24.26-1.07.27-1.39-.16-.36-.53-1.07-1-1.2l-.21.23-.56-.15.12-1.22-.19-.11-.5.25-.54-.08-.21-.59.24-.34.49-.22.16-.3.68.16.52-.52.12-.48,1-.32.1-.41c-.48-.05-.91-.68-1.37-.77l-.12-.46.34-.72a2.81,2.81,0,0,0,1.1-.22l.31.28.27-1.25.86-1,.08-.43.49-.44c.08.16.23.49.32.65a2.6,2.6,0,0,0,1.74,0l.49.23.22-.51a4,4,0,0,1,1.61-.34l-.27.62.32.42a6.09,6.09,0,0,0-.81,1.19h-.68l-.2.39.55.76.47.07.47-.47.89.81.53-.83.43-.13.66.81h.3l.35-.38a1.83,1.83,0,0,1,1.2,1.22l1.11,1.4c.46.52,1.32.92,1.69,1.52l.32-.4.74-.22a5.42,5.42,0,0,0,1.28.45,2.37,2.37,0,0,1,.74-1.48l.88.15.25.36-.28.19v.75l.38.46-.15.47-.77.44a2.54,2.54,0,0,0,.35,1l.29.18.09.37a2.22,2.22,0,0,1,.73,2.29l-.29.24.47.53.52.17a5.68,5.68,0,0,0,.33,1.88l.39.29.33,0a2.56,2.56,0,0,1-.25,2.14l-.6.31,0,.27.32.7a1.61,1.61,0,0,1,1.08,0l.09.83.35.24a5.89,5.89,0,0,0-.15,1.76l.41.47-.51.89a3.66,3.66,0,0,0,.54,1.06l-.34.78a7.11,7.11,0,0,0,1.47.89l0,.44.77.17-.24,1a2.86,2.86,0,0,1,.22,1.19l.4-.05.34-.94a3.11,3.11,0,0,0,1.41-.94,3.93,3.93,0,0,0,1.67,1.18c.26.67,1,1.41,1.19,2.11l.17.1a2.85,2.85,0,0,0,2-.85l.47.17a6.35,6.35,0,0,0,.46,1.58,5.26,5.26,0,0,0-.53,1.38l-.8,0-.63.5.13.41ZM157.2,134.73l-.64-.41.26-.26.37.09Z"/></svg>