<svg id="Layer_1" data-name="Layer 1" xmlns="http://www.w3.org/2000/svg" viewBox="0 0 334.82 446.99"><defs><style>.cls-1{stroke:#fff;stroke-miterlimit:10;stroke-width:1.5px;}</style></defs><title>valledaosta</title><path class="cls-1" d="M35.64,41.54a9,9,0,0,0,0,1.87l.19.24-.38.83.23.54-.31.2a2.08,2.08,0,0,1,0,1.11c.16.26.59.89.52,1.22A2,2,0,0,0,37,48.3l-.06.28.22.42-.48.83-.24,0-.21.71a5.63,5.63,0,0,0,.84,1.52l-.12.3-.54.07-.57.8,0,.45-.92,0-.35-.22-1.46.53c-.31.61-1.31.79-1.77,1.27L30.89,55c-.26,0-.89,0-1.09.2-.19-.16-.83-.82-1.1-.78l-.69.25-.23-.61a2.26,2.26,0,0,1-.87-.55l-.47.08L26,54a2.31,2.31,0,0,0-1.65-.13l-.66.65,0,.16c-.7.21-1.4,1-2,1.37l-.29-.34c-.27,0-1,.08-1.13.33a3.62,3.62,0,0,0-1.43-.1l-.22.61-.43.14-.5.69-.43.14-.4-.41-1.11-.28-.45.18a2.84,2.84,0,0,0,0-1.36l-.31.16a5.08,5.08,0,0,0-.45,1.45l-.26.22a2.54,2.54,0,0,0-1.5-.31l-.07-.29.3-.53a1.54,1.54,0,0,0-.9-.17l-.55-.32.15-.61-.23-.34c.17-.55-.16-1.29.15-1.8l-.43-.52a3.51,3.51,0,0,0,.27-1.39l.29-.11.16-.45c-.26-.1-.87-.35-1-.62l-.85.25L9.61,50l.05-.27-.57-.67a3.11,3.11,0,0,1-1.21-.66l-.47-.52c0-.24-.21-.72-.45-.84l.26-.56-.3-.35a4.1,4.1,0,0,0,0-1.26l.33-.58a2.29,2.29,0,0,1,.28-1.5l.65-.18.59.37L9,42.55a4,4,0,0,0,1.76.1,1.56,1.56,0,0,1,1.45-.75l.44-.65,0-.51.42-.55L13.8,40l.47.52v.38c.3.34.91,1.13.87,1.63h.45a2.29,2.29,0,0,1,1-.69c.18.24.6.8.92.85a5,5,0,0,1,.77-1.1c.23,0,1-.18,1.16,0a2.87,2.87,0,0,0,.91-1.1,2.26,2.26,0,0,1,1,.45l.39-.16,1,.76c.5-.42,1.44-.59,1.75-1.21l.83-.13.12-.62.67-.27.94.27.23-.28-.07-.58.24-.31.74.05.13.54a2.76,2.76,0,0,0,2-.05l.27.16.28.59.59.2.19.24-.1.51.25.37.44.07.38-.51.56.05.83.81.51-.33Z"/></svg>