<svg id="Layer_1" data-name="Layer 1" xmlns="http://www.w3.org/2000/svg" viewBox="0 0 334.82 446.99"><defs><style>.cls-1{stroke:#fff;stroke-miterlimit:10;stroke-width:1.5px;}</style></defs><title>veneto</title><path class="cls-1" d="M165.9,18c-.2.1-.66.35-.72.58l.1.63-.49.05-.89,1.08-.34-.14a4.14,4.14,0,0,0-.66,1.37,4.69,4.69,0,0,1,.28,1.52,2.44,2.44,0,0,1,.86,1.2L162.93,24l-.39.43a1.82,1.82,0,0,0-.95-.44c-.59.62-1.77,1.11-2.07,1.95l.07.47a6.11,6.11,0,0,0-.93,1.2l.06.44a3.48,3.48,0,0,0-1.37,1.45,1.21,1.21,0,0,1-.86,0l-.66.46-.11,1-.57.44-.22.67.43,1,1,.64.67-.23.18.25,0,.59.63-.09a2,2,0,0,1,.44,1.15c.1.31.9.72,1.16.87a2.36,2.36,0,0,1-.22,2.05,9.37,9.37,0,0,1-1.49,1l-.62,1.29.61,1.79c0,.28-.25,1.65-.07,1.88h.73a1.58,1.58,0,0,0,.78.83l.48,0,.46,1,0,.37.42.32.12.51a1.92,1.92,0,0,1,.59.83l-.18.41.18.4,1,.15-.08-.33.31-.29.27.34h.44l.14.42.44.34-.1.22.49.5a7.32,7.32,0,0,0,1.64-1.78l.35.41a5.17,5.17,0,0,0,.87-1l.78.33-.16.46.09.36.46,0v-.35l.49-.29v-.24l1-.12-.14.64.55.52.67-.17.38.29.61-.19,0-.8.27-.15a3,3,0,0,0,.53,1.08l-.19.43a2.58,2.58,0,0,0,.89,1.61l-.17.6.39.33,0,.41.36.2a5.08,5.08,0,0,1,.39,1.58l.6.51-.14.31a1.78,1.78,0,0,1,1.06.74l-.09.29c-1.5.31-3.41.21-4.84.9l-.25-.07c-.54.83-2.11,1.51-2.94,2-1.61,1.43-4,2-5.8,3.15a11.42,11.42,0,0,0-1.68.74,4.59,4.59,0,0,0-2.58,1.6l-.73-.45c-1.22,1-1.78,2.78-2.21,4.18-.63,2-1,4.2.28,6a7.59,7.59,0,0,0,.15,2.85c1.22,1.2,2.46,2.83,4,3.73a3.3,3.3,0,0,1,1.71.74l.15.32a12,12,0,0,0-1.22,1.51c-.21.76-.9,2.43-1.22,3.17a2.64,2.64,0,0,1-1,.48l-.38.42.17.3-.68.82c-.61-.48-1.56-1.22-1.44-2.13l-.19-.24-.88-.14-.47-.57L153.47,84l.35-.54-.37-.63-.68,0a2.74,2.74,0,0,0-.85.74l-.37-.16-.47.06a1.65,1.65,0,0,1-.67-.64l-.3.43-.43.11a2.32,2.32,0,0,1-.7-1.15l-.66-.49-.75,0-.45-.3a8.29,8.29,0,0,1-2.3-.4l-1,.45c-1-.25-2.27.26-3.3-.13A2.56,2.56,0,0,1,139,82l-.2.31.12.5-.32.39a2.32,2.32,0,0,0-1.24.36c-.34-.12-1.46.87-1.72,1l-.89-.12-.14-.74a4.76,4.76,0,0,1-1.41-1,8,8,0,0,0-2.72.21l-.25-.11a4,4,0,0,0,0-1.14c-.68-.32-2.69-1.13-3-1.89l-1-.31-.32-.63.2-.39-.35-.39-.51.4a2.29,2.29,0,0,0-1.73-.74l0-.49.35-.31-.28-.24,0-.33.33-.48-1.37-.56-.32.78-.58-.24-.29.11,0,.39a2.64,2.64,0,0,1-1.73-1.08l.42-.42c0-.26-.26-.76-.4-1l-.5.4-.43-.07.12-1.37-.19-.4a2.27,2.27,0,0,0-1.17-.39l-.43-.48.18-.57-.89-.18-.1-.38h-.48l-.2-.23-.75-.17a5.14,5.14,0,0,0-1.66-2.3l-1.26,1-.24-.16a1.68,1.68,0,0,0,.09-.94l-.46-.31,0-.4-.31-.29-.44,0,0-.44a1.23,1.23,0,0,0,.78-.49l-.38-.31a3.05,3.05,0,0,0,.56-1.18l-.17-.49L110,63.4l-.3.45a44.73,44.73,0,0,1-.43-7.45A56.6,56.6,0,0,0,115.12,48l1.15.62L116,49.7l.31.4-.54.64-.09.67-.2.07-.32.89a2.89,2.89,0,0,1,2,.74l-.19.46.67.59.39-.42.45.18c.32-.22,1-.74,1.08-1.14L120,53l.37-.06.4-.44a3,3,0,0,0,1,.91l1.24,0V52.9l1-.9a5,5,0,0,0,0-2l.44.19.16-.32a1.82,1.82,0,0,1-.11-1,1.74,1.74,0,0,1,.77-.59v-.43l.57-.45c.07-.74.58-1.63.63-2.38l1.14,0,.23-.37a2.11,2.11,0,0,0,.88.74V44.9l.36-.17V44l.6,0-.2-1.17.16-.43a4.88,4.88,0,0,0,1.83.16l.58-.62.42-.11.21-.31a3.47,3.47,0,0,0,1.28-.16c.19.08.8.39,1,.28l.26,1.45h1.15l-.09.33,1.22-.12.47-.93-.61-1.1.19-.46-.17-.34a2.19,2.19,0,0,1,1.06-.29l-.06-.35-.47-.43-.09-.91h.57l.36-.48.91-.07.21.37.35-.29,1.11.06.17-.22,2-.48a1.89,1.89,0,0,1,.77-1.07l-.09-.23a1.14,1.14,0,0,0,.28-.78l.52.2,0-.42.35-.23v-.47l-.61,0c-.12-.18-.52-1-.78-1l.41-.7-.3-.35-.5,0-.22-.29V31.4a2.4,2.4,0,0,1-1.22.33l-.35-.58.29-.68-.12-.85-.77-.33v-.37l-.61-.34-.14-.26.48-.35.32.11a3.72,3.72,0,0,0,1.07-1.71l-.14-.21.34-.72.51,0,.51-.33,0-.86-.34-.32-1.61-.23.07-.85c.61-.77,1.83-.68,2.57-1.22l.58.21.32-.06.1-.37a1.91,1.91,0,0,1,1-.23l.27.49a24.52,24.52,0,0,0,1.39-2.32l-.11-.55.52-.57a10.1,10.1,0,0,0,.11-2,14,14,0,0,1,2,1.59h.69l.29.5.31.07V19l1.26-.43.07-.29.45-.19.59.43.58,0,.28-.41.62,0,.54.45.66-.11-.14-.78h.69l.76-1,1.15-.44.1.11c.3,0,1-.08,1.25.16a2.59,2.59,0,0,0,1.1.86l.23-.21A1.87,1.87,0,0,0,163,17l.56.33A1.85,1.85,0,0,1,165.9,18Z"/></svg>